<svg xmlns="http://www.w3.org/2000/svg" xmlns:xlink="http://www.w3.org/1999/xlink" width="31.947" height="31.947" viewBox="0 0 31.947 31.947">
  <defs>
    <linearGradient id="linear-gradient" x1="0.85" y1="1.25" x2="0.15" y2="-0.25" gradientUnits="objectBoundingBox">
      <stop offset="0" stop-color="#253a83"/>
      <stop offset="1" stop-color="#2098d5"/>
    </linearGradient>
  </defs>
  <path id="Gradient_Overlay" data-name="Gradient Overlay" d="M546.026,791.9a15.974,15.974,0,0,1,31.947,0v1.444a5.771,5.771,0,0,1-10.514,3.29,7.476,7.476,0,0,1-5.557,2.484,7.217,7.217,0,0,1,0-14.434,7.437,7.437,0,0,1,4.523,1.535v-.092a1.443,1.443,0,1,1,2.886,0v7.217a2.887,2.887,0,0,0,5.773,0V791.9a13.087,13.087,0,1,0-13.183,13.2,13.536,13.536,0,0,0,8.091-2.695,1.443,1.443,0,1,1,1.757,2.291,16.455,16.455,0,0,1-9.848,3.272A16.031,16.031,0,0,1,546.026,791.9Zm11.547,0a4.352,4.352,0,0,0,4.33,4.35,4.353,4.353,0,1,0,0-8.7A4.352,4.352,0,0,0,557.573,791.9Z" transform="translate(-546.026 -776.027)" fill="url(#linear-gradient)"/>
</svg>
