<?xml version="1.0" encoding="utf-8"?>
<!-- Generator: Adobe Illustrator 16.0.0, SVG Export Plug-In . SVG Version: 6.00 Build 0)  -->
<!DOCTYPE svg PUBLIC "-//W3C//DTD SVG 1.1//EN" "http://www.w3.org/Graphics/SVG/1.1/DTD/svg11.dtd">
<svg version="1.1" id="Layer_1" xmlns="http://www.w3.org/2000/svg" xmlns:xlink="http://www.w3.org/1999/xlink" x="0px" y="0px"
	 width="590px" height="590px" viewBox="0 0 590 590" enable-background="new 0 0 590 590" xml:space="preserve">
<g>
	<path fill="#C5C5C5" d="M165.855,40.293l-1-1.731c-1.154,0.667-1.747,1.04-1.747,1.04l1.065,1.692
		C164.184,41.287,164.754,40.93,165.855,40.293z"/>
	<path fill="#C5C5C5" d="M248.188,10.427c-1.331,0.219-2.65,0.444-3.957,0.679l0.353,1.969c1.297-0.232,2.606-0.457,3.929-0.674
		L248.188,10.427z"/>
	<path fill="#C5C5C5" d="M240.284,11.84c-1.326,0.257-2.638,0.521-3.936,0.791l0.408,1.958c1.289-0.269,2.591-0.53,3.908-0.785
		L240.284,11.84z"/>
	<path fill="#C5C5C5" d="M232.425,13.478c-1.32,0.295-2.624,0.597-3.912,0.903l0.464,1.945c1.278-0.305,2.573-0.604,3.885-0.896
		L232.425,13.478z"/>
	<path fill="#C5C5C5" d="M280.104,7.037c-1.345,0.065-2.681,0.141-4.008,0.225l0.126,1.996c1.317-0.083,2.644-0.158,3.979-0.223
		L280.104,7.037z"/>
	<path fill="#C5C5C5" d="M272.093,7.542c-1.343,0.104-2.677,0.218-4,0.339l0.183,1.991c1.314-0.12,2.639-0.232,3.972-0.336
		L272.093,7.542z"/>
	<path fill="#C5C5C5" d="M264.099,8.276c-1.341,0.143-2.67,0.294-3.989,0.453l0.24,1.985c1.31-0.158,2.629-0.308,3.96-0.449
		L264.099,8.276z"/>
	<path fill="#C5C5C5" d="M256.127,9.238c-1.336,0.181-2.661,0.369-3.974,0.566l0.296,1.978c1.304-0.195,2.619-0.383,3.946-0.562
		L256.127,9.238z"/>
	<path fill="#C5C5C5" d="M224.614,15.34c-1.313,0.333-2.608,0.671-3.885,1.014l0.519,1.932c1.268-0.341,2.554-0.676,3.857-1.007
		L224.614,15.34z"/>
	<path fill="#C5C5C5" d="M288.128,6.761c-1.346,0.027-2.684,0.064-4.013,0.109l0.068,1.999c1.32-0.045,2.648-0.082,3.984-0.108
		L288.128,6.761z"/>
	<path fill="#C5C5C5" d="M186.545,28.009c-1.28,0.537-2.511,1.066-3.692,1.585l0.805,1.832c1.172-0.516,2.393-1.04,3.662-1.573
		L186.545,28.009z"/>
	<path fill="#C5C5C5" d="M194.003,25.02c-1.283,0.49-2.53,0.98-3.74,1.465l0.744,1.856c1.2-0.481,2.438-0.966,3.711-1.454
		L194.003,25.02z"/>
	<path fill="#C5C5C5" d="M172.85,36.523l-0.905-1.783c-1.337,0.68-2.528,1.305-3.569,1.863l0.946,1.762
		C170.351,37.813,171.528,37.195,172.85,36.523z"/>
	<path fill="#C5C5C5" d="M179.187,31.242c-1.285,0.591-2.499,1.164-3.638,1.714l0.869,1.801c1.129-0.544,2.331-1.112,3.604-1.698
		L179.187,31.242z"/>
	<path fill="#C5C5C5" d="M216.86,17.424c-1.306,0.371-2.591,0.746-3.854,1.125l0.574,1.916c1.255-0.376,2.53-0.749,3.827-1.117
		L216.86,17.424z"/>
	<path fill="#C5C5C5" d="M209.168,19.73c-1.298,0.41-2.571,0.822-3.819,1.237l0.63,1.898c1.239-0.412,2.504-0.821,3.792-1.229
		L209.168,19.73z"/>
	<path fill="#C5C5C5" d="M201.547,22.262c-1.29,0.45-2.552,0.9-3.782,1.35l0.687,1.879c1.222-0.447,2.474-0.894,3.754-1.34
		L201.547,22.262z"/>
	<path fill="#C5C5C5" d="M359.759,14.537c-1.309-0.313-2.611-0.614-3.91-0.905l-0.438,1.951c1.289,0.289,2.584,0.589,3.883,0.899
		L359.759,14.537z"/>
	<path fill="#C5C5C5" d="M390.517,23.666c-1.266-0.449-2.527-0.889-3.787-1.318l-0.645,1.893c1.252,0.428,2.506,0.864,3.764,1.311
		L390.517,23.666z"/>
	<path fill="#C5C5C5" d="M296.155,6.716c-0.806-0.007-1.608-0.011-2.41-0.011l-1.604,0.005l0.011,2l1.594-0.005
		c0.795,0,1.592,0.004,2.392,0.011L296.155,6.716z"/>
	<path fill="#C5C5C5" d="M375.263,18.691c-1.289-0.383-2.572-0.755-3.855-1.117l-0.543,1.925c1.273,0.359,2.549,0.729,3.828,1.109
		L375.263,18.691z"/>
	<path fill="#C5C5C5" d="M382.925,21.078c-1.279-0.417-2.553-0.822-3.824-1.219l-0.596,1.909c1.264,0.394,2.529,0.797,3.799,1.211
		L382.925,21.078z"/>
	<path fill="#C5C5C5" d="M398.044,26.451c-1.254-0.482-2.506-0.955-3.754-1.416l-0.693,1.875c1.24,0.459,2.484,0.929,3.73,1.408
		L398.044,26.451z"/>
	<path fill="#C5C5C5" d="M412.872,32.588c-1.229-0.544-2.455-1.078-3.678-1.603l-0.789,1.838c1.217,0.521,2.436,1.053,3.656,1.594
		L412.872,32.588z"/>
	<path fill="#C5C5C5" d="M405.497,29.428c-1.242-0.514-2.48-1.018-3.717-1.512l-0.742,1.857c1.229,0.49,2.459,0.99,3.693,1.502
		L405.497,29.428z"/>
	<path fill="#C5C5C5" d="M367.538,16.509c-1.299-0.348-2.594-0.686-3.883-1.013l-0.492,1.938c1.281,0.325,2.568,0.661,3.857,1.006
		L367.538,16.509z"/>
	<path fill="#C5C5C5" d="M312.198,7.313c-1.342-0.089-2.678-0.167-4.008-0.235l-0.104,1.997c1.32,0.068,2.646,0.146,3.98,0.234
		L312.198,7.313z"/>
	<path fill="#C5C5C5" d="M304.181,6.9c-1.344-0.051-2.682-0.091-4.012-0.121l-0.047,1.999c1.321,0.03,2.65,0.07,3.984,0.121
		L304.181,6.9z"/>
	<path fill="#C5C5C5" d="M320.2,7.955c-1.34-0.127-2.672-0.243-4-0.35l-0.16,1.993c1.318,0.106,2.641,0.222,3.971,0.348L320.2,7.955
		z"/>
	<path fill="#C5C5C5" d="M351.927,12.779c-1.316-0.276-2.627-0.542-3.934-0.797l-0.383,1.963c1.297,0.253,2.598,0.517,3.906,0.791
		L351.927,12.779z"/>
	<path fill="#C5C5C5" d="M344.048,11.239c-1.322-0.239-2.641-0.469-3.953-0.688l-0.328,1.973c1.303,0.218,2.611,0.445,3.926,0.683
		L344.048,11.239z"/>
	<path fill="#C5C5C5" d="M336.13,9.92c-1.328-0.201-2.652-0.394-3.971-0.575l-0.273,1.981c1.311,0.181,2.625,0.371,3.945,0.571
		L336.13,9.92z"/>
	<path fill="#C5C5C5" d="M328.181,8.825c-1.336-0.165-2.664-0.319-3.988-0.464l-0.217,1.988c1.314,0.144,2.633,0.297,3.959,0.461
		L328.181,8.825z"/>
	<path fill="#C5C5C5" d="M418.657,35.229c-0.709-0.332-1.422-0.667-2.129-0.992l-0.834,1.818c0.732,0.336,1.469,0.684,2.205,1.026
		l-1.508,3.679l10.5-0.729l-6.91-8.033L418.657,35.229z"/>
	<path fill="#C5C5C5" d="M38.563,425.145c0.667,1.154,1.04,1.746,1.04,1.746l1.692-1.064c-0.007-0.01-0.364-0.58-1.001-1.682
		L38.563,425.145z"/>
	<path fill="#C5C5C5" d="M12.401,341.488l-1.975,0.324c0.219,1.331,0.445,2.65,0.68,3.957l1.969-0.353
		C12.843,344.12,12.618,342.811,12.401,341.488z"/>
	<path fill="#C5C5C5" d="M13.804,349.335l-1.963,0.381c0.257,1.326,0.521,2.638,0.791,3.936l1.958-0.408
		C14.321,351.954,14.06,350.652,13.804,349.335z"/>
	<path fill="#C5C5C5" d="M15.431,357.139l-1.952,0.437c0.295,1.32,0.597,2.624,0.903,3.912l1.945-0.464
		C16.022,359.745,15.724,358.45,15.431,357.139z"/>
	<path fill="#C5C5C5" d="M9.036,309.799l-1.998,0.097c0.065,1.345,0.141,2.681,0.225,4.008l1.996-0.126
		C9.175,312.46,9.101,311.134,9.036,309.799z"/>
	<path fill="#C5C5C5" d="M9.537,317.753l-1.994,0.154c0.104,1.343,0.218,2.677,0.339,4l1.991-0.183
		C9.753,320.41,9.64,319.086,9.537,317.753z"/>
	<path fill="#C5C5C5" d="M10.267,325.69l-1.989,0.211c0.142,1.341,0.294,2.67,0.452,3.989l1.986-0.24
		C10.558,328.341,10.407,327.021,10.267,325.69z"/>
	<path fill="#C5C5C5" d="M11.222,333.604l-1.982,0.269c0.181,1.336,0.369,2.661,0.566,3.974l1.977-0.296
		C11.588,336.247,11.4,334.932,11.222,333.604z"/>
	<path fill="#C5C5C5" d="M17.279,364.895l-1.938,0.491c0.332,1.313,0.671,2.608,1.014,3.885l1.932-0.519
		C17.945,367.484,17.61,366.198,17.279,364.895z"/>
	<path fill="#C5C5C5" d="M8.762,301.832l-2,0.04c0.027,1.346,0.063,2.684,0.109,4.013l1.999-0.068
		C8.825,304.496,8.788,303.168,8.762,301.832z"/>
	<path fill="#C5C5C5" d="M29.854,402.68l-1.844,0.775c0.537,1.279,1.066,2.51,1.585,3.691l1.832-0.805
		C30.911,405.17,30.387,403.949,29.854,402.68z"/>
	<path fill="#C5C5C5" d="M26.888,395.281l-1.867,0.715c0.49,1.283,0.98,2.531,1.465,3.74l1.856-0.744
		C27.86,397.793,27.376,396.555,26.888,395.281z"/>
	<path fill="#C5C5C5" d="M34.741,418.055c0.68,1.338,1.305,2.529,1.863,3.57l1.762-0.947c-0.553-1.029-1.17-2.207-1.842-3.527
		L34.741,418.055z"/>
	<path fill="#C5C5C5" d="M33.06,409.977l-1.816,0.836c0.591,1.285,1.164,2.5,1.714,3.639l1.801-0.869
		C34.214,412.453,33.646,411.25,33.06,409.977z"/>
	<path fill="#C5C5C5" d="M19.349,372.593l-1.924,0.547c0.371,1.306,0.746,2.591,1.125,3.854l1.916-0.574
		C20.09,375.165,19.717,373.89,19.349,372.593z"/>
	<path fill="#C5C5C5" d="M21.638,380.229l-1.906,0.604c0.41,1.297,0.822,2.57,1.236,3.818l1.898-0.629
		C22.455,382.781,22.046,381.518,21.638,380.229z"/>
	<path fill="#C5C5C5" d="M24.151,387.795l-1.889,0.658c0.449,1.289,0.9,2.551,1.35,3.781l1.879-0.686
		C25.044,390.326,24.597,389.074,24.151,387.795z"/>
	<path fill="#C5C5C5" d="M16.483,230.706l-1.945-0.465c-0.313,1.309-0.614,2.611-0.906,3.91l1.951,0.438
		C15.873,233.3,16.173,232.005,16.483,230.706z"/>
	<path fill="#C5C5C5" d="M25.552,200.151l-1.885-0.668c-0.449,1.266-0.889,2.527-1.318,3.787l1.893,0.645
		C24.669,202.663,25.105,201.409,25.552,200.151z"/>
	<path fill="#C5C5C5" d="M8.706,296.254c0-0.795,0.004-1.592,0.01-2.392l-2-0.018c-0.006,0.806-0.01,1.608-0.01,2.41l0.005,1.604
		l2-0.011L8.706,296.254z"/>
	<path fill="#C5C5C5" d="M20.608,215.308l-1.916-0.57c-0.383,1.289-0.756,2.572-1.117,3.855l1.924,0.543
		C19.858,217.862,20.229,216.587,20.608,215.308z"/>
	<path fill="#C5C5C5" d="M22.98,207.696l-1.901-0.621c-0.417,1.279-0.822,2.553-1.219,3.824l1.908,0.596
		C22.163,210.231,22.566,208.966,22.98,207.696z"/>
	<path fill="#C5C5C5" d="M28.319,192.673l-1.867-0.717c-0.482,1.254-0.955,2.506-1.416,3.754l1.875,0.693
		C27.37,195.163,27.84,193.919,28.319,192.673z"/>
	<path fill="#C5C5C5" d="M34.418,177.938l-1.829-0.811c-0.544,1.229-1.078,2.455-1.603,3.678l1.838,0.789
		C33.346,180.378,33.877,179.159,34.418,177.938z"/>
	<path fill="#C5C5C5" d="M31.276,185.269l-1.848-0.766c-0.514,1.242-1.018,2.48-1.512,3.717l1.857,0.742
		C30.265,187.733,30.765,186.503,31.276,185.269z"/>
	<path fill="#C5C5C5" d="M18.44,222.979l-1.932-0.518c-0.348,1.299-0.685,2.594-1.012,3.883l1.938,0.492
		C17.761,225.556,18.097,224.269,18.44,222.979z"/>
	<path fill="#C5C5C5" d="M9.31,277.933l-1.996-0.131c-0.088,1.342-0.166,2.678-0.234,4.008l1.996,0.104
		C9.144,280.593,9.222,279.267,9.31,277.933z"/>
	<path fill="#C5C5C5" d="M8.899,285.894l-1.998-0.074c-0.051,1.344-0.091,2.682-0.121,4.012l1.999,0.047
		C8.81,288.557,8.85,287.228,8.899,285.894z"/>
	<path fill="#C5C5C5" d="M9.947,269.989L7.956,269.8c-0.127,1.34-0.244,2.672-0.35,4l1.993,0.16
		C9.706,272.642,9.821,271.319,9.947,269.989z"/>
	<path fill="#C5C5C5" d="M14.737,238.483l-1.957-0.41c-0.276,1.316-0.542,2.627-0.797,3.934l1.963,0.383
		C14.199,241.093,14.463,239.792,14.737,238.483z"/>
	<path fill="#C5C5C5" d="M13.208,246.308l-1.968-0.355c-0.239,1.322-0.469,2.641-0.688,3.953l1.973,0.328
		C12.743,248.931,12.97,247.622,13.208,246.308z"/>
	<path fill="#C5C5C5" d="M11.898,254.169l-1.978-0.299c-0.201,1.328-0.394,2.652-0.575,3.971l1.981,0.273
		C11.508,256.804,11.698,255.489,11.898,254.169z"/>
	<path fill="#C5C5C5" d="M10.812,262.065l-1.986-0.246c-0.164,1.336-0.318,2.664-0.463,3.988l1.988,0.217
		C10.493,264.71,10.647,263.392,10.812,262.065z"/>
	<path fill="#C5C5C5" d="M34.237,173.472l1.818,0.834c0.336-0.732,0.684-1.469,1.026-2.205l3.679,1.508l-0.729-10.5l-8.033,6.91
		l3.23,1.324C34.897,172.052,34.563,172.765,34.237,173.472z"/>
	<path fill="#C5C5C5" d="M551.438,164.855c-0.668-1.155-1.041-1.747-1.041-1.747l-1.691,1.065c0.006,0.01,0.363,0.58,1,1.682
		L551.438,164.855z"/>
	<path fill="#C5C5C5" d="M577.6,248.511l1.974-0.324c-0.219-1.331-0.445-2.65-0.679-3.956l-1.969,0.353
		C577.157,245.879,577.383,247.189,577.6,248.511z"/>
	<path fill="#C5C5C5" d="M576.196,240.665l1.964-0.381c-0.257-1.326-0.521-2.639-0.792-3.936l-1.957,0.408
		C575.679,238.045,575.94,239.348,576.196,240.665z"/>
	<path fill="#C5C5C5" d="M574.569,232.86l1.953-0.437c-0.295-1.319-0.598-2.623-0.904-3.911l-1.945,0.464
		C573.978,230.255,574.276,231.55,574.569,232.86z"/>
	<path fill="#C5C5C5" d="M580.964,280.201l1.998-0.097c-0.064-1.346-0.14-2.682-0.224-4.009l-1.996,0.126
		C580.825,277.539,580.899,278.865,580.964,280.201z"/>
	<path fill="#C5C5C5" d="M580.464,272.247l1.994-0.154c-0.104-1.344-0.218-2.677-0.34-4l-1.99,0.183
		C580.248,269.59,580.36,270.913,580.464,272.247z"/>
	<path fill="#C5C5C5" d="M579.733,264.31l1.99-0.211c-0.143-1.341-0.294-2.671-0.453-3.989l-1.985,0.24
		C579.443,261.658,579.593,262.979,579.733,264.31z"/>
	<path fill="#C5C5C5" d="M578.779,256.396l1.981-0.269c-0.18-1.336-0.369-2.661-0.565-3.975l-1.978,0.296
		C578.413,253.753,578.601,255.068,578.779,256.396z"/>
	<path fill="#C5C5C5" d="M572.722,225.104l1.938-0.491c-0.332-1.313-0.67-2.607-1.014-3.885l-1.932,0.52
		C572.056,222.516,572.391,223.802,572.722,225.104z"/>
	<path fill="#C5C5C5" d="M581.239,288.167l2-0.04c-0.027-1.346-0.064-2.684-0.109-4.013l-2,0.068
		C581.176,285.503,581.212,286.831,581.239,288.167z"/>
	<path fill="#C5C5C5" d="M560.147,187.319l1.844-0.774c-0.537-1.28-1.066-2.512-1.586-3.693l-1.832,0.805
		C559.089,184.828,559.614,186.049,560.147,187.319z"/>
	<path fill="#C5C5C5" d="M563.112,194.718l1.867-0.715c-0.49-1.284-0.98-2.531-1.465-3.741l-1.855,0.744
		C562.14,192.206,562.624,193.443,563.112,194.718z"/>
	<path fill="#C5C5C5" d="M555.259,171.943c-0.68-1.337-1.305-2.528-1.863-3.569l-1.762,0.946c0.553,1.029,1.17,2.207,1.842,3.528
		L555.259,171.943z"/>
	<path fill="#C5C5C5" d="M556.94,180.021l1.816-0.836c-0.59-1.285-1.164-2.498-1.713-3.637l-1.801,0.869
		C555.786,177.547,556.354,178.748,556.94,180.021z"/>
	<path fill="#C5C5C5" d="M570.651,217.406l1.924-0.547c-0.371-1.305-0.746-2.59-1.125-3.854l-1.916,0.574
		C569.911,214.835,570.284,216.11,570.651,217.406z"/>
	<path fill="#C5C5C5" d="M568.362,209.771l1.907-0.603c-0.41-1.298-0.823-2.571-1.237-3.82l-1.898,0.63
		C567.546,207.218,567.955,208.482,568.362,209.771z"/>
	<path fill="#C5C5C5" d="M565.85,202.204l1.889-0.658c-0.45-1.29-0.9-2.551-1.351-3.782l-1.879,0.687
		C564.956,199.673,565.403,200.924,565.85,202.204z"/>
	<path fill="#C5C5C5" d="M573.518,359.294l1.945,0.465c0.312-1.309,0.614-2.611,0.905-3.91l-1.951-0.438
		C574.128,356.7,573.827,357.995,573.518,359.294z"/>
	<path fill="#C5C5C5" d="M564.448,389.85l1.885,0.668c0.449-1.266,0.89-2.527,1.318-3.787l-1.893-0.645
		C565.332,387.338,564.896,388.592,564.448,389.85z"/>
	<path fill="#C5C5C5" d="M583.29,292.141l-2,0.011l0.004,1.595c0,0.794-0.003,1.592-0.01,2.392l2,0.018
		c0.007-0.806,0.01-1.609,0.01-2.41L583.29,292.141z"/>
	<path fill="#C5C5C5" d="M569.392,374.692l1.917,0.57c0.383-1.289,0.755-2.572,1.117-3.855l-1.925-0.543
		C570.142,372.138,569.771,373.413,569.392,374.692z"/>
	<path fill="#C5C5C5" d="M567.021,382.305l1.9,0.621c0.418-1.279,0.823-2.553,1.22-3.824l-1.909-0.596
		C567.838,379.77,567.435,381.035,567.021,382.305z"/>
	<path fill="#C5C5C5" d="M561.681,397.328l1.867,0.717c0.482-1.254,0.955-2.506,1.416-3.754l-1.875-0.693
		C562.63,394.838,562.161,396.082,561.681,397.328z"/>
	<path fill="#C5C5C5" d="M555.583,412.063l1.828,0.811c0.545-1.229,1.078-2.455,1.604-3.678l-1.838-0.789
		C556.655,409.623,556.124,410.842,555.583,412.063z"/>
	<path fill="#C5C5C5" d="M558.724,404.732l1.848,0.766c0.514-1.242,1.018-2.48,1.512-3.717l-1.857-0.742
		C559.735,402.268,559.235,403.498,558.724,404.732z"/>
	<path fill="#C5C5C5" d="M571.56,367.021l1.932,0.518c0.348-1.299,0.686-2.594,1.012-3.883l-1.938-0.492
		C572.239,364.444,571.904,365.731,571.56,367.021z"/>
	<path fill="#C5C5C5" d="M580.69,312.067l1.996,0.131c0.088-1.342,0.167-2.678,0.235-4.008l-1.997-0.104
		C580.856,309.407,580.778,310.733,580.69,312.067z"/>
	<path fill="#C5C5C5" d="M581.101,304.106l1.999,0.074c0.05-1.344,0.091-2.682,0.12-4.012l-1.998-0.047
		C581.19,301.443,581.151,302.772,581.101,304.106z"/>
	<path fill="#C5C5C5" d="M580.054,320.011l1.99,0.189c0.127-1.34,0.244-2.672,0.35-4l-1.992-0.16
		C580.295,317.358,580.179,318.681,580.054,320.011z"/>
	<path fill="#C5C5C5" d="M575.263,351.517l1.957,0.41c0.277-1.316,0.543-2.627,0.798-3.934l-1.963-0.383
		C575.802,348.907,575.538,350.208,575.263,351.517z"/>
	<path fill="#C5C5C5" d="M576.792,343.692l1.969,0.355c0.239-1.322,0.469-2.641,0.688-3.953l-1.973-0.328
		C577.257,341.069,577.03,342.378,576.792,343.692z"/>
	<path fill="#C5C5C5" d="M578.103,335.831l1.977,0.299c0.201-1.328,0.395-2.652,0.576-3.971l-1.982-0.273
		C578.493,333.196,578.302,334.511,578.103,335.831z"/>
	<path fill="#C5C5C5" d="M579.189,327.935l1.985,0.246c0.165-1.336,0.319-2.664,0.463-3.988l-1.988-0.217
		C579.507,325.29,579.354,326.608,579.189,327.935z"/>
	<path fill="#C5C5C5" d="M555.763,416.529l-1.818-0.834c-0.336,0.732-0.684,1.469-1.025,2.205l-3.68-1.508l0.729,10.5l8.033-6.91
		l-3.23-1.324C555.103,417.949,555.438,417.236,555.763,416.529z"/>
	<path fill="#C5C5C5" d="M424.145,549.707l1,1.73c1.155-0.666,1.747-1.039,1.747-1.039l-1.065-1.693
		C425.816,548.713,425.246,549.07,424.145,549.707z"/>
	<path fill="#C5C5C5" d="M341.489,577.6l0.324,1.975c1.331-0.219,2.65-0.445,3.956-0.68l-0.353-1.969
		C344.121,577.158,342.811,577.383,341.489,577.6z"/>
	<path fill="#C5C5C5" d="M349.335,576.197l0.381,1.963c1.326-0.258,2.639-0.521,3.936-0.791l-0.408-1.959
		C351.955,575.68,350.652,575.941,349.335,576.197z"/>
	<path fill="#C5C5C5" d="M357.14,574.57l0.437,1.951c1.319-0.295,2.623-0.596,3.911-0.902l-0.464-1.945
		C359.745,573.979,358.45,574.277,357.14,574.57z"/>
	<path fill="#C5C5C5" d="M309.799,580.965l0.097,1.998c1.346-0.066,2.682-0.141,4.009-0.225l-0.126-1.996
		C312.461,580.826,311.135,580.9,309.799,580.965z"/>
	<path fill="#C5C5C5" d="M317.753,580.463l0.154,1.994c1.344-0.104,2.677-0.217,4-0.338l-0.183-1.992
		C320.41,580.248,319.087,580.361,317.753,580.463z"/>
	<path fill="#C5C5C5" d="M325.69,579.734l0.211,1.988c1.341-0.141,2.671-0.293,3.989-0.451l-0.24-1.986
		C328.342,579.443,327.021,579.594,325.69,579.734z"/>
	<path fill="#C5C5C5" d="M333.604,578.779l0.269,1.982c1.336-0.182,2.661-0.369,3.975-0.566l-0.296-1.977
		C336.247,578.412,334.932,578.6,333.604,578.779z"/>
	<path fill="#C5C5C5" d="M364.896,572.721l0.49,1.939c1.313-0.332,2.608-0.672,3.885-1.014l-0.519-1.932
		C367.484,572.055,366.198,572.391,364.896,572.721z"/>
	<path fill="#C5C5C5" d="M301.833,581.238l0.04,2c1.346-0.027,2.684-0.063,4.013-0.109l-0.068-1.998
		C304.497,581.176,303.169,581.213,301.833,581.238z"/>
	<path fill="#C5C5C5" d="M402.681,560.146l0.774,1.844c1.28-0.537,2.511-1.066,3.692-1.584l-0.805-1.832
		C405.171,559.09,403.95,559.613,402.681,560.146z"/>
	<path fill="#C5C5C5" d="M395.282,563.113l0.715,1.867c1.283-0.49,2.531-0.98,3.74-1.465l-0.744-1.857
		C397.794,562.141,396.556,562.625,395.282,563.113z"/>
	<path fill="#C5C5C5" d="M417.151,553.477l0.904,1.783c1.338-0.68,2.529-1.305,3.57-1.863l-0.947-1.762
		C419.649,552.188,418.472,552.805,417.151,553.477z"/>
	<path fill="#C5C5C5" d="M409.978,556.941l0.836,1.816c1.285-0.592,2.499-1.164,3.638-1.715l-0.869-1.801
		C412.453,555.787,411.251,556.355,409.978,556.941z"/>
	<path fill="#C5C5C5" d="M372.593,570.652l0.547,1.924c1.306-0.371,2.591-0.746,3.854-1.125l-0.574-1.916
		C375.165,569.91,373.89,570.283,372.593,570.652z"/>
	<path fill="#C5C5C5" d="M380.229,568.363l0.603,1.906c1.298-0.41,2.571-0.822,3.819-1.236l-0.629-1.898
		C382.782,567.545,381.518,567.955,380.229,568.363z"/>
	<path fill="#C5C5C5" d="M387.796,565.85l0.658,1.889c1.289-0.449,2.551-0.9,3.781-1.35l-0.686-1.879
		C390.327,564.957,389.075,565.404,387.796,565.85z"/>
	<path fill="#C5C5C5" d="M230.241,575.463c1.309,0.313,2.611,0.613,3.91,0.906l0.438-1.951c-1.289-0.291-2.584-0.59-3.883-0.9
		L230.241,575.463z"/>
	<path fill="#C5C5C5" d="M199.483,566.334c1.266,0.449,2.527,0.889,3.787,1.318l0.645-1.893c-1.252-0.428-2.506-0.865-3.764-1.311
		L199.483,566.334z"/>
	<path fill="#C5C5C5" d="M296.254,581.295c-0.794,0-1.592-0.004-2.392-0.01l-0.018,2c0.806,0.006,1.609,0.01,2.41,0.01l1.604-0.006
		l-0.011-2L296.254,581.295z"/>
	<path fill="#C5C5C5" d="M214.737,571.309c1.289,0.383,2.572,0.756,3.855,1.117l0.543-1.924c-1.273-0.359-2.549-0.73-3.828-1.109
		L214.737,571.309z"/>
	<path fill="#C5C5C5" d="M207.075,568.922c1.279,0.416,2.553,0.822,3.824,1.219l0.596-1.908c-1.264-0.395-2.529-0.799-3.799-1.213
		L207.075,568.922z"/>
	<path fill="#C5C5C5" d="M191.956,563.549c1.254,0.482,2.506,0.955,3.754,1.416l0.693-1.875c-1.24-0.459-2.484-0.93-3.73-1.408
		L191.956,563.549z"/>
	<path fill="#C5C5C5" d="M177.128,557.412c1.229,0.543,2.455,1.078,3.678,1.602l0.789-1.838c-1.217-0.521-2.436-1.053-3.656-1.594
		L177.128,557.412z"/>
	<path fill="#C5C5C5" d="M184.503,560.572c1.242,0.514,2.48,1.018,3.717,1.512l0.742-1.857c-1.229-0.49-2.459-0.99-3.693-1.502
		L184.503,560.572z"/>
	<path fill="#C5C5C5" d="M222.462,573.492c1.299,0.348,2.594,0.684,3.883,1.012l0.492-1.939c-1.281-0.324-2.568-0.66-3.857-1.004
		L222.462,573.492z"/>
	<path fill="#C5C5C5" d="M277.802,582.688c1.342,0.088,2.678,0.166,4.008,0.234l0.104-1.996c-1.32-0.068-2.646-0.146-3.98-0.234
		L277.802,582.688z"/>
	<path fill="#C5C5C5" d="M285.819,583.1c1.344,0.051,2.682,0.09,4.012,0.121l0.047-2c-1.321-0.029-2.65-0.07-3.984-0.119
		L285.819,583.1z"/>
	<path fill="#C5C5C5" d="M269.8,582.045c1.34,0.127,2.672,0.244,4,0.35l0.16-1.994c-1.318-0.105-2.641-0.221-3.971-0.348
		L269.8,582.045z"/>
	<path fill="#C5C5C5" d="M238.073,577.221c1.316,0.275,2.627,0.541,3.934,0.797l0.383-1.963c-1.297-0.254-2.598-0.518-3.906-0.791
		L238.073,577.221z"/>
	<path fill="#C5C5C5" d="M245.952,578.76c1.322,0.24,2.641,0.469,3.953,0.688l0.328-1.973c-1.303-0.217-2.611-0.443-3.926-0.682
		L245.952,578.76z"/>
	<path fill="#C5C5C5" d="M253.87,580.08c1.328,0.201,2.652,0.393,3.971,0.574l0.273-1.98c-1.311-0.182-2.625-0.371-3.945-0.572
		L253.87,580.08z"/>
	<path fill="#C5C5C5" d="M261.819,581.176c1.336,0.164,2.664,0.318,3.988,0.463l0.217-1.988c-1.314-0.143-2.633-0.297-3.959-0.461
		L261.819,581.176z"/>
	<path fill="#C5C5C5" d="M173.608,549.24l-10.5,0.729l6.91,8.033l1.324-3.23c0.709,0.332,1.422,0.666,2.129,0.992l0.834-1.818
		c-0.732-0.336-1.469-0.684-2.205-1.027L173.608,549.24z"/>
</g>
</svg>
