<?xml version="1.0" encoding="utf-8"?>
<!-- Generator: Adobe Illustrator 16.0.0, SVG Export Plug-In . SVG Version: 6.00 Build 0)  -->
<!DOCTYPE svg PUBLIC "-//W3C//DTD SVG 1.1//EN" "http://www.w3.org/Graphics/SVG/1.1/DTD/svg11.dtd">
<svg version="1.1" id="Layer_1" xmlns="http://www.w3.org/2000/svg" xmlns:xlink="http://www.w3.org/1999/xlink" x="0px" y="0px"
	 width="64px" height="64px" viewBox="0 0 64 64" enable-background="new 0 0 64 64" xml:space="preserve">
<path d="M37.484,31.999L61.864,7.62c1.515-1.514,1.515-3.97,0-5.483c-1.515-1.516-3.964-1.516-5.479,0l-24.385,24.38L7.621,2.137
	c-1.516-1.516-3.97-1.516-5.484,0c-1.515,1.514-1.515,3.97,0,5.483l24.385,24.379L2.137,56.378c-1.515,1.516-1.515,3.97,0,5.485
	C2.895,62.619,3.884,63,4.874,63c0.993,0,1.988-0.381,2.747-1.137l24.38-24.379l24.385,24.379C57.144,62.619,58.134,63,59.125,63
	s1.981-0.381,2.739-1.137c1.515-1.516,1.515-3.97,0-5.485L37.484,31.999z M37.484,31.999"/>
</svg>
