<?xml version="1.0" encoding="utf-8"?>
<!-- Generator: Adobe Illustrator 16.0.0, SVG Export Plug-In . SVG Version: 6.00 Build 0)  -->
<!DOCTYPE svg PUBLIC "-//W3C//DTD SVG 1.1//EN" "http://www.w3.org/Graphics/SVG/1.1/DTD/svg11.dtd">
<svg version="1.1" id="Layer_1" xmlns="http://www.w3.org/2000/svg" xmlns:xlink="http://www.w3.org/1999/xlink" x="0px" y="0px"
	 width="64px" height="64px" viewBox="0 0 64 64" enable-background="new 0 0 64 64" xml:space="preserve">
<linearGradient id="SVGID_1_" gradientUnits="userSpaceOnUse" x1="10.0352" y1="10.0352" x2="53.8053" y2="53.8053">
	<stop  offset="0" style="stop-color:#2198D4"/>
	<stop  offset="1" style="stop-color:#263981"/>
</linearGradient>
<path fill="url(#SVGID_1_)" d="M31.813,40.254c-4.634,0-8.403-3.808-8.403-8.441c0-4.634,3.77-8.441,8.403-8.441
	c4.758,0,8.777,3.886,8.777,8.441C40.59,36.369,36.571,40.254,31.813,40.254L31.813,40.254z M31.813,1C14.823,1,1,14.823,1,31.813
	C1,48.868,14.794,63,31.813,63c6.886,0,13.852-2.314,19.112-6.35c1.228-0.942,1.459-2.7,0.518-3.928
	c-0.942-1.228-2.701-1.459-3.928-0.517c-4.301,3.3-10.024,5.229-15.702,5.229c-13.901,0-25.211-11.515-25.211-25.622
	c0-13.901,11.31-25.249,25.211-25.249c14.108,0,25.584,11.347,25.584,25.249v2.801c0,3.089-2.513,5.603-5.603,5.603
	c-3.089,0-5.603-2.513-5.603-5.603c0-1.387,0-12.542,0-14.006c0-1.547-1.254-2.801-2.801-2.801c-1.548,0-2.802,1.254-2.802,2.801
	v0.178c-2.529-1.929-5.589-2.979-8.777-2.979c-7.723,0-14.006,6.283-14.006,14.006c0,7.723,6.283,14.006,14.006,14.006
	c4.188,0,8.042-1.797,10.782-4.82c2.025,2.91,5.394,4.82,9.2,4.82C57.974,45.819,63,40.793,63,34.614v-2.801
	C63,14.772,48.847,1,31.813,1L31.813,1z"/>
</svg>
