<?xml version="1.0" encoding="utf-8"?>
<!-- Generator: Adobe Illustrator 16.0.0, SVG Export Plug-In . SVG Version: 6.00 Build 0)  -->
<!DOCTYPE svg PUBLIC "-//W3C//DTD SVG 1.1//EN" "http://www.w3.org/Graphics/SVG/1.1/DTD/svg11.dtd">
<svg version="1.1" id="Layer_1" xmlns="http://www.w3.org/2000/svg" xmlns:xlink="http://www.w3.org/1999/xlink" x="0px" y="0px"
	 width="64px" height="64px" viewBox="0 0 64 64" enable-background="new 0 0 64 64" xml:space="preserve">
<g>
	<linearGradient id="SVGID_1_" gradientUnits="userSpaceOnUse" x1="19.1436" y1="-10.1201" x2="70.8488" y2="41.5851">
		<stop  offset="0" style="stop-color:#2198D4"/>
		<stop  offset="1" style="stop-color:#263981"/>
	</linearGradient>
	<path fill="url(#SVGID_1_)" d="M25.756,10.244h25.088c0.667,0,1.208-0.541,1.208-1.208s-0.541-1.208-1.208-1.208H25.756
		c-0.668,0-1.209,0.541-1.209,1.208S25.088,10.244,25.756,10.244z"/>
	<linearGradient id="SVGID_2_" gradientUnits="userSpaceOnUse" x1="6.2891" y1="2.6777" x2="58.2899" y2="54.6786">
		<stop  offset="0" style="stop-color:#2198D4"/>
		<stop  offset="1" style="stop-color:#263981"/>
	</linearGradient>
	<path fill="url(#SVGID_2_)" d="M12.646,10.244c0.317,0,0.629-0.129,0.854-0.354c0.225-0.225,0.354-0.537,0.354-0.854
		s-0.129-0.63-0.354-0.854c-0.226-0.225-0.537-0.354-0.854-0.354c-0.318,0-0.63,0.129-0.854,0.354
		c-0.225,0.225-0.354,0.535-0.354,0.854c0,0.318,0.129,0.63,0.354,0.854C12.017,10.115,12.328,10.244,12.646,10.244z"/>
	<linearGradient id="SVGID_3_" gradientUnits="userSpaceOnUse" x1="4.084" y1="4.915" x2="56.0638" y2="56.8949">
		<stop  offset="0" style="stop-color:#2198D4"/>
		<stop  offset="1" style="stop-color:#263981"/>
	</linearGradient>
	<path fill="url(#SVGID_3_)" d="M8.204,10.244c0.318,0,0.63-0.129,0.854-0.354s0.354-0.537,0.354-0.854s-0.129-0.63-0.354-0.854
		C8.834,7.956,8.522,7.827,8.204,7.827c-0.317,0-0.63,0.129-0.854,0.354C7.125,8.406,6.996,8.718,6.996,9.036S7.125,9.666,7.35,9.89
		S7.887,10.244,8.204,10.244z"/>
	<linearGradient id="SVGID_4_" gradientUnits="userSpaceOnUse" x1="8.4912" y1="0.439" x2="60.513" y2="52.4608">
		<stop  offset="0" style="stop-color:#2198D4"/>
		<stop  offset="1" style="stop-color:#263981"/>
	</linearGradient>
	<path fill="url(#SVGID_4_)" d="M17.087,10.244c0.319,0,0.63-0.129,0.855-0.354s0.354-0.537,0.354-0.854s-0.128-0.63-0.354-0.854
		c-0.226-0.225-0.536-0.354-0.855-0.354c-0.318,0-0.629,0.129-0.854,0.354c-0.225,0.225-0.354,0.537-0.354,0.854
		s0.13,0.63,0.354,0.854C16.458,10.115,16.769,10.244,17.087,10.244z"/>
	<linearGradient id="SVGID_5_" gradientUnits="userSpaceOnUse" x1="3.2646" y1="5.7407" x2="55.2369" y2="57.713">
		<stop  offset="0" style="stop-color:#2198D4"/>
		<stop  offset="1" style="stop-color:#263981"/>
	</linearGradient>
	<path fill="url(#SVGID_5_)" d="M62.646,53.816l-9.515-9.515l1.492-1.493c0.001,0,0.001-0.001,0.002-0.001c0,0,0,0,0.001-0.001
		l1.492-1.492l4.7,4.7c0.473,0.472,1.237,0.472,1.709,0c0.473-0.472,0.473-1.237,0-1.709l-5.555-5.555
		c-0.472-0.472-1.236-0.472-1.709,0l-1.494,1.493l-0.724-0.724c2.079-2.464,3.333-5.644,3.333-9.112
		c0-7.804-6.35-14.154-14.154-14.154c-4.021,0-7.655,1.685-10.234,4.386c-0.012,0-0.022-0.001-0.033-0.001H8.735
		c-0.668,0-1.209,0.542-1.209,1.208v16.921c0,0.667,0.541,1.208,1.209,1.208h23.07c2.589,2.817,6.301,4.585,10.419,4.585
		c3.469,0,6.648-1.254,9.112-3.333l0.724,0.724l-1.494,1.494c-0.227,0.227-0.354,0.534-0.354,0.854c0,0.32,0.127,0.628,0.354,0.854
		l5.064,5.064v5.228c0,1.466-1.192,2.659-2.659,2.659H6.076c-1.467,0-2.659-1.193-2.659-2.659V14.595c0.005,0,0.009,0,0.014,0h52.2
		v5.448c0,0.667,0.541,1.209,1.208,1.209c0.668,0,1.209-0.542,1.209-1.209V8.552c0-2.799-2.277-5.077-5.076-5.077H6.076
		C3.277,3.476,1,5.753,1,8.552v46.896c0,2.799,2.277,5.077,5.076,5.077h46.896c2.799,0,5.076-2.277,5.076-5.077v-2.81l2.889,2.888
		c0.236,0.236,0.545,0.354,0.854,0.354s0.618-0.118,0.854-0.354C63.118,55.054,63.118,54.289,62.646,53.816z M28.075,30.776
		l-1.523-2.942c-0.307-0.593-1.036-0.824-1.629-0.518c-0.593,0.307-0.824,1.036-0.518,1.629l2.838,5.482
		c0.215,0.415,0.638,0.653,1.074,0.653c0.171,0,0.343-0.038,0.507-0.114c0.31,0.91,0.711,1.777,1.19,2.593H9.943V23.056h20.19
		c-1.309,2.144-2.063,4.662-2.063,7.352C28.07,30.531,28.072,30.654,28.075,30.776z M42.225,42.145
		c-6.472,0-11.736-5.265-11.736-11.736c0-0.092,0.001-0.184,0.003-0.276l2.224,4.295c0.208,0.401,0.622,0.653,1.073,0.653
		c0.006,0,0.013,0,0.019,0c0.458-0.007,0.873-0.272,1.071-0.686l2.633-5.482c0.289-0.602,0.036-1.324-0.566-1.613
		c-0.601-0.289-1.323-0.035-1.612,0.566l-1.584,3.298l-1.725-3.331c-0.217-0.418-0.644-0.656-1.084-0.652
		c1.405-4.908,5.933-8.511,11.285-8.511c6.472,0,11.737,5.266,11.737,11.737C53.962,36.879,48.696,42.145,42.225,42.145z
		 M3.417,8.552c0-1.466,1.192-2.659,2.659-2.659h46.896c1.467,0,2.659,1.193,2.659,2.659v3.626h-52.2c-0.005,0-0.01,0-0.014,0V8.552
		z"/>
	<linearGradient id="SVGID_6_" gradientUnits="userSpaceOnUse" x1="-1.7422" y1="10.8672" x2="50.2086" y2="62.818">
		<stop  offset="0" style="stop-color:#2198D4"/>
		<stop  offset="1" style="stop-color:#263981"/>
	</linearGradient>
	<path fill="url(#SVGID_6_)" d="M23.097,27.3c-0.602-0.289-1.324-0.035-1.613,0.566l-1.584,3.298l-1.724-3.331
		c-0.211-0.407-0.632-0.661-1.092-0.653c-0.458,0.007-0.873,0.272-1.071,0.686l-1.584,3.298l-1.725-3.331
		c-0.307-0.593-1.037-0.825-1.629-0.518c-0.593,0.307-0.825,1.036-0.518,1.629l2.838,5.483c0.21,0.407,0.635,0.66,1.091,0.653
		c0.458-0.007,0.874-0.272,1.072-0.686l1.584-3.298l1.724,3.331c0.208,0.401,0.622,0.653,1.073,0.653c0.007,0,0.013,0,0.019,0
		c0.458-0.007,0.873-0.272,1.071-0.686l2.634-5.482C23.952,28.311,23.698,27.589,23.097,27.3z"/>
	<linearGradient id="SVGID_7_" gradientUnits="userSpaceOnUse" x1="12.0342" y1="-3.0527" x2="63.9808" y2="48.8939">
		<stop  offset="0" style="stop-color:#2198D4"/>
		<stop  offset="1" style="stop-color:#263981"/>
	</linearGradient>
	<path fill="url(#SVGID_7_)" d="M50.793,27.3c-0.602-0.289-1.323-0.035-1.613,0.566l-1.583,3.298l-1.725-3.331
		c-0.211-0.407-0.637-0.658-1.092-0.653c-0.458,0.007-0.873,0.272-1.071,0.686l-1.584,3.298L40.4,27.833
		c-0.307-0.592-1.035-0.824-1.629-0.518c-0.593,0.307-0.824,1.036-0.518,1.629l2.838,5.482c0.208,0.401,0.622,0.653,1.073,0.653
		c0.006,0,0.013,0,0.019,0c0.458-0.007,0.873-0.272,1.071-0.686l1.584-3.298l1.725,3.331c0.208,0.401,0.622,0.653,1.073,0.653
		c0.006,0,0.012,0,0.019,0c0.458-0.007,0.872-0.272,1.07-0.686l2.634-5.482C51.648,28.311,51.395,27.589,50.793,27.3z"/>
	<linearGradient id="SVGID_8_" gradientUnits="userSpaceOnUse" x1="-16.1992" y1="25.437" x2="35.8226" y2="77.4588">
		<stop  offset="0" style="stop-color:#2198D4"/>
		<stop  offset="1" style="stop-color:#263981"/>
	</linearGradient>
	<path fill="url(#SVGID_8_)" d="M7.881,49.517c-0.226,0.225-0.354,0.537-0.354,0.854s0.129,0.63,0.354,0.854
		c0.225,0.225,0.536,0.354,0.854,0.354c0.317,0,0.63-0.129,0.854-0.354s0.354-0.537,0.354-0.854s-0.129-0.63-0.354-0.854
		c-0.225-0.226-0.537-0.354-0.854-0.354C8.417,49.163,8.105,49.291,7.881,49.517z"/>
	<linearGradient id="SVGID_9_" gradientUnits="userSpaceOnUse" x1="-8.0947" y1="17.6245" x2="43.612" y2="69.3313">
		<stop  offset="0" style="stop-color:#2198D4"/>
		<stop  offset="1" style="stop-color:#263981"/>
	</linearGradient>
	<path fill="url(#SVGID_9_)" d="M11.676,50.373c0,0.667,0.542,1.209,1.209,1.209h23.537c0.667,0,1.208-0.542,1.208-1.209
		c0-0.667-0.541-1.208-1.208-1.208H12.885C12.218,49.164,11.676,49.705,11.676,50.373z"/>
	<linearGradient id="SVGID_10_" gradientUnits="userSpaceOnUse" x1="-3.4121" y1="12.7827" x2="48.365" y2="64.5599">
		<stop  offset="0" style="stop-color:#2198D4"/>
		<stop  offset="1" style="stop-color:#263981"/>
	</linearGradient>
	<path fill="url(#SVGID_10_)" d="M31.941,45.779c0.667,0,1.208-0.542,1.208-1.208c0-0.667-0.541-1.209-1.208-1.209H24.81
		c-0.667,0-1.208,0.542-1.208,1.209c0,0.667,0.541,1.208,1.208,1.208H31.941z"/>
	<linearGradient id="SVGID_11_" gradientUnits="userSpaceOnUse" x1="-10.5439" y1="19.9683" x2="41.2079" y2="71.7201">
		<stop  offset="0" style="stop-color:#2198D4"/>
		<stop  offset="1" style="stop-color:#263981"/>
	</linearGradient>
	<path fill="url(#SVGID_11_)" d="M19.382,43.362H8.735c-0.668,0-1.209,0.542-1.209,1.209c0,0.667,0.541,1.208,1.209,1.208h10.646
		c0.668,0,1.209-0.542,1.209-1.208C20.591,43.903,20.05,43.362,19.382,43.362z"/>
</g>
</svg>
