<?xml version="1.0" encoding="utf-8"?>
<!-- Generator: Adobe Illustrator 16.0.0, SVG Export Plug-In . SVG Version: 6.00 Build 0)  -->
<!DOCTYPE svg PUBLIC "-//W3C//DTD SVG 1.1//EN" "http://www.w3.org/Graphics/SVG/1.1/DTD/svg11.dtd">
<svg version="1.1" id="Layer_1" xmlns="http://www.w3.org/2000/svg" xmlns:xlink="http://www.w3.org/1999/xlink" x="0px" y="0px"
	 width="64px" height="64px" viewBox="0 0 64 64" enable-background="new 0 0 64 64" xml:space="preserve">
<g>
	<linearGradient id="SVGID_1_" gradientUnits="userSpaceOnUse" x1="13.6777" y1="8.9277" x2="50.3244" y2="45.5744">
		<stop  offset="0" style="stop-color:#2198D4"/>
		<stop  offset="1" style="stop-color:#263981"/>
	</linearGradient>
	<path fill="url(#SVGID_1_)" d="M52.58,11.78C47.847,4.93,40.345,1,32,1S16.155,4.93,11.421,11.78
		c-4.71,6.816-5.798,15.445-2.915,23.068c0.771,2.082,1.997,4.104,3.634,6l18.21,21.389C30.762,62.721,31.366,63,32,63
		c0.636,0,1.239-0.279,1.65-0.763l18.205-21.383c1.645-1.906,2.869-3.927,3.634-5.992C58.377,27.225,57.29,18.596,52.58,11.78z
		 M51.429,33.343c-0.589,1.593-1.552,3.168-2.859,4.684c-0.003,0.003-0.007,0.007-0.01,0.012L32,57.489L15.431,38.026
		c-1.307-1.514-2.269-3.089-2.864-4.698c-2.384-6.305-1.479-13.439,2.421-19.083C18.9,8.583,25.101,5.336,32,5.336
		s13.101,3.247,17.013,8.91C52.914,19.89,53.819,27.024,51.429,33.343z"/>
	<linearGradient id="SVGID_2_" gradientUnits="userSpaceOnUse" x1="23.4214" y1="17.4233" x2="40.5812" y2="34.5831">
		<stop  offset="0" style="stop-color:#2198D4"/>
		<stop  offset="1" style="stop-color:#263981"/>
	</linearGradient>
	<path fill="url(#SVGID_2_)" d="M32,13.862c-6.693,0-12.14,5.446-12.14,12.14s5.445,12.14,12.14,12.14s12.14-5.445,12.14-12.14
		C44.14,19.309,38.695,13.862,32,13.862z M32,33.807c-4.303,0-7.804-3.501-7.804-7.804s3.501-7.804,7.804-7.804
		c4.304,0,7.805,3.501,7.805,7.804S36.304,33.807,32,33.807z"/>
</g>
</svg>
