<?xml version="1.0" encoding="utf-8"?>
<!-- Generator: Adobe Illustrator 16.0.0, SVG Export Plug-In . SVG Version: 6.00 Build 0)  -->
<!DOCTYPE svg PUBLIC "-//W3C//DTD SVG 1.1//EN" "http://www.w3.org/Graphics/SVG/1.1/DTD/svg11.dtd">
<svg version="1.1" id="Layer_1" xmlns="http://www.w3.org/2000/svg" xmlns:xlink="http://www.w3.org/1999/xlink" x="0px" y="0px"
	 width="64px" height="64px" viewBox="0 0 64 64" enable-background="new 0 0 64 64" xml:space="preserve">
<g>
	<linearGradient id="SVGID_1_" gradientUnits="userSpaceOnUse" x1="-4.1377" y1="17.5625" x2="49.0118" y2="70.712">
		<stop  offset="0" style="stop-color:#2198D4"/>
		<stop  offset="1" style="stop-color:#263981"/>
	</linearGradient>
	<rect x="30.966" y="52.667" fill="url(#SVGID_1_)" width="2.067" height="2.067"/>
	<linearGradient id="SVGID_2_" gradientUnits="userSpaceOnUse" x1="3.5459" y1="9.7461" x2="56.7317" y2="62.9319">
		<stop  offset="0" style="stop-color:#2198D4"/>
		<stop  offset="1" style="stop-color:#263981"/>
	</linearGradient>
	<path fill="url(#SVGID_2_)" d="M61.966,54.733h-1.033v-37.2c0-2.283-1.851-4.133-4.133-4.133h-6.2V5.133
		C50.6,2.851,48.749,1,46.466,1H17.533c-2.283,0-4.134,1.851-4.134,4.133V13.4h-6.2c-2.282,0-4.133,1.851-4.133,4.133v37.2H2.033
		C1.462,54.733,1,55.196,1,55.767v3.1C1,61.149,2.851,63,5.133,63h53.733C61.149,63,63,61.149,63,58.867v-3.1
		C63,55.196,62.537,54.733,61.966,54.733z M15.466,5.133c0-1.141,0.926-2.066,2.067-2.066h28.933c1.142,0,2.067,0.925,2.067,2.066
		v4.133H15.466V5.133z M15.466,11.333h33.067V41.3c0,1.142-0.926,2.067-2.067,2.067H17.533c-1.142,0-2.067-0.925-2.067-2.067V11.333
		z M17.533,45.433h28.933c2.283,0,4.134-1.851,4.134-4.133V19.6h4.133v28.933H9.267V19.6h4.133v21.7
		C13.399,43.583,15.25,45.433,17.533,45.433z M5.133,17.533c0-1.141,0.926-2.066,2.066-2.066h6.2v2.066H8.232
		c-0.57,0-1.033,0.463-1.033,1.034v31c0,0.57,0.463,1.033,1.033,1.033h47.534c0.57,0,1.033-0.463,1.033-1.033v-31
		c0-0.571-0.463-1.034-1.033-1.034H50.6v-2.066h6.2c1.142,0,2.066,0.925,2.066,2.066v37.2H41.3c-0.274,0-0.537,0.108-0.73,0.302
		L38.806,56.8H25.194l-1.765-1.765c-0.193-0.193-0.456-0.302-0.73-0.302H5.133V17.533z M60.933,58.867
		c0,1.142-0.925,2.066-2.066,2.066H5.133c-1.142,0-2.066-0.925-2.066-2.066V56.8h19.205l1.764,1.764
		c0.194,0.194,0.457,0.303,0.731,0.303h14.466c0.274,0,0.537-0.109,0.731-0.303l1.764-1.764h19.205V58.867z"/>
	<linearGradient id="SVGID_3_" gradientUnits="userSpaceOnUse" x1="5.1904" y1="8.291" x2="58.2185" y2="61.3191">
		<stop  offset="0" style="stop-color:#2198D4"/>
		<stop  offset="1" style="stop-color:#263981"/>
	</linearGradient>
	<rect x="18.566" y="34.067" fill="url(#SVGID_3_)" width="26.866" height="2.066"/>
	<linearGradient id="SVGID_4_" gradientUnits="userSpaceOnUse" x1="2.6191" y1="10.8867" x2="55.6474" y2="63.915">
		<stop  offset="0" style="stop-color:#2198D4"/>
		<stop  offset="1" style="stop-color:#263981"/>
	</linearGradient>
	<rect x="18.566" y="38.2" fill="url(#SVGID_4_)" width="24.8" height="2.066"/>
	<linearGradient id="SVGID_5_" gradientUnits="userSpaceOnUse" x1="8.7939" y1="4.6611" x2="61.8227" y2="57.6898">
		<stop  offset="0" style="stop-color:#2198D4"/>
		<stop  offset="1" style="stop-color:#263981"/>
	</linearGradient>
	<rect x="24.767" y="29.933" fill="url(#SVGID_5_)" width="20.666" height="2.067"/>
	<linearGradient id="SVGID_6_" gradientUnits="userSpaceOnUse" x1="12.8506" y1="0.4507" x2="65.9823" y2="53.5824">
		<stop  offset="0" style="stop-color:#2198D4"/>
		<stop  offset="1" style="stop-color:#263981"/>
	</linearGradient>
	<rect x="17.533" y="5.133" fill="url(#SVGID_6_)" width="2.066" height="2.067"/>
	<linearGradient id="SVGID_7_" gradientUnits="userSpaceOnUse" x1="14.9063" y1="-1.6265" x2="68.0735" y2="51.5408">
		<stop  offset="0" style="stop-color:#2198D4"/>
		<stop  offset="1" style="stop-color:#263981"/>
	</linearGradient>
	<rect x="21.666" y="5.133" fill="url(#SVGID_7_)" width="2.066" height="2.067"/>
	<linearGradient id="SVGID_8_" gradientUnits="userSpaceOnUse" x1="16.9697" y1="-3.6968" x2="70.1192" y2="49.4527">
		<stop  offset="0" style="stop-color:#2198D4"/>
		<stop  offset="1" style="stop-color:#263981"/>
	</linearGradient>
	<rect x="25.8" y="5.133" fill="url(#SVGID_8_)" width="2.066" height="2.067"/>
	<linearGradient id="SVGID_9_" gradientUnits="userSpaceOnUse" x1="2.0303" y1="11.3311" x2="55.1975" y2="64.4983">
		<stop  offset="0" style="stop-color:#2198D4"/>
		<stop  offset="1" style="stop-color:#263981"/>
	</linearGradient>
	<rect x="20.633" y="29.933" fill="url(#SVGID_9_)" width="2.066" height="2.067"/>
	<linearGradient id="SVGID_10_" gradientUnits="userSpaceOnUse" x1="9.7021" y1="3.6138" x2="62.8776" y2="56.7893">
		<stop  offset="0" style="stop-color:#2198D4"/>
		<stop  offset="1" style="stop-color:#263981"/>
	</linearGradient>
	<path fill="url(#SVGID_10_)" d="M23.113,21.46l4.133,3.1l1.24-1.653l-3.031-2.273l3.031-2.273l-1.24-1.653l-4.133,3.1
		c-0.457,0.342-0.55,0.99-0.207,1.447C22.965,21.332,23.034,21.401,23.113,21.46z"/>
	<linearGradient id="SVGID_11_" gradientUnits="userSpaceOnUse" x1="14.9521" y1="-1.6909" x2="68.1276" y2="51.4846">
		<stop  offset="0" style="stop-color:#2198D4"/>
		<stop  offset="1" style="stop-color:#263981"/>
	</linearGradient>
	<path fill="url(#SVGID_11_)" d="M36.753,24.56l4.134-3.1c0.456-0.342,0.549-0.99,0.206-1.447c-0.059-0.078-0.128-0.148-0.206-0.207
		l-4.134-3.1l-1.24,1.653l3.031,2.273l-3.031,2.273L36.753,24.56z"/>
	<linearGradient id="SVGID_12_" gradientUnits="userSpaceOnUse" x1="12.2363" y1="0.8691" x2="65.661" y2="54.2938">
		<stop  offset="0" style="stop-color:#2198D4"/>
		<stop  offset="1" style="stop-color:#263981"/>
	</linearGradient>
	<polygon fill="url(#SVGID_12_)" points="35.027,15.851 33.108,15.083 28.974,25.416 30.893,26.184 	"/>
</g>
</svg>
