<?xml version="1.0" encoding="utf-8"?>
<!-- Generator: Adobe Illustrator 16.0.0, SVG Export Plug-In . SVG Version: 6.00 Build 0)  -->
<!DOCTYPE svg PUBLIC "-//W3C//DTD SVG 1.1//EN" "http://www.w3.org/Graphics/SVG/1.1/DTD/svg11.dtd">
<svg version="1.1" id="Layer_1" xmlns="http://www.w3.org/2000/svg" xmlns:xlink="http://www.w3.org/1999/xlink" x="0px" y="0px"
	 width="64px" height="64px" viewBox="0 0 64 64" enable-background="new 0 0 64 64" xml:space="preserve">
<g>
	<linearGradient id="SVGID_1_" gradientUnits="userSpaceOnUse" x1="13.625" y1="8.2334" x2="48.4423" y2="43.0507">
		<stop  offset="0" style="stop-color:#2198D4"/>
		<stop  offset="1" style="stop-color:#263981"/>
	</linearGradient>
	<path fill="url(#SVGID_1_)" d="M62.709,21.716L50.685,9.691c-0.387-0.387-1.014-0.387-1.4,0l-6.012,6.012
		c-0.186,0.186-0.29,0.438-0.29,0.7s0.104,0.515,0.29,0.7l0.6,0.6l-1.378,1.378c-0.895,0.895-2.283,1.139-3.455,0.607
		c-1.099-0.499-2.32-0.762-3.531-0.762c-1.439,0-2.845,0.361-4.095,1.045c-0.521-0.128-1.056-0.194-1.596-0.194
		c-0.781,0-1.548,0.135-2.28,0.401c-1.169,0.425-2.421,0.162-3.27-0.687l-2.475-2.475l0.294-0.295c0.186-0.186,0.29-0.438,0.29-0.7
		s-0.104-0.514-0.29-0.7L16.075,9.31c-0.387-0.387-1.014-0.387-1.4,0L1.29,22.694c-0.387,0.387-0.387,1.014,0,1.4l6.012,6.013
		c0.186,0.186,0.438,0.29,0.7,0.29s0.515-0.104,0.7-0.29l0.359-0.359l1.745,1.746c0.44,0.44,0.732,0.99,0.844,1.59
		c0.58,3.11,2.069,5.938,4.307,8.177l0.329,0.329c-0.631,0.665-0.979,1.531-0.979,2.452c0,0.952,0.371,1.847,1.044,2.52
		c0.695,0.695,1.607,1.042,2.52,1.042c0.06,0,0.119-0.001,0.178-0.005c-0.048,0.971,0.297,1.958,1.038,2.698
		c0.673,0.673,1.568,1.044,2.52,1.044c0.026,0,0.053-0.001,0.079-0.002c-0.02,0.938,0.326,1.883,1.041,2.598
		c0.673,0.673,1.568,1.044,2.52,1.044s1.847-0.371,2.52-1.044c0.057-0.057,0.11-0.115,0.163-0.175
		c0.351,0.122,0.721,0.188,1.096,0.188c0.891,0,1.727-0.347,2.354-0.977c0.333-0.333,0.587-0.726,0.752-1.154l0.102,0.102
		c0.649,0.649,1.501,0.974,2.354,0.974c0.853,0,1.705-0.325,2.354-0.974c0.345-0.345,0.604-0.752,0.769-1.196
		c0.581,0.422,1.269,0.634,1.957,0.634c0.853,0,1.705-0.324,2.355-0.973c0.628-0.629,0.975-1.465,0.975-2.354
		c0-0.269-0.032-0.533-0.094-0.788c0.634-0.129,1.217-0.44,1.685-0.908c0.628-0.628,0.975-1.464,0.975-2.354
		c0-0.701-0.216-1.368-0.615-1.927l0.794-0.794c2.265-2.265,3.76-5.128,4.326-8.279c0.095-0.527,0.356-1.018,0.756-1.417
		l2.954-2.955l0.519,0.52c0.194,0.193,0.447,0.29,0.701,0.29c0.253,0,0.507-0.097,0.7-0.29l6.012-6.012
		c0.186-0.186,0.29-0.438,0.29-0.7C63,22.153,62.895,21.902,62.709,21.716z M8.002,28.007l-4.612-4.612l11.984-11.984l4.612,4.612
		L8.002,28.007z M19.992,45.161c-0.617,0.617-1.622,0.618-2.239,0c-0.299-0.299-0.464-0.697-0.464-1.12s0.165-0.82,0.464-1.12
		c0.309-0.309,0.714-0.463,1.12-0.463s0.811,0.154,1.12,0.463C20.609,43.54,20.609,44.544,19.992,45.161z M23.727,48.897
		c-0.299,0.299-0.696,0.463-1.12,0.463c-0.423,0-0.82-0.165-1.119-0.463c-0.618-0.618-0.618-1.622,0-2.24
		c0.309-0.309,0.714-0.463,1.12-0.463c0.405,0,0.811,0.154,1.119,0.463C24.345,47.275,24.345,48.279,23.727,48.897z M27.367,52.537
		C27.068,52.835,26.67,53,26.248,53s-0.821-0.165-1.12-0.464c-0.618-0.618-0.618-1.622,0-2.239c0.309-0.309,0.714-0.463,1.12-0.463
		c0.405,0,0.811,0.155,1.12,0.463C27.984,50.915,27.984,51.919,27.367,52.537z M44.186,44.935c-0.255,0.255-0.593,0.396-0.953,0.396
		s-0.698-0.141-0.953-0.396l-9.606-9.604c-0.387-0.387-1.014-0.387-1.4,0c-0.387,0.386-0.387,1.014,0,1.4L41.62,47.078
		c0.255,0.254,0.395,0.593,0.395,0.953c0,0.361-0.141,0.7-0.395,0.954c-0.526,0.526-1.382,0.526-1.908,0l-1.746-1.746
		c-0.009-0.01-0.019-0.02-0.029-0.03c-0.003-0.003-0.006-0.005-0.009-0.008l-8.025-8.024c-0.387-0.387-1.014-0.387-1.4,0
		s-0.387,1.014,0,1.4l8.05,8.05c0.246,0.252,0.382,0.586,0.382,0.94c0,0.36-0.14,0.699-0.395,0.954c-0.525,0.525-1.38,0.525-1.906,0
		l-8.729-8.729c-0.387-0.387-1.014-0.387-1.4,0c-0.387,0.386-0.387,1.014,0,1.4l6.47,6.471c0.002,0.002,0.003,0.004,0.005,0.005
		c0.254,0.254,0.395,0.592,0.395,0.952c0,0.36-0.14,0.699-0.396,0.955c-0.254,0.254-0.593,0.395-0.953,0.395
		c-0.087,0-0.172-0.009-0.255-0.025c0.16-1.079-0.174-2.218-1.003-3.047c-0.673-0.673-1.568-1.044-2.52-1.044
		c-0.026,0-0.053,0.001-0.08,0.002c0.021-0.938-0.326-1.883-1.04-2.598c-0.673-0.673-1.568-1.044-2.52-1.044
		c-0.06,0-0.119,0.001-0.178,0.004c0.048-0.97-0.298-1.957-1.038-2.696c-0.9-0.9-2.166-1.216-3.323-0.95l-0.71-0.71
		c-1.955-1.955-3.255-4.424-3.761-7.14c-0.186-0.995-0.667-1.903-1.391-2.628l-1.746-1.745l9.931-9.931l2.475,2.475
		c0.951,0.951,2.247,1.46,3.573,1.46c0.594,0,1.195-0.102,1.774-0.313c0.28-0.102,0.571-0.175,0.865-0.222l-6.131,6.131
		c-0.75,0.75-1.163,1.747-1.163,2.808c0,1.061,0.413,2.058,1.163,2.808c0.774,0.774,1.791,1.161,2.808,1.161
		s2.034-0.387,2.809-1.161l3.08-3.08l0.833,0.834c0,0,0.001,0,0.001,0.001l0.035,0.035l0.033,0.033c0,0,0,0,0,0l0.001,0
		c0.009,0.009,0.019,0.019,0.028,0.027l11.61,11.61c0.254,0.255,0.395,0.593,0.395,0.954C44.581,44.342,44.44,44.68,44.186,44.935z
		 M50.422,30.163c-0.687,0.688-1.138,1.541-1.305,2.468c-0.494,2.751-1.8,5.251-3.777,7.229l-0.761,0.761l-6.264-6.264
		c0.136,0.01,0.272,0.017,0.41,0.017c0.634,0,1.284-0.111,1.93-0.375c0.506-0.207,0.749-0.786,0.542-1.292
		c-0.207-0.506-0.785-0.749-1.292-0.542c-2.548,1.042-5.604-1.831-5.944-2.162c-0.006-0.006-0.011-0.011-0.017-0.017l-0.035-0.035h0
		l-0.031-0.031c0,0,0,0,0,0l-0.833-0.834l0.945-0.945c0.387-0.387,0.387-1.014,0-1.4s-1.014-0.387-1.4,0l-1.643,1.643
		c-0.001,0-0.001,0.001-0.002,0.002c-0.001,0-0.001,0.001-0.002,0.002l-3.778,3.778c-0.776,0.776-2.04,0.776-2.815,0
		c-0.376-0.376-0.583-0.876-0.583-1.408c0-0.532,0.207-1.032,0.583-1.408l6.521-6.521c0.363-0.363,0.766-0.682,1.2-0.949
		c1.03-0.637,2.219-0.973,3.439-0.973c0.932,0,1.87,0.203,2.713,0.585c1.918,0.87,4.199,0.465,5.673-1.01l1.378-1.378l8.104,8.105
		L50.422,30.163z M55.997,27.028L45.373,16.404l4.612-4.612l10.624,10.625L55.997,27.028z"/>
	<linearGradient id="SVGID_2_" gradientUnits="userSpaceOnUse" x1="25.7109" y1="-8.1104" x2="60.9742" y2="27.153">
		<stop  offset="0" style="stop-color:#2198D4"/>
		<stop  offset="1" style="stop-color:#263981"/>
	</linearGradient>
	<circle fill="url(#SVGID_2_)" cx="56.995" cy="23.173" r="0.99"/>
	<linearGradient id="SVGID_3_" gradientUnits="userSpaceOnUse" x1="2.4043" y1="19.0693" x2="37.6676" y2="54.3326">
		<stop  offset="0" style="stop-color:#2198D4"/>
		<stop  offset="1" style="stop-color:#263981"/>
	</linearGradient>
	<circle fill="url(#SVGID_3_)" cx="7.486" cy="24.152" r="0.99"/>
</g>
</svg>
