<?xml version="1.0" encoding="utf-8"?>
<!-- Generator: Adobe Illustrator 16.0.0, SVG Export Plug-In . SVG Version: 6.00 Build 0)  -->
<!DOCTYPE svg PUBLIC "-//W3C//DTD SVG 1.1//EN" "http://www.w3.org/Graphics/SVG/1.1/DTD/svg11.dtd">
<svg version="1.1" id="Layer_1" xmlns="http://www.w3.org/2000/svg" xmlns:xlink="http://www.w3.org/1999/xlink" x="0px" y="0px"
	 width="64px" height="64px" viewBox="0 0 64 64" enable-background="new 0 0 64 64" xml:space="preserve">
<g>
	<linearGradient id="SVGID_1_" gradientUnits="userSpaceOnUse" x1="21.0552" y1="-6.8452" x2="70.2497" y2="42.3493">
		<stop  offset="0" style="stop-color:#2198D4"/>
		<stop  offset="1" style="stop-color:#263981"/>
	</linearGradient>
	<rect x="30.967" y="1" fill="url(#SVGID_1_)" width="2.066" height="6.2"/>
	<linearGradient id="SVGID_2_" gradientUnits="userSpaceOnUse" x1="30.9609" y1="-13.4697" x2="76.3354" y2="31.9048">
		<stop  offset="0" style="stop-color:#2198D4"/>
		<stop  offset="1" style="stop-color:#263981"/>
	</linearGradient>
	<polygon fill="url(#SVGID_2_)" points="57.529,7.933 56.068,6.471 50.902,11.637 52.363,13.099 	"/>
	<linearGradient id="SVGID_3_" gradientUnits="userSpaceOnUse" x1="7.5171" y1="7.5171" x2="55.9221" y2="55.9221">
		<stop  offset="0" style="stop-color:#2198D4"/>
		<stop  offset="1" style="stop-color:#263981"/>
	</linearGradient>
	<polygon fill="url(#SVGID_3_)" points="13.096,11.635 7.931,6.469 6.469,7.93 11.635,13.096 	"/>
	<linearGradient id="SVGID_4_" gradientUnits="userSpaceOnUse" x1="-12.6191" y1="31.8115" x2="32.7553" y2="77.186">
		<stop  offset="0" style="stop-color:#2198D4"/>
		<stop  offset="1" style="stop-color:#263981"/>
	</linearGradient>
	<polygon fill="url(#SVGID_4_)" points="6.468,56.065 7.93,57.526 13.096,52.36 11.634,50.899 	"/>
	<linearGradient id="SVGID_5_" gradientUnits="userSpaceOnUse" x1="7.4067" y1="7.9233" x2="55.9046" y2="56.4212">
		<stop  offset="0" style="stop-color:#2198D4"/>
		<stop  offset="1" style="stop-color:#263981"/>
	</linearGradient>
	<path fill="url(#SVGID_5_)" d="M59.176,29.171c0.476-1.06,0.724-2.208,0.724-3.371c0-4.558-3.708-8.267-8.267-8.267
		c-0.53,0-1.058,0.052-1.58,0.154c-1.205-3.178-4.246-5.32-7.72-5.32c-1.164,0-2.311,0.248-3.371,0.724
		C37.458,10.738,34.828,9.267,32,9.267s-5.458,1.472-6.962,3.824c-1.061-0.476-2.208-0.724-3.371-0.724
		c-3.474,0-6.515,2.142-7.72,5.32c-0.522-0.102-1.05-0.154-1.58-0.154c-4.558,0-8.267,3.709-8.267,8.267
		c0,1.164,0.248,2.311,0.724,3.371C2.471,30.676,1,33.305,1,36.133C1,40.691,4.708,44.4,9.267,44.4h15.863
		c-0.225,0.471-0.363,0.993-0.363,1.55c0,1.013,0.42,1.926,1.093,2.583c-0.673,0.657-1.093,1.571-1.093,2.583
		s0.42,1.926,1.093,2.583c-0.673,0.657-1.093,1.57-1.093,2.583c0,1.863,1.422,3.384,3.234,3.579C28.449,61.659,30.066,63,32,63
		c1.935,0,3.551-1.341,3.999-3.138c1.813-0.194,3.234-1.715,3.234-3.579c0-1.013-0.42-1.926-1.093-2.583
		c0.673-0.657,1.093-1.571,1.093-2.583s-0.42-1.926-1.093-2.583c0.673-0.657,1.093-1.57,1.093-2.583c0-0.557-0.137-1.079-0.362-1.55
		h5.581c0.52,5.214,4.932,9.3,10.282,9.3c0.571,0,1.033-0.463,1.033-1.034v-8.331C59.838,43.825,63,40.341,63,36.133
		C63,33.305,61.529,30.676,59.176,29.171z M32,60.933c-0.761,0-1.421-0.418-1.779-1.033h3.559
		C33.421,60.515,32.762,60.933,32,60.933z M35.617,57.833h-7.233c-0.854,0-1.55-0.696-1.55-1.55s0.695-1.55,1.55-1.55h7.233
		c0.854,0,1.55,0.695,1.55,1.55S36.471,57.833,35.617,57.833z M35.617,52.667h-7.233c-0.854,0-1.55-0.695-1.55-1.55
		s0.695-1.55,1.55-1.55h7.233c0.854,0,1.55,0.695,1.55,1.55S36.471,52.667,35.617,52.667z M35.617,47.5h-7.233
		c-0.854,0-1.55-0.695-1.55-1.55c0-0.855,0.695-1.55,1.55-1.55h7.233c0.854,0,1.55,0.695,1.55,1.55
		C37.167,46.805,36.471,47.5,35.617,47.5z M27.66,31.254c0.201,0.197,0.462,0.296,0.723,0.296c0.262,0,0.523-0.099,0.723-0.296
		c1.2-1.177,1.86-2.747,1.86-4.42c0-0.285-0.026-0.566-0.064-0.844c-0.01-0.066-0.019-0.131-0.029-0.197
		c-0.047-0.273-0.105-0.543-0.188-0.807c-0.006-0.021-0.015-0.041-0.021-0.061c-0.08-0.246-0.178-0.484-0.287-0.718
		c-0.028-0.059-0.055-0.117-0.084-0.174c-0.124-0.242-0.26-0.479-0.416-0.704c-0.006-0.009-0.01-0.02-0.018-0.029
		c1.279-0.782,3.001-0.782,4.281,0c-0.006,0.009-0.01,0.02-0.018,0.029c-0.156,0.225-0.292,0.462-0.416,0.704
		c-0.03,0.058-0.057,0.115-0.083,0.174c-0.109,0.234-0.208,0.472-0.287,0.718c-0.006,0.021-0.016,0.04-0.022,0.061
		c-0.082,0.262-0.14,0.533-0.187,0.807c-0.011,0.065-0.021,0.13-0.029,0.197c-0.042,0.278-0.067,0.559-0.067,0.844
		c0,1.674,0.661,3.243,1.86,4.42c0.2,0.197,0.462,0.296,0.723,0.296c0.262,0,0.523-0.099,0.724-0.296
		c1.199-1.177,1.86-2.747,1.86-4.42c0-0.285-0.026-0.566-0.064-0.844c-0.009-0.066-0.018-0.131-0.029-0.197
		c-0.046-0.273-0.105-0.543-0.187-0.807c-0.006-0.021-0.015-0.041-0.021-0.061c-0.08-0.246-0.178-0.484-0.288-0.718
		c-0.028-0.059-0.054-0.117-0.083-0.174c-0.124-0.242-0.26-0.479-0.416-0.704c-0.006-0.009-0.01-0.02-0.018-0.029
		c1.549-0.945,3.705-0.717,5.034,0.587c0.797,0.786,1.239,1.833,1.239,2.947v2.547l-8.84,5.893c-0.287,0.192-0.459,0.515-0.459,0.86
		v6.2h-4.134v-6.2c0-0.345-0.172-0.667-0.459-0.86l-8.84-5.892v-2.548c0-2.28,1.854-4.133,4.133-4.133c0.765,0,1.5,0.208,2.14,0.6
		c-0.006,0.009-0.01,0.02-0.017,0.029c-0.156,0.226-0.292,0.462-0.416,0.704c-0.03,0.058-0.057,0.116-0.083,0.174
		c-0.109,0.234-0.208,0.472-0.288,0.718c-0.006,0.021-0.015,0.041-0.021,0.061C26,25.25,25.941,25.52,25.895,25.794
		c-0.011,0.065-0.021,0.13-0.029,0.196c-0.04,0.277-0.066,0.558-0.066,0.843C25.8,28.507,26.46,30.077,27.66,31.254z M27.867,26.833
		c0-0.248,0.03-0.492,0.072-0.731c0.009-0.054,0.02-0.108,0.031-0.161c0.052-0.232,0.119-0.459,0.208-0.678
		c0.012-0.031,0.03-0.06,0.043-0.09c0.045-0.103,0.107-0.197,0.161-0.297c0.054,0.1,0.116,0.194,0.161,0.297
		c0.014,0.029,0.03,0.058,0.043,0.089c0.09,0.219,0.157,0.446,0.209,0.678c0.011,0.054,0.021,0.107,0.031,0.162
		c0.042,0.24,0.072,0.483,0.072,0.731s-0.03,0.491-0.072,0.73c-0.009,0.055-0.02,0.108-0.031,0.162
		c-0.052,0.232-0.119,0.46-0.209,0.678c-0.012,0.03-0.029,0.059-0.042,0.089c-0.045,0.104-0.107,0.199-0.161,0.297
		c-0.054-0.099-0.115-0.194-0.161-0.297c-0.013-0.03-0.03-0.06-0.043-0.09c-0.09-0.219-0.157-0.446-0.208-0.678
		c-0.012-0.054-0.022-0.107-0.031-0.161C27.896,27.325,27.867,27.082,27.867,26.833z M35.1,26.833c0-0.248,0.03-0.492,0.072-0.731
		c0.009-0.054,0.02-0.108,0.031-0.161c0.052-0.232,0.119-0.459,0.208-0.678c0.012-0.031,0.03-0.06,0.043-0.09
		c0.045-0.103,0.107-0.197,0.161-0.297c0.054,0.1,0.116,0.194,0.161,0.297c0.014,0.029,0.03,0.058,0.043,0.089
		c0.09,0.219,0.157,0.446,0.209,0.678c0.011,0.054,0.021,0.107,0.031,0.162c0.042,0.24,0.072,0.483,0.072,0.731
		s-0.03,0.491-0.072,0.73c-0.009,0.055-0.02,0.108-0.031,0.162c-0.052,0.232-0.119,0.46-0.209,0.678
		c-0.012,0.03-0.029,0.059-0.042,0.089c-0.045,0.104-0.107,0.199-0.161,0.297c-0.054-0.099-0.116-0.194-0.161-0.297
		c-0.014-0.03-0.03-0.06-0.043-0.09c-0.09-0.219-0.157-0.446-0.208-0.678c-0.012-0.054-0.022-0.107-0.031-0.161
		C35.13,27.325,35.1,27.082,35.1,26.833z M54.733,42.333c-0.571,0-1.033,0.463-1.033,1.033v8.203
		c-4.071-0.511-7.233-3.995-7.233-8.203c0-0.57-0.462-1.033-1.033-1.033h-9.3v-5.647l8.84-5.893c0.287-0.192,0.46-0.515,0.46-0.86
		v-3.1c0-1.674-0.661-3.244-1.86-4.421l-0.724,0.737l0.724-0.738c-1.169-1.147-2.71-1.778-4.34-1.778
		c-1.314,0-2.567,0.417-3.617,1.177c-1.05-0.76-2.302-1.177-3.617-1.177s-2.567,0.417-3.617,1.177
		c-1.05-0.76-2.302-1.177-3.617-1.177c-3.419,0-6.2,2.781-6.2,6.2v3.101c0,0.345,0.172,0.667,0.459,0.859l8.84,5.892v5.647h-18.6
		c-3.419,0-6.2-2.781-6.2-6.2c0-2.392,1.405-4.595,3.583-5.613c0.267-0.125,0.467-0.357,0.552-0.64
		c0.084-0.282,0.044-0.587-0.11-0.839c-0.604-0.98-0.925-2.102-0.925-3.242c0-3.419,2.781-6.2,6.2-6.2
		c0.657,0,1.313,0.107,1.95,0.318c0.275,0.092,0.576,0.063,0.827-0.078c0.253-0.141,0.436-0.38,0.503-0.661
		c0.673-2.794,3.148-4.747,6.02-4.747c1.141,0,2.261,0.32,3.243,0.924c0.25,0.154,0.552,0.195,0.838,0.109
		c0.282-0.085,0.515-0.285,0.64-0.553c1.016-2.175,3.22-3.58,5.612-3.58c2.393,0,4.596,1.405,5.613,3.582
		c0.125,0.267,0.358,0.468,0.64,0.553c0.285,0.085,0.588,0.044,0.839-0.109c0.98-0.605,2.101-0.925,3.242-0.925
		c2.872,0,5.348,1.952,6.021,4.747c0.068,0.281,0.25,0.521,0.503,0.661c0.252,0.141,0.553,0.17,0.827,0.078
		c0.636-0.211,1.292-0.318,1.95-0.318c3.419,0,6.2,2.781,6.2,6.2c0,1.14-0.32,2.261-0.925,3.242
		c-0.154,0.251-0.194,0.556-0.11,0.839c0.085,0.282,0.286,0.516,0.552,0.64c2.177,1.018,3.583,3.221,3.583,5.613
		C60.934,39.553,58.153,42.333,54.733,42.333z"/>
	<linearGradient id="SVGID_6_" gradientUnits="userSpaceOnUse" x1="-5.6475" y1="21.2188" x2="43.0293" y2="69.8955">
		<stop  offset="0" style="stop-color:#2198D4"/>
		<stop  offset="1" style="stop-color:#263981"/>
	</linearGradient>
	<rect x="19.6" y="46.467" fill="url(#SVGID_6_)" width="2.066" height="2.066"/>
	<linearGradient id="SVGID_7_" gradientUnits="userSpaceOnUse" x1="-7.6797" y1="23.3203" x2="41.0134" y2="72.0134">
		<stop  offset="0" style="stop-color:#2198D4"/>
		<stop  offset="1" style="stop-color:#263981"/>
	</linearGradient>
	<rect x="15.467" y="46.467" fill="url(#SVGID_7_)" width="2.066" height="2.066"/>
	<linearGradient id="SVGID_8_" gradientUnits="userSpaceOnUse" x1="-9.7041" y1="25.4287" x2="38.9889" y2="74.1218">
		<stop  offset="0" style="stop-color:#2198D4"/>
		<stop  offset="1" style="stop-color:#263981"/>
	</linearGradient>
	<rect x="11.333" y="46.467" fill="url(#SVGID_8_)" width="2.066" height="2.066"/>
</g>
</svg>
