<?xml version="1.0" encoding="utf-8"?>
<!-- Generator: Adobe Illustrator 16.0.0, SVG Export Plug-In . SVG Version: 6.00 Build 0)  -->
<!DOCTYPE svg PUBLIC "-//W3C//DTD SVG 1.1//EN" "http://www.w3.org/Graphics/SVG/1.1/DTD/svg11.dtd">
<svg version="1.1" id="Layer_1" xmlns="http://www.w3.org/2000/svg" xmlns:xlink="http://www.w3.org/1999/xlink" x="0px" y="0px"
	 width="64px" height="64px" viewBox="0 0 64 64" enable-background="new 0 0 64 64" xml:space="preserve">
<linearGradient id="SVGID_1_" gradientUnits="userSpaceOnUse" x1="3.126" y1="8.9971" x2="54.9858" y2="60.8569">
	<stop  offset="0" style="stop-color:#2198D4"/>
	<stop  offset="1" style="stop-color:#263981"/>
</linearGradient>
<path fill="url(#SVGID_1_)" d="M61.404,46.729l-7.707-7.708c-2.125-2.125-5.583-2.125-7.708,0l-3.503,3.503
	c-1.609,1.61-4.229,1.609-5.838,0L21.463,27.328c-1.613-1.614-1.614-4.225,0-5.839c0.563-0.564,2.185-2.185,3.503-3.504
	c2.115-2.115,2.146-5.562-0.002-7.709l-7.705-7.682C15.134,0.47,11.676,0.47,9.557,2.589C7.971,4.161,7.459,4.668,6.748,5.373
	c-7.662,7.663-7.662,20.13,0,27.793l24.061,24.073c7.681,7.681,20.112,7.681,27.793,0l2.804-2.803
	C63.53,52.312,63.53,48.854,61.404,46.729z M12.12,5.164c0.708-0.708,1.86-0.708,2.571,0.002l7.706,7.681
	c0.709,0.71,0.709,1.859,0,2.569l-1.285,1.285l-10.27-10.27L12.12,5.164z M33.378,54.67L9.317,30.597
	C3.389,24.669,3.063,15.36,8.315,9.042l10.24,10.24c-2.691,3.05-2.579,7.698,0.337,10.614l15.186,15.198
	c2.913,2.914,7.561,3.033,10.615,0.338l10.24,10.24C48.636,60.916,39.348,60.64,33.378,54.67z M58.836,51.867l-1.285,1.285
	L47.274,42.875l1.284-1.285c0.709-0.708,1.861-0.708,2.57,0l7.707,7.708C59.544,50.006,59.544,51.159,58.836,51.867z"/>
</svg>
