<?xml version="1.0" encoding="utf-8"?>
<!-- Generator: Adobe Illustrator 16.0.0, SVG Export Plug-In . SVG Version: 6.00 Build 0)  -->
<!DOCTYPE svg PUBLIC "-//W3C//DTD SVG 1.1//EN" "http://www.w3.org/Graphics/SVG/1.1/DTD/svg11.dtd">
<svg version="1.1" id="Layer_1" xmlns="http://www.w3.org/2000/svg" xmlns:xlink="http://www.w3.org/1999/xlink" x="0px" y="0px"
	 width="64px" height="64px" viewBox="0 0 64 64" enable-background="new 0 0 64 64" xml:space="preserve">
<linearGradient id="SVGID_1_" gradientUnits="userSpaceOnUse" x1="7.5542" y1="12.6885" x2="56.4461" y2="61.5804">
	<stop  offset="0" style="stop-color:#2198D4"/>
	<stop  offset="1" style="stop-color:#263981"/>
</linearGradient>
<path fill="url(#SVGID_1_)" d="M63,22.131c0-1.916-1.559-3.475-3.475-3.475h-13.92l1.221-0.834c0.899-0.613,1.634-1.201,2.126-1.701
	c2.995-3.014,2.995-7.914,0.001-10.926c-1.383-1.393-3.367-2.191-5.443-2.191c-2.075,0-4.058,0.799-5.442,2.191
	c-1.844,1.854-6.046,8.684-5.474,12.943l0.07,0.518h-1.328l0.069-0.518c0.569-4.264-3.631-11.092-5.474-12.943
	c-1.384-1.393-3.368-2.191-5.443-2.191c-2.076,0-4.06,0.799-5.442,2.191c-2.994,3.01-2.995,7.912-0.004,10.924
	c0.499,0.504,1.236,1.092,2.131,1.703l1.221,0.834H4.475C2.559,18.656,1,20.215,1,22.131v9.83c0,0.834,0.677,1.51,1.509,1.51h2.423
	v24.051c0,1.916,1.559,3.475,3.475,3.475h47.186c1.917,0,3.475-1.559,3.475-3.475V33.471h2.423c0.833,0,1.509-0.676,1.509-1.51
	V22.131z M17.186,13.99c-1.825-1.838-1.826-4.828,0-6.668c0.884-0.887,2.058-1.375,3.305-1.375c1.244,0,2.417,0.488,3.3,1.375
	c2.563,2.58,5.653,9.738,4.373,11.064c-0.155,0.127-0.43,0.27-1.056,0.27C24.238,18.656,18.973,15.791,17.186,13.99z M30.491,57.977
	H7.951V33.471h22.54V57.977z M30.491,30.453H4.019v-8.779h26.472V30.453z M40.208,7.322c0.846-0.848,2.05-1.334,3.303-1.334
	c1.254,0,2.457,0.486,3.302,1.334c1.827,1.84,1.826,4.83,0.001,6.668c-1.787,1.801-7.052,4.666-9.923,4.666
	c-0.687,0-0.955-0.166-1.054-0.264C34.555,17.059,37.647,9.9,40.208,7.322z M56.049,57.977h-22.54V33.471h22.54V57.977z
	 M59.981,30.453H33.509v-8.779h26.472V30.453z"/>
</svg>
