<?xml version="1.0" encoding="utf-8"?>
<!-- Generator: Adobe Illustrator 16.0.0, SVG Export Plug-In . SVG Version: 6.00 Build 0)  -->
<!DOCTYPE svg PUBLIC "-//W3C//DTD SVG 1.1//EN" "http://www.w3.org/Graphics/SVG/1.1/DTD/svg11.dtd">
<svg version="1.1" id="Layer_1" xmlns="http://www.w3.org/2000/svg" xmlns:xlink="http://www.w3.org/1999/xlink" x="0px" y="0px"
	 width="64px" height="64px" viewBox="0 0 64 64" enable-background="new 0 0 64 64" xml:space="preserve">
<g>
	<linearGradient id="SVGID_1_" gradientUnits="userSpaceOnUse" x1="11.9712" y1="0.8896" x2="63.3987" y2="52.3172">
		<stop  offset="0" style="stop-color:#2198D4"/>
		<stop  offset="1" style="stop-color:#263981"/>
	</linearGradient>
	<circle fill="url(#SVGID_1_)" cx="37.354" cy="26.273" r="1.617"/>
	<linearGradient id="SVGID_2_" gradientUnits="userSpaceOnUse" x1="-3.4731" y1="17.9414" x2="47.9699" y2="69.3845">
		<stop  offset="0" style="stop-color:#2198D4"/>
		<stop  offset="1" style="stop-color:#263981"/>
	</linearGradient>
	<circle fill="url(#SVGID_2_)" cx="26.521" cy="47.937" r="1.616"/>
	<linearGradient id="SVGID_3_" gradientUnits="userSpaceOnUse" x1="5.5391" y1="8.0293" x2="55.8841" y2="58.3744">
		<stop  offset="0" style="stop-color:#2198D4"/>
		<stop  offset="1" style="stop-color:#263981"/>
	</linearGradient>
	<path fill="url(#SVGID_3_)" d="M29.136,59.767h-19.05c-3.228,0-5.854-2.626-5.854-5.854V15.068c0-3.229,2.626-5.854,5.854-5.854
		h3.987v3.364c0,0.892,0.725,1.616,1.616,1.616s1.616-0.725,1.616-1.616V9.214h12.954v3.364c0,0.892,0.725,1.616,1.616,1.616
		s1.616-0.725,1.616-1.616V9.214H46.57v3.364c0,0.892,0.725,1.616,1.616,1.616s1.616-0.725,1.616-1.616V9.214h4.111
		c3.228,0,5.854,2.626,5.854,5.854v14.192c0,0.892,0.725,1.616,1.616,1.616S63,30.152,63,29.261V15.068
		c0-5.011-4.076-9.088-9.086-9.088h-4.111V2.617C49.802,1.726,49.077,1,48.186,1S46.57,1.726,46.57,2.617V5.98H33.492V2.617
		C33.492,1.726,32.767,1,31.875,1s-1.616,0.726-1.616,1.617V5.98H17.306V2.617C17.306,1.726,16.581,1,15.689,1
		s-1.616,0.726-1.616,1.617V5.98h-3.987C5.076,5.98,1,10.058,1,15.068v38.844C1,58.923,5.076,63,10.086,63h19.05
		c0.891,0,1.616-0.726,1.616-1.617S30.027,59.767,29.136,59.767z"/>
	<linearGradient id="SVGID_4_" gradientUnits="userSpaceOnUse" x1="6.7207" y1="6.7207" x2="58.1602" y2="58.1602">
		<stop  offset="0" style="stop-color:#2198D4"/>
		<stop  offset="1" style="stop-color:#263981"/>
	</linearGradient>
	<path fill="url(#SVGID_4_)" d="M48.809,34.616c-7.825,0-14.191,6.367-14.191,14.191C34.617,56.633,40.983,63,48.809,63
		S63,56.633,63,48.808C63,40.983,56.634,34.616,48.809,34.616z M48.809,59.767c-6.042,0-10.959-4.916-10.959-10.959
		c0-6.042,4.917-10.958,10.959-10.958s10.959,4.916,10.959,10.958C59.768,54.851,54.851,59.767,48.809,59.767z"/>
	<linearGradient id="SVGID_5_" gradientUnits="userSpaceOnUse" x1="7.6191" y1="5.0664" x2="59.3905" y2="56.8377">
		<stop  offset="0" style="stop-color:#2198D4"/>
		<stop  offset="1" style="stop-color:#263981"/>
	</linearGradient>
	<path fill="url(#SVGID_5_)" d="M52.419,47.192h-1.995v-3.488c0-0.892-0.725-1.617-1.616-1.617s-1.616,0.726-1.616,1.617v5.104
		c0,0.892,0.725,1.616,1.616,1.616h3.611c0.891,0,1.616-0.725,1.616-1.616S53.311,47.192,52.419,47.192z"/>
	<linearGradient id="SVGID_6_" gradientUnits="userSpaceOnUse" x1="17.1182" y1="-4.7959" x2="68.5612" y2="46.6472">
		<stop  offset="0" style="stop-color:#2198D4"/>
		<stop  offset="1" style="stop-color:#263981"/>
	</linearGradient>
	<circle fill="url(#SVGID_6_)" cx="48.186" cy="26.273" r="1.617"/>
	<linearGradient id="SVGID_7_" gradientUnits="userSpaceOnUse" x1="1.6753" y1="12.2588" x2="53.1028" y2="63.6863">
		<stop  offset="0" style="stop-color:#2198D4"/>
		<stop  offset="1" style="stop-color:#263981"/>
	</linearGradient>
	<circle fill="url(#SVGID_7_)" cx="26.521" cy="37.105" r="1.617"/>
	<linearGradient id="SVGID_8_" gradientUnits="userSpaceOnUse" x1="1.6509" y1="12.2334" x2="53.1095" y2="63.692">
		<stop  offset="0" style="stop-color:#2198D4"/>
		<stop  offset="1" style="stop-color:#263981"/>
	</linearGradient>
	<circle fill="url(#SVGID_8_)" cx="15.689" cy="26.273" r="1.617"/>
	<linearGradient id="SVGID_9_" gradientUnits="userSpaceOnUse" x1="-3.4868" y1="17.9287" x2="47.9562" y2="69.3718">
		<stop  offset="0" style="stop-color:#2198D4"/>
		<stop  offset="1" style="stop-color:#263981"/>
	</linearGradient>
	<circle fill="url(#SVGID_9_)" cx="15.689" cy="37.105" r="1.617"/>
	<linearGradient id="SVGID_10_" gradientUnits="userSpaceOnUse" x1="-8.6274" y1="23.6191" x2="42.8156" y2="75.0622">
		<stop  offset="0" style="stop-color:#2198D4"/>
		<stop  offset="1" style="stop-color:#263981"/>
	</linearGradient>
	<circle fill="url(#SVGID_10_)" cx="15.689" cy="47.937" r="1.616"/>
	<linearGradient id="SVGID_11_" gradientUnits="userSpaceOnUse" x1="6.8149" y1="6.5664" x2="58.2424" y2="57.9939">
		<stop  offset="0" style="stop-color:#2198D4"/>
		<stop  offset="1" style="stop-color:#263981"/>
	</linearGradient>
	<circle fill="url(#SVGID_11_)" cx="26.521" cy="26.273" r="1.617"/>
</g>
</svg>
