<?xml version="1.0" encoding="utf-8"?>
<!-- Generator: Adobe Illustrator 16.0.0, SVG Export Plug-In . SVG Version: 6.00 Build 0)  -->
<!DOCTYPE svg PUBLIC "-//W3C//DTD SVG 1.1//EN" "http://www.w3.org/Graphics/SVG/1.1/DTD/svg11.dtd">
<svg version="1.1" id="Layer_1" xmlns="http://www.w3.org/2000/svg" xmlns:xlink="http://www.w3.org/1999/xlink" x="0px" y="0px"
	 width="64px" height="64px" viewBox="0 0 64 64" enable-background="new 0 0 64 64" xml:space="preserve">
<g>
	<linearGradient id="SVGID_1_" gradientUnits="userSpaceOnUse" x1="18.2539" y1="1.1895" x2="59.3091" y2="42.2446">
		<stop  offset="0" style="stop-color:#2198D4"/>
		<stop  offset="1" style="stop-color:#263981"/>
	</linearGradient>
	<path fill="url(#SVGID_1_)" d="M31.999,24.584L31.999,24.584c5.318,0,9.646-4.326,9.646-9.644c0-5.318-4.327-9.646-9.645-9.646
		s-9.645,4.327-9.645,9.646C22.361,20.252,26.688,24.579,31.999,24.584z M32,8.313c3.654,0,6.627,2.973,6.627,6.627
		c0,3.653-2.973,6.626-6.627,6.626s-6.627-2.973-6.627-6.625C25.378,11.29,28.351,8.317,32,8.313z"/>
	<linearGradient id="SVGID_2_" gradientUnits="userSpaceOnUse" x1="6.46" y1="11.7705" x2="47.5172" y2="52.8278">
		<stop  offset="0" style="stop-color:#2198D4"/>
		<stop  offset="1" style="stop-color:#263981"/>
	</linearGradient>
	<path fill="url(#SVGID_2_)" d="M10.644,21.533L10.644,21.533c3.076,0,5.578-2.502,5.578-5.576c0-3.075-2.502-5.577-5.577-5.577
		s-5.576,2.502-5.576,5.578C5.071,19.028,7.572,21.53,10.644,21.533z M10.645,13.397c1.41,0,2.559,1.148,2.559,2.56
		s-1.148,2.559-2.559,2.559c-1.411,0-2.559-1.147-2.559-2.559S9.233,13.397,10.645,13.397z"/>
	<linearGradient id="SVGID_3_" gradientUnits="userSpaceOnUse" x1="28.9727" y1="-8.4277" x2="70.0299" y2="32.6295">
		<stop  offset="0" style="stop-color:#2198D4"/>
		<stop  offset="1" style="stop-color:#263981"/>
	</linearGradient>
	<path fill="url(#SVGID_3_)" d="M53.354,21.533L53.354,21.533c3.075,0,5.577-2.502,5.577-5.576c0-3.075-2.502-5.577-5.576-5.577
		c-3.075,0-5.577,2.502-5.577,5.578C47.782,19.028,50.284,21.53,53.354,21.533z M53.355,13.397c1.411,0,2.559,1.148,2.559,2.56
		s-1.147,2.559-2.559,2.559c-1.41,0-2.559-1.147-2.559-2.559S51.945,13.397,53.355,13.397z"/>
	<linearGradient id="SVGID_4_" gradientUnits="userSpaceOnUse" x1="8.5137" y1="8.707" x2="50.2964" y2="50.4897">
		<stop  offset="0" style="stop-color:#2198D4"/>
		<stop  offset="1" style="stop-color:#263981"/>
	</linearGradient>
	<path fill="url(#SVGID_4_)" d="M57.423,22.51c-0.322,0-0.643,0.106-0.905,0.302l-3.162,2.372l-3.162-2.372
		c-0.261-0.194-0.582-0.302-0.911-0.302c-1.694,0-3.281,0.772-4.325,2.086c-1.506-0.694-3.164-1.063-4.821-1.068
		c-0.399,0-0.788,0.161-1.067,0.442L32,31.038l-7.067-7.067c-0.28-0.282-0.669-0.443-1.07-0.443
		c-1.655,0.006-3.313,0.374-4.819,1.068c-1.044-1.313-2.632-2.086-4.33-2.086c-0.324,0-0.646,0.107-0.906,0.302l-3.162,2.372
		l-3.163-2.373C7.22,22.616,6.899,22.51,6.576,22.51C3.505,22.514,1.003,25.015,1,28.087v9.04c0.001,1.231,0.624,2.354,1.665,3.009
		l6.229,3.895c0.974,0.591,2.236,0.685,3.292,0.223v3.868c0,1.4,0.828,2.673,2.106,3.239l15.444,6.863
		c0.718,0.319,1.479,0.481,2.263,0.481s1.545-0.162,2.262-0.481l15.446-6.864c1.279-0.567,2.107-1.839,2.107-3.238v-4.887
		c0.969,0.469,2.157,0.461,3.12-0.019l6.1-3.051c1.216-0.601,1.97-1.815,1.966-3.17v-8.909
		C62.996,25.015,60.494,22.514,57.423,22.51z M6.127,25.567l3.611,2.709c0.526,0.396,1.286,0.395,1.812,0l3.613-2.709
		c0.481,0.086,0.929,0.309,1.284,0.64c-0.053,0.045-0.105,0.09-0.159,0.136l-0.11,0.096c-0.203,0.178-0.402,0.358-0.592,0.548
		c-0.146,0.146-0.285,0.295-0.425,0.449c-0.179,0.198-0.35,0.403-0.522,0.625c-0.123,0.158-0.243,0.314-0.356,0.479
		c-0.153,0.22-0.295,0.445-0.432,0.672c-0.105,0.174-0.207,0.347-0.303,0.526c-0.128,0.241-0.241,0.49-0.351,0.741l-0.047,0.104
		c-0.064,0.145-0.129,0.289-0.184,0.43c-0.095,0.24-0.169,0.484-0.271,0.824L12.646,32c-0.038,0.121-0.076,0.243-0.106,0.366
		c-0.075,0.307-0.129,0.623-0.181,0.938l-0.029,0.159c-0.021,0.102-0.039,0.203-0.051,0.302c-0.06,0.47-0.091,0.953-0.093,1.44
		v5.677l-1.193,0.594c-0.164,0.077-0.369,0.066-0.515-0.02l-6.199-3.877c-0.16-0.101-0.257-0.274-0.261-0.452v-9.04
		C4.018,26.835,4.912,25.783,6.127,25.567z M48.796,35.205v12.916c0,0.207-0.124,0.396-0.318,0.481l-15.446,6.865
		c-0.653,0.293-1.41,0.294-2.065-0.001L15.52,48.602c-0.191-0.084-0.315-0.273-0.315-0.48V35.204
		c-0.001-0.737,0.093-1.477,0.277-2.191c0.958-3.616,4.071-6.185,7.784-6.446l7.675,7.674c0.568,0.57,1.564,0.568,2.133,0
		l7.675-7.674C45.271,26.892,48.789,30.646,48.796,35.205z M53.125,40.521l-1.311-0.656v-4.661
		c-0.002-0.486-0.033-0.972-0.092-1.438c-0.013-0.104-0.031-0.207-0.052-0.309l-0.029-0.158c-0.053-0.317-0.106-0.628-0.18-0.935
		c-0.031-0.126-0.069-0.248-0.108-0.369l-0.052-0.165c-0.081-0.272-0.165-0.543-0.266-0.811c-0.058-0.147-0.122-0.292-0.187-0.437
		l-0.047-0.103c-0.106-0.248-0.222-0.496-0.35-0.735c-0.077-0.146-0.161-0.29-0.247-0.435l-0.057-0.098
		c-0.136-0.225-0.275-0.448-0.427-0.67c-0.119-0.169-0.242-0.333-0.366-0.493c-0.162-0.213-0.331-0.409-0.508-0.606
		c-0.141-0.156-0.285-0.312-0.433-0.458c-0.187-0.188-0.383-0.366-0.585-0.543c-0.087-0.075-0.175-0.151-0.274-0.234
		c0.355-0.331,0.802-0.554,1.283-0.64l3.609,2.709c0.527,0.396,1.287,0.395,1.812,0l3.612-2.709c1.215,0.216,2.109,1.268,2.109,2.52
		v8.908c0.001,0.203-0.112,0.385-0.296,0.476l-6.103,3.05C53.443,40.592,53.269,40.592,53.125,40.521z"/>
</g>
</svg>
