<?xml version="1.0" encoding="utf-8"?>
<!-- Generator: Adobe Illustrator 16.0.0, SVG Export Plug-In . SVG Version: 6.00 Build 0)  -->
<!DOCTYPE svg PUBLIC "-//W3C//DTD SVG 1.1//EN" "http://www.w3.org/Graphics/SVG/1.1/DTD/svg11.dtd">
<svg version="1.1" id="Layer_1" xmlns="http://www.w3.org/2000/svg" xmlns:xlink="http://www.w3.org/1999/xlink" x="0px" y="0px"
	 width="64px" height="64px" viewBox="0 0 64 64" enable-background="new 0 0 64 64" xml:space="preserve">
<g>
	<linearGradient id="SVGID_1_" gradientUnits="userSpaceOnUse" x1="4.9023" y1="13.3164" x2="50.8472" y2="59.2613">
		<stop  offset="0" style="stop-color:#2198D4"/>
		<stop  offset="1" style="stop-color:#263981"/>
	</linearGradient>
	<circle fill="url(#SVGID_1_)" cx="34.805" cy="43.219" r="1.552"/>
	<linearGradient id="SVGID_2_" gradientUnits="userSpaceOnUse" x1="-9.1152" y1="31.5508" x2="36.8152" y2="77.4812">
		<stop  offset="0" style="stop-color:#2198D4"/>
		<stop  offset="1" style="stop-color:#263981"/>
	</linearGradient>
	<path fill="url(#SVGID_2_)" d="M10.965,53.185c0.855,0,1.553-0.697,1.553-1.554c0-0.854-0.697-1.551-1.553-1.551
		c-0.854,0-1.551,0.696-1.551,1.551C9.414,52.487,10.11,53.185,10.965,53.185z"/>
	<linearGradient id="SVGID_3_" gradientUnits="userSpaceOnUse" x1="13.5" y1="3.1016" x2="58.8648" y2="48.4664">
		<stop  offset="0" style="stop-color:#2198D4"/>
		<stop  offset="1" style="stop-color:#263981"/>
	</linearGradient>
	<path fill="url(#SVGID_3_)" d="M58.644,6.609H10.965c-2.482,0-4.355,1.873-4.355,4.355v14.024c0,0.927,0.624,1.551,1.551,1.551
		c0.93,0,1.554-0.624,1.554-1.551V10.965c0-0.761,0.49-1.251,1.251-1.251h47.679c0.761,0,1.252,0.49,1.252,1.251V44.62
		c0,0.763-0.491,1.254-1.252,1.254H24.989c-0.93,0-1.553,0.624-1.553,1.551c0,0.928,0.623,1.552,1.553,1.552h2.654v4.059
		c0,0.761-0.492,1.251-1.253,1.251h-1.401c-0.93,0-1.553,0.624-1.553,1.554c0,0.927,0.623,1.551,1.553,1.551H44.62
		c0.929,0,1.553-0.624,1.553-1.551c0-0.93-0.624-1.554-1.553-1.554h-1.402c-0.761,0-1.253-0.49-1.253-1.251v-4.059h16.679
		c2.483,0,4.356-1.873,4.356-4.356V10.965C63,8.482,61.127,6.609,58.644,6.609z M39.086,54.286h-8.563
		c0.119-0.363,0.224-0.753,0.224-1.251v-4.059h8.114v4.059C38.861,53.529,38.967,53.92,39.086,54.286z"/>
	<linearGradient id="SVGID_4_" gradientUnits="userSpaceOnUse" x1="12.25" y1="10.8477" x2="53.6483" y2="52.2459">
		<stop  offset="0" style="stop-color:#2198D4"/>
		<stop  offset="1" style="stop-color:#263981"/>
	</linearGradient>
	<path fill="url(#SVGID_4_)" d="M57.391,39.011c0-0.927-0.624-1.551-1.551-1.551H24.989c-0.93,0-1.553,0.624-1.553,1.551
		c0,0.93,0.623,1.553,1.553,1.553H55.84C56.767,40.563,57.391,39.94,57.391,39.011z"/>
	<linearGradient id="SVGID_5_" gradientUnits="userSpaceOnUse" x1="-6.0615" y1="26.1904" x2="41.4068" y2="73.6587">
		<stop  offset="0" style="stop-color:#2198D4"/>
		<stop  offset="1" style="stop-color:#263981"/>
	</linearGradient>
	<path fill="url(#SVGID_5_)" d="M16.575,29.046H5.356C2.873,29.046,1,30.918,1,33.401v19.634c0,2.482,1.873,4.355,4.356,4.355
		h11.219c2.483,0,4.356-1.873,4.356-4.355V33.401C20.932,30.918,19.059,29.046,16.575,29.046z M4.104,33.401
		c0-0.761,0.491-1.252,1.252-1.252h11.219c0.761,0,1.252,0.491,1.252,1.252v19.634c0,0.761-0.491,1.251-1.252,1.251H5.356
		c-0.761,0-1.252-0.49-1.252-1.251V33.401z"/>
</g>
</svg>
