<?xml version="1.0" encoding="utf-8"?>
<!-- Generator: Adobe Illustrator 16.0.0, SVG Export Plug-In . SVG Version: 6.00 Build 0)  -->
<!DOCTYPE svg PUBLIC "-//W3C//DTD SVG 1.1//EN" "http://www.w3.org/Graphics/SVG/1.1/DTD/svg11.dtd">
<svg version="1.1" id="Layer_1" xmlns="http://www.w3.org/2000/svg" xmlns:xlink="http://www.w3.org/1999/xlink" x="0px" y="0px"
	 width="64px" height="64px" viewBox="0 0 64 64" enable-background="new 0 0 64 64" xml:space="preserve">
<g>
	<linearGradient id="SVGID_1_" gradientUnits="userSpaceOnUse" x1="4.0962" y1="7.7451" x2="56.9526" y2="60.6015">
		<stop  offset="0" style="stop-color:#2198D4"/>
		<stop  offset="1" style="stop-color:#263981"/>
	</linearGradient>
	<path fill="url(#SVGID_1_)" d="M17.496,15.02c0-3.378-2.748-6.126-6.126-6.126s-6.126,2.748-6.126,6.126
		c0,3.377,2.748,6.125,6.126,6.125S17.496,18.396,17.496,15.02z M11.37,18.822c-2.097,0-3.803-1.706-3.803-3.803
		c0-2.098,1.706-3.804,3.803-3.804s3.803,1.706,3.803,3.804C15.173,17.116,13.467,18.822,11.37,18.822z"/>
	<linearGradient id="SVGID_2_" gradientUnits="userSpaceOnUse" x1="8.0024" y1="3.1094" x2="62.1495" y2="57.2564">
		<stop  offset="0" style="stop-color:#2198D4"/>
		<stop  offset="1" style="stop-color:#263981"/>
	</linearGradient>
	<path fill="url(#SVGID_2_)" d="M11.37,8.555c0.64,0,1.161-0.521,1.161-1.161V5.561c0-0.641-0.521-1.161-1.161-1.161
		s-1.161,0.521-1.161,1.161v1.833C10.209,8.034,10.73,8.555,11.37,8.555z"/>
	<linearGradient id="SVGID_3_" gradientUnits="userSpaceOnUse" x1="10.1177" y1="1.6865" x2="60.4198" y2="51.9886">
		<stop  offset="0" style="stop-color:#2198D4"/>
		<stop  offset="1" style="stop-color:#263981"/>
	</linearGradient>
	<path fill="url(#SVGID_3_)" d="M16.763,10.788c0.31,0,0.602-0.12,0.821-0.34l1.296-1.296c0.219-0.22,0.34-0.512,0.34-0.821
		c0-0.311-0.121-0.603-0.34-0.821c-0.439-0.438-1.204-0.44-1.643,0l-1.296,1.296c-0.452,0.453-0.452,1.189,0,1.643
		C16.161,10.667,16.452,10.788,16.763,10.788z"/>
	<linearGradient id="SVGID_4_" gradientUnits="userSpaceOnUse" x1="8.3594" y1="3.4658" x2="60.0615" y2="55.1679">
		<stop  offset="0" style="stop-color:#2198D4"/>
		<stop  offset="1" style="stop-color:#263981"/>
	</linearGradient>
	<path fill="url(#SVGID_4_)" d="M17.835,15.02c0,0.641,0.521,1.161,1.161,1.161h1.833c0.64,0,1.161-0.521,1.161-1.161
		s-0.521-1.161-1.161-1.161h-1.833C18.356,13.858,17.835,14.379,17.835,15.02z"/>
	<linearGradient id="SVGID_5_" gradientUnits="userSpaceOnUse" x1="4.0933" y1="7.7422" x2="57.016" y2="60.6649">
		<stop  offset="0" style="stop-color:#2198D4"/>
		<stop  offset="1" style="stop-color:#263981"/>
	</linearGradient>
	<path fill="url(#SVGID_5_)" d="M17.237,22.529c0.22,0.22,0.511,0.34,0.821,0.34s0.602-0.12,0.821-0.34
		c0.219-0.22,0.34-0.512,0.34-0.821c0-0.311-0.121-0.603-0.34-0.821l-1.296-1.296c-0.44-0.44-1.205-0.438-1.643,0
		c-0.219,0.219-0.34,0.511-0.34,0.821c0,0.31,0.121,0.602,0.34,0.82L17.237,22.529z"/>
	<linearGradient id="SVGID_6_" gradientUnits="userSpaceOnUse" x1="-0.1636" y1="12.0283" x2="53.9835" y2="66.1754">
		<stop  offset="0" style="stop-color:#2198D4"/>
		<stop  offset="1" style="stop-color:#263981"/>
	</linearGradient>
	<path fill="url(#SVGID_6_)" d="M10.209,22.646v1.833c0,0.641,0.521,1.161,1.161,1.161s1.161-0.521,1.161-1.161v-1.833
		c0-0.641-0.521-1.161-1.161-1.161S10.209,22.005,10.209,22.646z"/>
	<linearGradient id="SVGID_7_" gradientUnits="userSpaceOnUse" x1="-1.2207" y1="14.5098" x2="49.0814" y2="64.8119">
		<stop  offset="0" style="stop-color:#2198D4"/>
		<stop  offset="1" style="stop-color:#263981"/>
	</linearGradient>
	<path fill="url(#SVGID_7_)" d="M5.157,19.591l-1.296,1.296c-0.453,0.452-0.453,1.188,0,1.643c0.22,0.22,0.511,0.34,0.821,0.34
		c0.311,0,0.602-0.121,0.821-0.34l1.296-1.297c0.453-0.452,0.453-1.189,0-1.642C6.361,19.151,5.595,19.151,5.157,19.591z"/>
	<linearGradient id="SVGID_8_" gradientUnits="userSpaceOnUse" x1="0.1533" y1="12.3447" x2="51.8416" y2="64.033">
		<stop  offset="0" style="stop-color:#2198D4"/>
		<stop  offset="1" style="stop-color:#263981"/>
	</linearGradient>
	<path fill="url(#SVGID_8_)" d="M1.911,16.181h1.833c0.641,0,1.162-0.521,1.162-1.161s-0.521-1.161-1.162-1.161H1.911
		c-0.64,0-1.161,0.521-1.161,1.161S1.271,16.181,1.911,16.181z"/>
	<linearGradient id="SVGID_9_" gradientUnits="userSpaceOnUse" x1="4.0815" y1="7.7305" x2="57.0167" y2="60.6657">
		<stop  offset="0" style="stop-color:#2198D4"/>
		<stop  offset="1" style="stop-color:#263981"/>
	</linearGradient>
	<path fill="url(#SVGID_9_)" d="M5.157,10.448c0.22,0.22,0.511,0.34,0.821,0.34s0.602-0.12,0.822-0.34
		c0.452-0.453,0.452-1.19,0-1.643L5.503,7.51C5.064,7.07,4.299,7.07,3.86,7.51c-0.452,0.452-0.452,1.189,0,1.643L5.157,10.448z"/>
	<linearGradient id="SVGID_10_" gradientUnits="userSpaceOnUse" x1="1.4814" y1="9.7764" x2="54.4494" y2="62.7443">
		<stop  offset="0" style="stop-color:#2198D4"/>
		<stop  offset="1" style="stop-color:#263981"/>
	</linearGradient>
	<path fill="url(#SVGID_10_)" d="M57.433,54.64c-1.727-2.306-4.921-4.287-9.25-5.737c-2.62-0.877-5.535-1.522-8.67-1.92
		l6.289-15.778c0.861,0.657,1.611,1.419,2.234,2.267c0.246,0.334,0.602,0.525,0.975,0.525c0.09,0,0.181-0.011,0.257-0.029
		c2.107-0.385,4.353-0.137,6.478,0.711c2.146,0.855,3.951,2.231,5.22,3.979c0.271,0.375,0.754,0.563,1.219,0.444
		c0.461-0.114,0.803-0.493,0.87-0.963c0.035-0.242,0.833-6.024-1.064-12.333c-0.18-0.597-0.854-0.96-1.446-0.777
		c-0.297,0.089-0.542,0.288-0.688,0.562s-0.178,0.587-0.089,0.885c0.985,3.274,1.182,6.448,1.151,8.692
		c-1.246-1.112-2.693-2.001-4.312-2.646c-1.925-0.768-3.926-1.128-5.9-1.041c0.72-2.24,1.207-4.438,1.448-6.536
		c0.251-2.194,0.251-4.323-0.001-6.327c-0.129-1.027-0.335-2.037-0.617-3.025c2.96,1.736,5.262,4.214,6.845,7.373
		c0.281,0.558,0.999,0.8,1.559,0.518c0.278-0.139,0.484-0.378,0.582-0.673c0.098-0.294,0.075-0.609-0.064-0.887
		c-2.29-4.566-5.883-7.851-10.68-9.764c-2.479-0.987-5.023-1.488-7.562-1.488c-4.192,0-8.326,1.341-12.288,3.984
		c-4.733,3.158-7.538,7.064-7.656,7.229c-0.275,0.389-0.287,0.897-0.03,1.297c0.252,0.394,0.713,0.603,1.19,0.517
		c2.121-0.392,4.386-0.149,6.525,0.702c2.113,0.843,3.898,2.192,5.164,3.902c0.268,0.362,0.622,0.562,0.999,0.562
		c0.107,0,0.216-0.017,0.297-0.042c1.02-0.18,2.083-0.216,3.149-0.103l-7.097,17.806l-0.382-0.003c-4.217,0-8.249,0.421-11.984,1.25
		c-0.303,0.066-0.562,0.248-0.728,0.51c-0.167,0.262-0.222,0.572-0.154,0.875c0.135,0.61,0.777,1.018,1.385,0.883
		c5.206-1.155,11.406-1.485,17.17-0.917c3.536,0.352,6.789,1.019,9.669,1.983c3.237,1.084,5.769,2.479,7.354,4.047
		c-0.69,0.249-1.349,0.586-1.964,1.002c-2.164,1.468-5.094,1.467-7.257,0c-1.47-0.996-3.175-1.523-4.932-1.523
		s-3.462,0.527-4.932,1.523c-2.164,1.467-5.093,1.467-7.257,0c-1.47-0.996-3.175-1.523-4.932-1.523s-3.462,0.527-4.932,1.523
		c-2.164,1.468-5.094,1.467-7.257,0c-0.615-0.416-1.274-0.753-1.964-1.002c1.584-1.566,4.11-2.96,7.34-4.042
		c0.606-0.204,0.935-0.863,0.731-1.472c-0.199-0.592-0.873-0.932-1.47-0.731c-4.321,1.45-7.51,3.43-9.235,5.732
		c-1.864-0.086-3.703,0.456-5.267,1.515c-0.53,0.36-0.668,1.084-0.309,1.612c0.346,0.513,1.097,0.658,1.613,0.311
		c1.082-0.733,2.337-1.121,3.63-1.121c0.229,0,0.458,0.012,0.657,0.032c0.071,0.016,0.143,0.024,0.19,0.025
		c0.986,0.131,1.947,0.499,2.78,1.063c1.47,0.997,3.175,1.523,4.932,1.523c1.756,0,3.462-0.526,4.931-1.523
		c2.165-1.466,5.095-1.466,7.257,0c1.47,0.997,3.175,1.523,4.932,1.523s3.462-0.526,4.932-1.523c2.163-1.466,5.093-1.466,7.257,0
		c1.469,0.997,3.175,1.523,4.932,1.523c1.757,0,3.463-0.526,4.932-1.523c0.83-0.563,1.789-0.931,2.744-1.061
		c0.076-0.001,0.152-0.012,0.201-0.023c1.518-0.164,3.04,0.222,4.313,1.084c0.513,0.348,1.265,0.202,1.613-0.31
		c0.359-0.529,0.22-1.253-0.31-1.613C61.138,55.096,59.296,54.565,57.433,54.64z M38.337,26.33c-0.107,0-0.214,0.001-0.321,0.003
		c0.845-1.727,1.793-3.319,2.82-4.739c0.369-0.509,0.25-1.252-0.26-1.621c-0.491-0.355-1.267-0.229-1.622,0.26
		c-0.884,1.221-1.728,2.589-2.522,4.089c-0.208,0.393-0.421,0.796-0.62,1.219c-1.374-1.403-3.093-2.54-4.995-3.298
		c-1.618-0.645-3.281-0.995-4.951-1.045c1.225-1.328,3.066-3.093,5.396-4.642c2.551-1.694,5.183-2.801,7.821-3.286
		c2.337-0.431,4.719-0.371,7.069,0.175c-1.193,0.704-2.338,1.555-3.411,2.535c-0.503,0.46-0.945,0.89-1.351,1.313
		c-0.214,0.225-0.328,0.52-0.32,0.829c0.007,0.311,0.135,0.6,0.359,0.813c0.451,0.429,1.215,0.41,1.642-0.038
		c1.223-1.282,2.528-2.362,3.88-3.212c0.629-0.396,1.225-0.719,1.815-0.982c0.16,0.388,0.365,0.94,0.56,1.642
		c0.98,3.532,0.925,7.59-0.163,12.058c-0.175,0.715-0.373,1.427-0.596,2.138c-1.21-1.205-2.646-2.183-4.273-2.91l-0.072-0.032
		C42.344,26.768,40.309,26.33,38.337,26.33z M37.113,46.729c-0.363-0.03-0.729-0.057-1.095-0.08
		c-0.358-0.024-0.716-0.044-1.075-0.061l6.932-17.393c0.351,0.107,0.697,0.23,1.033,0.366c0.049,0.021,0.584,0.265,0.885,0.404
		L37.113,46.729z"/>
</g>
</svg>
