<?xml version="1.0" encoding="utf-8"?>
<!-- Generator: Adobe Illustrator 16.0.0, SVG Export Plug-In . SVG Version: 6.00 Build 0)  -->
<!DOCTYPE svg PUBLIC "-//W3C//DTD SVG 1.1//EN" "http://www.w3.org/Graphics/SVG/1.1/DTD/svg11.dtd">
<svg version="1.1" id="Layer_1" xmlns="http://www.w3.org/2000/svg" xmlns:xlink="http://www.w3.org/1999/xlink" x="0px" y="0px"
	 width="64px" height="64px" viewBox="0 0 64 64" enable-background="new 0 0 64 64" xml:space="preserve">
<g>
	<linearGradient id="SVGID_1_" gradientUnits="userSpaceOnUse" x1="1.833" y1="1.833" x2="61.5016" y2="61.5016">
		<stop  offset="0" style="stop-color:#2198D4"/>
		<stop  offset="1" style="stop-color:#263981"/>
	</linearGradient>
	<path fill="url(#SVGID_1_)" d="M57.521,17.126c0.883,0,1.603-0.718,1.603-1.602v-3.567h2.274c0.884,0,1.602-0.719,1.602-1.603
		V2.602C63,1.719,62.282,1,61.398,1h-7.754c-0.883,0-1.603,0.719-1.603,1.602v2.275H11.958V2.602c0-0.882-0.72-1.602-1.603-1.602
		H2.602C1.719,1,1,1.719,1,2.602v7.753c0,0.884,0.719,1.603,1.602,1.603h2.274v40.084H2.602C1.719,52.042,1,52.762,1,53.645v7.754
		C1,62.282,1.719,63,2.602,63h7.754c0.883,0,1.603-0.718,1.603-1.602v-2.274h40.084v2.274c0,0.884,0.72,1.602,1.603,1.602h7.754
		C62.282,63,63,62.282,63,61.398v-7.754c0-0.883-0.718-1.603-1.602-1.603h-2.274V24.869c0-0.884-0.72-1.603-1.603-1.603
		c-0.884,0-1.602,0.719-1.602,1.603v27.173h-2.275c-0.883,0-1.603,0.72-1.603,1.603v2.275H11.958v-2.275
		c0-0.883-0.72-1.603-1.603-1.603H8.08V11.958h2.275c0.883,0,1.603-0.719,1.603-1.603V8.08h40.084v2.275
		c0,0.884,0.72,1.603,1.603,1.603h2.275v3.567C55.92,16.409,56.638,17.126,57.521,17.126z M55.247,55.247h4.549v4.549h-4.549V55.247
		z M8.754,55.247v4.549H4.203v-4.549H8.754z M8.754,8.754H4.203V4.203h4.551V8.754z M55.247,8.754V4.203h4.549v4.551H55.247z"/>
	<linearGradient id="SVGID_2_" gradientUnits="userSpaceOnUse" x1="0.4824" y1="3.5132" x2="59.9034" y2="62.9342">
		<stop  offset="0" style="stop-color:#2198D4"/>
		<stop  offset="1" style="stop-color:#263981"/>
	</linearGradient>
	<path fill="url(#SVGID_2_)" d="M28.847,42.814H47.03c0.344,0,0.648-0.122,0.883-0.354c0.234-0.237,0.356-0.542,0.356-0.885v-1.212
		c0-0.344-0.122-0.648-0.352-0.881c-0.239-0.236-0.544-0.358-0.888-0.358H28.847c-0.346,0-0.65,0.123-0.884,0.355
		s-0.355,0.539-0.355,0.884v1.212c0,0.345,0.122,0.65,0.355,0.883C28.196,42.69,28.501,42.814,28.847,42.814z"/>
	<linearGradient id="SVGID_3_" gradientUnits="userSpaceOnUse" x1="-4.8105" y1="8.5239" x2="54.8379" y2="68.1724">
		<stop  offset="0" style="stop-color:#2198D4"/>
		<stop  offset="1" style="stop-color:#263981"/>
	</linearGradient>
	<path fill="url(#SVGID_3_)" d="M15.73,39.152c0,0.332,0.13,0.637,0.374,0.882l0.948,0.948c0.243,0.244,0.55,0.373,0.883,0.373
		s0.638-0.129,0.883-0.373l8.827-8.829c0.245-0.245,0.374-0.55,0.374-0.882c0-0.331-0.129-0.635-0.371-0.882l-8.83-8.828
		c-0.246-0.246-0.552-0.375-0.883-0.375c-0.333,0-0.638,0.13-0.883,0.375l-0.948,0.945c-0.244,0.246-0.374,0.551-0.374,0.884
		c0,0.334,0.13,0.64,0.375,0.885l6.995,6.996l-6.996,6.998C15.86,38.511,15.73,38.815,15.73,39.152z"/>
</g>
</svg>
