<?xml version="1.0" encoding="utf-8"?>
<!-- Generator: Adobe Illustrator 16.0.0, SVG Export Plug-In . SVG Version: 6.00 Build 0)  -->
<!DOCTYPE svg PUBLIC "-//W3C//DTD SVG 1.1//EN" "http://www.w3.org/Graphics/SVG/1.1/DTD/svg11.dtd">
<svg version="1.1" id="Layer_1" xmlns="http://www.w3.org/2000/svg" xmlns:xlink="http://www.w3.org/1999/xlink" x="0px" y="0px"
	 width="64px" height="64px" viewBox="0 0 64 64" enable-background="new 0 0 64 64" xml:space="preserve">
<g>
	<linearGradient id="SVGID_1_" gradientUnits="userSpaceOnUse" x1="15.8174" y1="4.8877" x2="58.3114" y2="47.3817">
		<stop  offset="0" style="stop-color:#2198D4"/>
		<stop  offset="1" style="stop-color:#263981"/>
	</linearGradient>
	<path fill="url(#SVGID_1_)" d="M3.003,24.94c0.122,0.036,0.249,0.055,0.376,0.055c0.593,0,1.121-0.398,1.285-0.968
		C8.179,11.961,19.419,3.534,32,3.534c1.968,0,3.934,0.202,5.846,0.601c-0.005,1.697,0.746,2.889,1.199,3.607
		c0.112,0.177,0.258,0.408,0.311,0.496c-0.004,3.513-0.594,4.544-0.783,4.784c-1.98,0.041-5.157,1.787-6.359,4.03
		c-0.76,1.417-0.697,2.917,0.173,4.225c0.572,0.858,1.064,1.812,1.541,2.733c1.021,1.979,2.179,4.222,4.036,4.222
		c0.407,0,0.838-0.112,1.28-0.333c1.432-0.717,2.439-2.714,3.417-4.649c0.369-0.731,0.974-1.935,1.341-2.375
		c1.088,0.191,1.64,1.229,2.408,2.895c0.599,1.299,1.218,2.641,2.464,3.264c0.546,0.273,1.415,0.411,2.584,0.411
		c2.912,0,7.145-0.864,9.844-2.011c0.613-0.26,0.944-0.941,0.771-1.584c-2.515-9.297-9.346-17.03-18.273-20.687
		c-0.162-0.067-0.334-0.101-0.509-0.101c-0.547,0-1.034,0.327-1.241,0.834c-0.136,0.331-0.135,0.695,0.004,1.025
		c0.139,0.331,0.397,0.588,0.73,0.724c7.724,3.165,13.829,9.791,16.358,17.743c-2.646,0.91-5.916,1.387-7.813,1.387
		c-0.838,0-1.146-0.091-1.256-0.146c-0.4-0.198-0.858-1.189-1.227-1.985c-0.847-1.836-2.006-4.349-5.003-4.481
		c-0.041-0.003-0.081-0.004-0.121-0.004c-1.501,0-2.342,1.667-3.406,3.776l-0.054,0.107c-0.575,1.143-1.529,3.036-2.25,3.46
		c-0.403-0.212-1.307-1.961-1.702-2.728c-0.486-0.942-1.038-2.01-1.689-2.987c-0.321-0.482-0.334-0.921-0.041-1.468
		c0.766-1.43,3.162-2.613,4.063-2.613c2.255,0,3.398-2.527,3.398-7.51c0-0.736-0.367-1.319-0.723-1.886
		c-0.489-0.773-0.994-1.574-0.698-2.931c0.155-0.714-0.276-1.411-0.981-1.588C37.158,1.167,34.588,0.85,32,0.85
		c-13.769,0-26.069,9.223-29.911,22.428c-0.101,0.343-0.062,0.704,0.109,1.018C2.371,24.61,2.657,24.84,3.003,24.94z"/>
	<linearGradient id="SVGID_2_" gradientUnits="userSpaceOnUse" x1="14.8701" y1="6.2119" x2="57.5332" y2="48.875">
		<stop  offset="0" style="stop-color:#2198D4"/>
		<stop  offset="1" style="stop-color:#263981"/>
	</linearGradient>
	<path fill="url(#SVGID_2_)" d="M37.599,40.411c1.912,0.957,3.89,1.946,4.757,2.815c0.641,0.64,1.74,1.008,3.017,1.008
		c1.928,0,4.491-0.939,5.374-3.587c0.327-0.979,1.123-1.74,1.896-2.479c0.932-0.893,1.812-1.735,1.824-2.976
		c0.008-0.739-0.315-1.441-0.96-2.086c-0.869-0.867-2.047-1.308-3.5-1.308c-1.378,0-2.746,0.392-3.744,0.677l-0.125,0.035
		c-0.275,0.078-0.69,0.195-0.775,0.202c-1.72,0-2.788,1.308-3.568,2.262c-0.203,0.247-0.73,0.889-1.01,0.944
		c-0.546-0.267-1.121-0.402-1.71-0.402c-1.476,0-2.755,0.886-3.041,2.105C35.827,38.489,36.123,39.673,37.599,40.411z
		 M50.006,34.484c0.729,0,1.251,0.17,1.6,0.52c0.076,0.077,0.125,0.136,0.155,0.176c-0.128,0.234-0.682,0.767-0.978,1.052
		c-0.911,0.871-2.046,1.954-2.584,3.566c-0.555,1.667-2.452,1.751-2.827,1.751c-0.706,0-1.081-0.19-1.115-0.221
		c-1.103-1.101-2.989-2.082-5.041-3.109c0.144,0.018,0.283,0.06,0.407,0.12c0.406,0.204,0.824,0.308,1.241,0.308
		c1.392,0,2.248-1.047,3.009-1.977c0.49-0.597,1.045-1.272,1.488-1.272c0.437,0,0.923-0.138,1.597-0.328l0.045-0.013
		C47.896,34.801,49.006,34.484,50.006,34.484z"/>
	<linearGradient id="SVGID_3_" gradientUnits="userSpaceOnUse" x1="8.5088" y1="12.7783" x2="51.1923" y2="55.4618">
		<stop  offset="0" style="stop-color:#2198D4"/>
		<stop  offset="1" style="stop-color:#263981"/>
	</linearGradient>
	<path fill="url(#SVGID_3_)" d="M62.853,27.688c-0.099-0.72-0.772-1.25-1.512-1.146c-0.355,0.05-0.67,0.234-0.887,0.52
		c-0.217,0.286-0.31,0.64-0.26,0.994c0.18,1.305,0.271,2.632,0.271,3.943c0,15.495-12.592,28.253-28.078,28.462
		c-4.124-2.639-8.09-5.883-6.349-9.945c3.218-7.51,0.21-10.329-1.077-11.536l-0.236-0.223c-0.368-0.367-0.779-0.616-1.155-0.844
		c-0.852-0.51-1.005-0.602-0.574-1.894c0.297-0.896,0.696-1.319,1.166-1.816c1.124-1.19,1.985-2.373,1.985-5.802
		c0-2.025-1.028-3.641-2.82-4.431c-0.75-0.333-1.618-0.508-2.51-0.508c-1.45,0-2.777,0.449-3.64,1.231
		c-0.915,0.832-1.222,1.963-0.842,3.104c0.83,2.483-1.09,6.094-4.669,8.779c-0.365,0.273-0.656,0.412-0.867,0.412
		c-0.175,0-0.263-0.1-0.349-0.198c-1.003-1.156-0.935-4.567-0.115-5.385c0.631-0.632,0.816-1.441,0.496-2.166
		c-0.799-1.812-4.857-2.081-7.205-2.081c-0.597,0-1.063,0.018-1.287,0.028c-0.655,0.029-1.19,0.524-1.271,1.176
		C0.915,29.604,0.85,30.69,0.85,32c0,14.363,9.728,26.799,23.654,30.24c0.105,0.026,0.215,0.04,0.323,0.04
		c0.618,0,1.153-0.42,1.301-1.021c0.087-0.347,0.032-0.707-0.152-1.013c-0.186-0.309-0.479-0.525-0.829-0.611
		C12.422,56.49,3.535,45.126,3.535,31.999c0-0.767,0.024-1.455,0.079-2.153c1.942,0.008,3.443,0.23,4.236,0.439
		c-1.325,2.289-1.061,6.386,0.572,8.268c0.641,0.739,1.45,1.13,2.339,1.13c0.813,0,1.682-0.331,2.515-0.956
		c4.634-3.476,6.834-8.098,5.604-11.777c-0.03-0.096-0.043-0.136,0.103-0.268c0.359-0.326,1.079-0.537,1.833-0.537
		c0.517,0,1.009,0.097,1.424,0.28c0.822,0.364,1.222,1.011,1.222,1.978c0,2.635-0.525,3.189-1.259,3.964
		c-0.565,0.6-1.27,1.347-1.756,2.807c-1.109,3.333,0.745,4.447,1.741,5.046c0.244,0.146,0.496,0.295,0.641,0.44
		c0.088,0.087,0.188,0.181,0.297,0.282c1.022,0.955,2.925,2.731,0.445,8.518c-2.906,6.781,4.533,11.477,7.713,13.483
		c0.214,0.136,0.462,0.208,0.716,0.208c17.176,0,31.15-13.975,31.15-31.15C63.15,30.558,63.05,29.107,62.853,27.688z"/>
	<linearGradient id="SVGID_4_" gradientUnits="userSpaceOnUse" x1="0.1104" y1="21.0107" x2="43.083" y2="63.9834">
		<stop  offset="0" style="stop-color:#2198D4"/>
		<stop  offset="1" style="stop-color:#263981"/>
	</linearGradient>
	<path fill="url(#SVGID_4_)" d="M34.324,49.729c-0.371-0.368-0.872-0.571-1.411-0.571c-1.547,0-3.354,1.762-4.01,3.343
		c-0.521,1.259-0.361,2.44,0.439,3.24c0.74,0.739,1.835,1.164,3.005,1.164c1.168,0,2.264-0.425,3.006-1.164
		c0.834-0.836,1.04-2.054,0.579-3.43C35.628,51.397,35.027,50.433,34.324,49.729z M31.569,53.166
		c0.374-0.617,0.863-1.029,1.144-1.211c0.297,0.375,0.545,0.817,0.674,1.205c0.144,0.428,0.101,0.646,0.067,0.679
		c-0.216,0.217-0.641,0.351-1.108,0.351c-0.438,0-0.836-0.114-1.06-0.302C31.291,53.806,31.327,53.566,31.569,53.166z"/>
</g>
</svg>
