<?xml version="1.0" encoding="utf-8"?>
<!-- Generator: Adobe Illustrator 16.0.0, SVG Export Plug-In . SVG Version: 6.00 Build 0)  -->
<!DOCTYPE svg PUBLIC "-//W3C//DTD SVG 1.1//EN" "http://www.w3.org/Graphics/SVG/1.1/DTD/svg11.dtd">
<svg version="1.1" id="Layer_1" xmlns="http://www.w3.org/2000/svg" xmlns:xlink="http://www.w3.org/1999/xlink" x="0px" y="0px"
	 width="256px" height="40px" viewBox="0 0 256 40" enable-background="new 0 0 256 40" xml:space="preserve">
<g>
	<polygon fill="#2197D4" points="44.953,3.036 52.513,18.688 40.881,37.39 23.605,37.39 	"/>
	<polygon fill="#263A81" points="14.864,31.906 24.238,16.838 27.777,24.188 31.558,18.101 24.294,3.036 2.945,37.39 19.581,37.39 
		22.987,31.906 	"/>
	<polygon fill="#263A81" points="44.905,37.39 54.278,22.319 61.542,37.39 	"/>
	<path fill="#2197D4" d="M85.566,16.369v-2.963c-0.689-0.185-1.75-0.452-3.154-0.452c-4.421,0-6.725,2.703-6.725,7.335
		c0,4.212,2.543,7.177,6.329,7.177c1.274,0,2.622-0.13,3.311-0.265l0.107-3.336h2.647l-0.107,5.057
		c-1.192,0.402-3.573,0.876-5.773,0.876c-6.646,0-9.798-4.132-9.798-9.406c0-5.769,3.867-9.767,10.038-9.767
		c2.33,0,4.528,0.501,5.771,1.006v4.736H85.566z"/>
	<path fill="#2197D4" d="M101.203,10.626c5.352,0,8.584,3.545,8.584,9.269c0,4.899-2.864,9.903-9.109,9.903
		c-5.406,0-8.822-3.577-8.822-9.271C91.855,14.73,95.484,10.626,101.203,10.626z M100.782,27.308c4.895,0,5.718-4.739,5.718-7.256
		c0-3.309-1.113-6.938-5.481-6.938c-3.097,0-5.878,2.118-5.878,7.28C95.141,23.998,96.887,27.308,100.782,27.308z"/>
	<path fill="#2197D4" d="M113.214,27.308h1.881l0.103-14.195h-1.984v-2.171h8.79c5.962,0,9.378,3.471,9.378,8.845
		c0,5.482-3.47,9.691-9.405,9.691h-8.763V27.308z M121.026,27.308c4.529,0,7.074-2.753,7.074-7.391c0-4.153-2.385-6.804-6.941-6.804
		h-2.989l-0.109,14.195H121.026z"/>
	<path fill="#2197D4" d="M135.316,27.308h1.85l0.106-14.195h-2.145v-2.171h13.029l0.107,4.871h-2.463l-0.156-2.7h-5.38l-0.053,5.721
		h5.298v2.33h-5.298l-0.052,6.145h5.641l0.213-3.018h2.485l-0.209,5.188h-12.975V27.308z"/>
	<path fill="#263A81" d="M152.013,27.308h1.882l0.107-14.195h-2.096v-2.171h6.093l5.348,13.799c0.188,0.478,0.293,1.005,0.429,1.511
		h0.05c0.134-0.506,0.238-1.033,0.424-1.511l5.301-13.799h5.771v2.171h-2.118l0.103,14.195h2.016v2.171h-6.757v-2.171h1.83
		L170.5,14.78l-0.08-0.05c-0.238,0.821-0.399,1.668-0.717,2.462l-4.736,12.287h-2.972l-4.632-11.81
		c-0.37-0.926-0.556-1.88-0.82-2.833h-0.056l-0.105,12.472h2.096v2.171h-6.465V27.308z"/>
	<path fill="#263A81" d="M177.737,27.308h1.591l6.728-16.366h3.282l6.225,16.366h1.642v2.171h-6.777v-2.171h1.692l-1.59-4.609
		h-6.512l-1.725,4.609h1.907v2.171h-6.463V27.308z M187.936,15.13c-0.292-0.824-0.397-1.302-0.477-1.7h-0.053
		c-0.079,0.374-0.187,0.876-0.504,1.7l-2.041,5.242h4.9L187.936,15.13z"/>
	<path fill="#263A81" d="M203.202,24.343v2.462c0.561,0.292,1.88,0.662,3.362,0.662c2.36,0,3.921-1.059,3.921-3.047
		c0-1.479-0.899-2.063-2.889-2.619l-3.282-0.931c-2.117-0.606-4.024-1.848-4.024-4.816c0-3.656,3.099-5.427,6.989-5.427
		c2.413,0,4.216,0.501,5.615,0.897v4.106h-2.806v-2.224c-0.396-0.161-1.351-0.452-2.781-0.452c-2.755,0-3.893,1.244-3.893,2.676
		c0,1.615,1.191,2.173,2.859,2.595l2.861,0.741c2.118,0.556,4.474,1.721,4.474,4.978c0,3.686-2.729,5.855-7.124,5.855
		c-1.35,0-4.635-0.347-6.248-0.982v-4.474H203.202z"/>
	<path fill="#263A81" d="M221.942,27.308h1.907l0.106-14.195h-4.319l-0.104,2.7h-2.647l0.106-4.871h16.813l0.109,4.871h-2.65
		l-0.108-2.7h-4.233l-0.109,14.195h2.146v2.171h-7.016V27.308z"/>
	<path fill="#263A81" d="M236.812,27.308h1.83l0.1-14.195h-1.93v-2.171h8.239c3.813,0,5.614,2.197,5.614,4.897
		c0,3.209-2.064,4.662-4.42,4.9v0.055c1.028,0.075,1.717,0.951,2.355,2.012l2.009,3.389c0.532,0.874,1.033,1.112,1.646,1.112h0.69
		v2.171h-1.727c-1.56,0-2.28-0.153-3.365-1.954l-2.541-4.32c-0.769-1.324-1.162-1.617-2.038-1.617h-1.586l-0.056,5.721h2.144v2.171
		h-6.965V27.308z M243.991,19.254c2.092,0,3.548-1.109,3.548-3.092c0-1.938-1.189-3.05-3.339-3.05h-2.459l-0.053,6.142H243.991z"/>
</g>
</svg>
