<?xml version="1.0" encoding="utf-8"?>
<!-- Generator: Adobe Illustrator 16.0.0, SVG Export Plug-In . SVG Version: 6.00 Build 0)  -->
<!DOCTYPE svg PUBLIC "-//W3C//DTD SVG 1.1//EN" "http://www.w3.org/Graphics/SVG/1.1/DTD/svg11.dtd">
<svg version="1.1" id="Layer_1" xmlns="http://www.w3.org/2000/svg" xmlns:xlink="http://www.w3.org/1999/xlink" x="0px" y="0px"
	 width="64px" height="64px" viewBox="0 0 64 64" enable-background="new 0 0 64 64" xml:space="preserve">
<g>
	<linearGradient id="SVGID_1_" gradientUnits="userSpaceOnUse" x1="11.251" y1="11.251" x2="53.5011" y2="53.5011">
		<stop  offset="0" style="stop-color:#2198D4"/>
		<stop  offset="1" style="stop-color:#263981"/>
	</linearGradient>
	<path fill="url(#SVGID_1_)" d="M53.92,10.08C48.065,4.225,40.28,1,32,1s-16.065,3.225-21.92,9.08C4.225,15.935,1,23.72,1,32
		s3.225,16.065,9.08,21.92C15.935,59.775,23.72,63,32,63s16.065-3.225,21.92-9.08C59.775,48.065,63,40.28,63,32
		S59.775,15.935,53.92,10.08z M32,57.991C17.668,57.991,6.009,46.332,6.009,32S17.668,6.009,32,6.009
		c14.331,0,25.991,11.66,25.991,25.991S46.331,57.991,32,57.991z"/>
	<linearGradient id="SVGID_2_" gradientUnits="userSpaceOnUse" x1="15.6006" y1="7.0522" x2="57.7484" y2="49.2">
		<stop  offset="0" style="stop-color:#2198D4"/>
		<stop  offset="1" style="stop-color:#263981"/>
	</linearGradient>
	<path fill="url(#SVGID_2_)" d="M34.505,30.963V14.902c0-1.383-1.122-2.504-2.505-2.504s-2.505,1.122-2.505,2.504V32
		c0,0.665,0.264,1.301,0.734,1.771l8.548,8.549c0.489,0.489,1.13,0.733,1.771,0.733c0.641,0,1.281-0.245,1.771-0.734
		c0.979-0.978,0.979-2.563,0-3.542L34.505,30.963z"/>
</g>
</svg>
