<?xml version="1.0" encoding="utf-8"?>
<!-- Generator: Adobe Illustrator 16.0.0, SVG Export Plug-In . SVG Version: 6.00 Build 0)  -->
<!DOCTYPE svg PUBLIC "-//W3C//DTD SVG 1.1//EN" "http://www.w3.org/Graphics/SVG/1.1/DTD/svg11.dtd">
<svg version="1.1" id="Layer_1" xmlns="http://www.w3.org/2000/svg" xmlns:xlink="http://www.w3.org/1999/xlink" x="0px" y="0px"
	 width="64px" height="64px" viewBox="0 0 64 64" enable-background="new 0 0 64 64" xml:space="preserve">
<g>
	<linearGradient id="SVGID_1_" gradientUnits="userSpaceOnUse" x1="-1.1362" y1="10.5356" x2="54.1376" y2="65.8095">
		<stop  offset="0" style="stop-color:#2198D4"/>
		<stop  offset="1" style="stop-color:#263981"/>
	</linearGradient>
	<path fill="url(#SVGID_1_)" d="M25.442,28.396h-7.75c-0.534,0-0.969,0.435-0.969,0.969v7.749c0,0.535,0.435,0.969,0.969,0.969h7.75
		c0.534,0,0.969-0.434,0.969-0.969v-7.749C26.411,28.83,25.976,28.396,25.442,28.396z M24.473,36.145h-5.813v-5.812h5.813V36.145z"
		/>
	<linearGradient id="SVGID_2_" gradientUnits="userSpaceOnUse" x1="5.6729" y1="3.0869" x2="60.9425" y2="58.3566">
		<stop  offset="0" style="stop-color:#2198D4"/>
		<stop  offset="1" style="stop-color:#263981"/>
	</linearGradient>
	<path fill="url(#SVGID_2_)" d="M31.95,38.082h7.75c0.533,0,0.969-0.434,0.969-0.969v-7.749c0-0.534-0.436-0.969-0.969-0.969h-7.75
		c-0.534,0-0.969,0.435-0.969,0.969v7.749C30.981,37.648,31.416,38.082,31.95,38.082z M32.918,30.333h5.813v5.812h-5.813V30.333z"/>
	<linearGradient id="SVGID_3_" gradientUnits="userSpaceOnUse" x1="-7.6465" y1="17.666" x2="47.6273" y2="72.9398">
		<stop  offset="0" style="stop-color:#2198D4"/>
		<stop  offset="1" style="stop-color:#263981"/>
	</linearGradient>
	<path fill="url(#SVGID_3_)" d="M25.442,42.035h-7.75c-0.534,0-0.969,0.437-0.969,0.969v7.75c0,0.535,0.435,0.969,0.969,0.969h7.75
		c0.534,0,0.969-0.434,0.969-0.969v-7.75C26.411,42.472,25.976,42.035,25.442,42.035z M24.473,49.785h-5.813v-5.813h5.813V49.785z"
		/>
	<linearGradient id="SVGID_4_" gradientUnits="userSpaceOnUse" x1="-0.8354" y1="10.2153" x2="54.4342" y2="65.485">
		<stop  offset="0" style="stop-color:#2198D4"/>
		<stop  offset="1" style="stop-color:#263981"/>
	</linearGradient>
	<path fill="url(#SVGID_4_)" d="M39.703,42.035h-7.75c-0.533,0-0.969,0.437-0.969,0.969v7.75c0,0.535,0.436,0.969,0.969,0.969h7.75
		c0.534,0,0.969-0.434,0.969-0.969v-7.75C40.672,42.472,40.237,42.035,39.703,42.035z M38.734,49.785h-5.813v-5.813h5.813V49.785z"
		/>
	<linearGradient id="SVGID_5_" gradientUnits="userSpaceOnUse" x1="12.4771" y1="-4.3657" x2="67.7509" y2="50.9081">
		<stop  offset="0" style="stop-color:#2198D4"/>
		<stop  offset="1" style="stop-color:#263981"/>
	</linearGradient>
	<path fill="url(#SVGID_5_)" d="M53.957,28.396h-7.75c-0.534,0-0.969,0.435-0.969,0.969v7.749c0,0.535,0.435,0.969,0.969,0.969h7.75
		c0.534,0,0.969-0.434,0.969-0.969v-7.749C54.926,28.83,54.491,28.396,53.957,28.396z M52.988,36.145h-5.813v-5.812h5.813V36.145z"
		/>
	<linearGradient id="SVGID_6_" gradientUnits="userSpaceOnUse" x1="5.9658" y1="2.7637" x2="61.2397" y2="58.0375">
		<stop  offset="0" style="stop-color:#2198D4"/>
		<stop  offset="1" style="stop-color:#263981"/>
	</linearGradient>
	<path fill="url(#SVGID_6_)" d="M53.957,42.035h-7.75c-0.534,0-0.969,0.437-0.969,0.969v7.75c0,0.535,0.435,0.969,0.969,0.969h7.75
		c0.534,0,0.969-0.434,0.969-0.969v-7.75C54.926,42.472,54.491,42.035,53.957,42.035z M52.988,49.785h-5.813v-5.813h5.813V49.785z"
		/>
	<linearGradient id="SVGID_7_" gradientUnits="userSpaceOnUse" x1="4.4375" y1="4.4375" x2="57.7164" y2="57.7164">
		<stop  offset="0" style="stop-color:#2198D4"/>
		<stop  offset="1" style="stop-color:#263981"/>
	</linearGradient>
	<path fill="url(#SVGID_7_)" d="M3.066,48.532V7.199c0-1.142,0.926-2.066,2.067-2.066h45.467c1.142,0,2.066,0.925,2.066,2.066v2.067
		h2.066V7.199c0-2.282-1.851-4.133-4.132-4.133H5.134C2.851,3.066,1,4.917,1,7.199v41.333c0,2.282,1.851,4.135,4.134,4.135H7.2
		v-2.066H5.134C3.992,50.601,3.066,49.675,3.066,48.532z"/>
	<linearGradient id="SVGID_8_" gradientUnits="userSpaceOnUse" x1="3.4463" y1="5.5117" x2="58.7438" y2="60.8092">
		<stop  offset="0" style="stop-color:#2198D4"/>
		<stop  offset="1" style="stop-color:#263981"/>
	</linearGradient>
	<rect x="5.134" y="7.199" fill="url(#SVGID_8_)" width="2.066" height="2.067"/>
	<linearGradient id="SVGID_9_" gradientUnits="userSpaceOnUse" x1="5.4214" y1="3.354" x2="60.6819" y2="58.6146">
		<stop  offset="0" style="stop-color:#2198D4"/>
		<stop  offset="1" style="stop-color:#263981"/>
	</linearGradient>
	<rect x="9.267" y="7.199" fill="url(#SVGID_9_)" width="2.066" height="2.067"/>
	<linearGradient id="SVGID_10_" gradientUnits="userSpaceOnUse" x1="7.395" y1="1.1948" x2="62.6555" y2="56.4553">
		<stop  offset="0" style="stop-color:#2198D4"/>
		<stop  offset="1" style="stop-color:#263981"/>
	</linearGradient>
	<rect x="13.399" y="7.199" fill="url(#SVGID_10_)" width="2.067" height="2.067"/>
	<linearGradient id="SVGID_11_" gradientUnits="userSpaceOnUse" x1="4.4971" y1="4.4961" x2="59.6665" y2="59.6656">
		<stop  offset="0" style="stop-color:#2198D4"/>
		<stop  offset="1" style="stop-color:#263981"/>
	</linearGradient>
	<path fill="url(#SVGID_11_)" d="M58.866,11.332H13.399c-2.282,0-4.132,1.851-4.132,4.134v41.333c0,2.283,1.851,4.135,4.132,4.135
		h45.467c2.283,0,4.134-1.852,4.134-4.135V15.466C63,13.183,61.149,11.332,58.866,11.332z M60.934,56.799
		c0,1.143-0.926,2.066-2.067,2.066H13.399c-1.142,0-2.066-0.924-2.066-2.066V15.466c0-1.142,0.924-2.067,2.066-2.067h45.467
		c1.142,0,2.067,0.926,2.067,2.067V56.799z"/>
	<linearGradient id="SVGID_12_" gradientUnits="userSpaceOnUse" x1="3.4541" y1="5.5195" x2="58.6962" y2="60.7616">
		<stop  offset="0" style="stop-color:#2198D4"/>
		<stop  offset="1" style="stop-color:#263981"/>
	</linearGradient>
	<rect x="13.399" y="15.466" fill="url(#SVGID_12_)" width="2.067" height="2.066"/>
	<linearGradient id="SVGID_13_" gradientUnits="userSpaceOnUse" x1="5.416" y1="3.3486" x2="60.7135" y2="58.6461">
		<stop  offset="0" style="stop-color:#2198D4"/>
		<stop  offset="1" style="stop-color:#263981"/>
	</linearGradient>
	<rect x="17.533" y="15.466" fill="url(#SVGID_13_)" width="2.067" height="2.066"/>
	<linearGradient id="SVGID_14_" gradientUnits="userSpaceOnUse" x1="7.3979" y1="1.1978" x2="62.6585" y2="56.4583">
		<stop  offset="0" style="stop-color:#2198D4"/>
		<stop  offset="1" style="stop-color:#263981"/>
	</linearGradient>
	<rect x="21.667" y="15.466" fill="url(#SVGID_14_)" width="2.066" height="2.066"/>
	<linearGradient id="SVGID_15_" gradientUnits="userSpaceOnUse" x1="12.7969" y1="-2.7031" x2="65.8798" y2="50.3798">
		<stop  offset="0" style="stop-color:#2198D4"/>
		<stop  offset="1" style="stop-color:#263981"/>
	</linearGradient>
	<rect x="13.399" y="19.6" fill="url(#SVGID_15_)" width="45.467" height="2.066"/>
</g>
</svg>
