<svg xmlns="http://www.w3.org/2000/svg" xmlns:xlink="http://www.w3.org/1999/xlink" width="638.02" height="644.08" viewBox="0 0 638.02 644.08">
  <defs>
    <linearGradient id="linear-gradient" x1="0.85" y1="1.25" x2="0.15" y2="-0.25" gradientUnits="objectBoundingBox">
      <stop offset="0" stop-color="#253a83"/>
      <stop offset="1" stop-color="#2098d5"/>
    </linearGradient>
    <filter id="Ellipse_1_copy_7" x="0" y="0" width="233.02" height="233.08" filterUnits="userSpaceOnUse">
      <feOffset dy="17" input="SourceAlpha"/>
      <feGaussianBlur stdDeviation="17.5" result="blur"/>
      <feFlood flood-opacity="0.039"/>
      <feComposite operator="in" in2="blur"/>
      <feComposite in="SourceGraphic"/>
    </filter>
    <filter id="Ellipse_1_copy_8" x="0" y="411" width="233.02" height="233.08" filterUnits="userSpaceOnUse">
      <feOffset dy="17" input="SourceAlpha"/>
      <feGaussianBlur stdDeviation="17.5" result="blur-2"/>
      <feFlood flood-opacity="0.039"/>
      <feComposite operator="in" in2="blur-2"/>
      <feComposite in="SourceGraphic"/>
    </filter>
    <filter id="Ellipse_1_copy_9" x="405" y="0" width="233.02" height="233.08" filterUnits="userSpaceOnUse">
      <feOffset dy="17" input="SourceAlpha"/>
      <feGaussianBlur stdDeviation="17.5" result="blur-3"/>
      <feFlood flood-opacity="0.039"/>
      <feComposite operator="in" in2="blur-3"/>
      <feComposite in="SourceGraphic"/>
    </filter>
    <filter id="Ellipse_1_copy_9-2" x="405" y="411" width="233.02" height="233.08" filterUnits="userSpaceOnUse">
      <feOffset dy="17" input="SourceAlpha"/>
      <feGaussianBlur stdDeviation="17.5" result="blur-4"/>
      <feFlood flood-opacity="0.039"/>
      <feComposite operator="in" in2="blur-4"/>
      <feComposite in="SourceGraphic"/>
    </filter>
    <linearGradient id="linear-gradient-2" x1="0.224" y1="0.011" x2="0.775" y2="0.754" gradientUnits="objectBoundingBox">
      <stop offset="0" stop-color="#0087cc"/>
      <stop offset="1" stop-color="#042e70"/>
    </linearGradient>
    <linearGradient id="linear-gradient-3" x1="-19.348" y1="-19.358" x2="2.434" y2="2.435" xlink:href="#linear-gradient-2"/>
    <linearGradient id="linear-gradient-4" x1="-1.68" y1="-1.68" x2="20.106" y2="20.116" xlink:href="#linear-gradient-2"/>
    <linearGradient id="linear-gradient-5" x1="-26.95" y1="-8.647" x2="30.28" y2="10.424" xlink:href="#linear-gradient-2"/>
    <linearGradient id="linear-gradient-6" x1="-1.183" y1="-1.183" x2="0.784" y2="0.784" xlink:href="#linear-gradient-2"/>
    <linearGradient id="linear-gradient-7" x1="-0.222" y1="-0.222" x2="6.731" y2="6.731" xlink:href="#linear-gradient-2"/>
    <linearGradient id="linear-gradient-8" x1="0.296" y1="0.296" x2="2.263" y2="2.263" xlink:href="#linear-gradient-2"/>
    <linearGradient id="linear-gradient-9" x1="0.222" y1="0.111" x2="0.855" y2="0.842" xlink:href="#linear-gradient-2"/>
    <linearGradient id="linear-gradient-10" x1="-7.72" y1="-7.721" x2="20.888" y2="20.889" xlink:href="#linear-gradient-2"/>
    <linearGradient id="linear-gradient-11" x1="-5.72" y1="-5.72" x2="22.889" y2="22.89" xlink:href="#linear-gradient-2"/>
    <linearGradient id="linear-gradient-12" x1="-3.72" y1="-3.72" x2="24.889" y2="24.89" xlink:href="#linear-gradient-2"/>
    <linearGradient id="linear-gradient-13" x1="-14.632" y1="-14.625" x2="14.915" y2="14.908" xlink:href="#linear-gradient-2"/>
    <linearGradient id="linear-gradient-14" x1="0.066" y1="0.166" x2="0.913" y2="1.013" xlink:href="#linear-gradient-2"/>
    <linearGradient id="linear-gradient-15" x1="-0.126" y1="-7.646" x2="1.097" y2="8.26" xlink:href="#linear-gradient-2"/>
    <linearGradient id="linear-gradient-16" x1="-0.16" y1="-7.424" x2="1.173" y2="8.577" xlink:href="#linear-gradient-2"/>
    <linearGradient id="linear-gradient-17" x1="-0.414" y1="-8.642" x2="1.21" y2="7.598" xlink:href="#linear-gradient-2"/>
    <linearGradient id="linear-gradient-18" x1="-8.123" y1="-8.123" x2="21.403" y2="21.402" xlink:href="#linear-gradient-2"/>
    <linearGradient id="linear-gradient-19" x1="-10.13" y1="-10.125" x2="19.416" y2="19.408" xlink:href="#linear-gradient-2"/>
    <linearGradient id="linear-gradient-20" x1="-12.123" y1="-12.122" x2="17.404" y2="17.403" xlink:href="#linear-gradient-2"/>
    <linearGradient id="linear-gradient-21" x1="-9.63" y1="-9.625" x2="19.917" y2="19.908" xlink:href="#linear-gradient-2"/>
    <linearGradient id="linear-gradient-22" x1="-2.608" y1="-1.934" x2="5.504" y2="4.044" xlink:href="#linear-gradient-2"/>
    <linearGradient id="linear-gradient-23" x1="-4.701" y1="-3.189" x2="3.411" y2="2.789" xlink:href="#linear-gradient-2"/>
    <linearGradient id="linear-gradient-24" x1="-3.29" y1="-1.567" x2="4.111" y2="2.469" xlink:href="#linear-gradient-2"/>
    <linearGradient id="linear-gradient-25" x1="-0.214" y1="-7.627" x2="0.937" y2="5.473" xlink:href="#linear-gradient-2"/>
    <linearGradient id="linear-gradient-26" x1="-3.088" y1="-3.086" x2="14.788" y2="14.783" xlink:href="#linear-gradient-2"/>
    <linearGradient id="linear-gradient-27" x1="-1.788" y1="-1.788" x2="16.08" y2="16.081" xlink:href="#linear-gradient-2"/>
    <linearGradient id="linear-gradient-28" x1="-4.389" y1="-4.387" x2="13.497" y2="13.492" xlink:href="#linear-gradient-2"/>
    <linearGradient id="linear-gradient-29" x1="0.015" y1="0.016" x2="0.895" y2="0.973" xlink:href="#linear-gradient-2"/>
    <linearGradient id="linear-gradient-30" x1="-0.302" y1="-1.037" x2="2.644" y2="3.947" xlink:href="#linear-gradient-2"/>
    <linearGradient id="linear-gradient-31" x1="-1.638" y1="-3.295" x2="1.309" y2="1.689" xlink:href="#linear-gradient-2"/>
    <linearGradient id="linear-gradient-32" x1="-1.943" y1="-1.944" x2="15.925" y2="15.931" xlink:href="#linear-gradient-2"/>
    <linearGradient id="linear-gradient-33" x1="0.014" y1="-4.715" x2="1.237" y2="8.417" xlink:href="#linear-gradient-2"/>
    <linearGradient id="linear-gradient-34" x1="-1.12" y1="-5.899" x2="2.417" y2="8.072" xlink:href="#linear-gradient-2"/>
    <linearGradient id="linear-gradient-35" x1="-0.064" y1="-2.547" x2="2.455" y2="11.067" xlink:href="#linear-gradient-2"/>
  </defs>
  <g id="Group_52" data-name="Group 52" transform="translate(-640.5 -3397.5)">
    <g id="Ellipse_4_copy" data-name="Ellipse 4 copy" transform="translate(763.54 3509.86)" fill="rgba(255,255,255,0)" stroke="#898989" stroke-linecap="square" stroke-width="2.083" stroke-dasharray="2.083 6.25" opacity="0.502">
      <circle cx="194.31" cy="194.31" r="194.31" stroke="none"/>
      <circle cx="194.31" cy="194.31" r="195.352" fill="none"/>
    </g>
    <ellipse id="Ellipse_4_copy_2" data-name="Ellipse 4 copy 2" cx="112.53" cy="112.55" rx="112.53" ry="112.55" transform="translate(845.33 3591.62)" fill="url(#linear-gradient)"/>
    <g id="Ellipse_4_copy_3" data-name="Ellipse 4 copy 3" transform="translate(855.99 3601.99)" fill="rgba(255,255,255,0)" stroke="#fff" stroke-linejoin="round" stroke-width="2">
      <circle cx="102" cy="102" r="102" stroke="none"/>
      <circle cx="102" cy="102" r="103" fill="none"/>
    </g>
    <path id="Shape_6_copy" data-name="Shape 6 copy" d="M828.312,3449.092s116.338-71.694,261.609,0" fill="none" stroke="#898989" stroke-linecap="square" stroke-width="2.083" stroke-dasharray="2.083 6.25" opacity="0.502"/>
    <path id="Shape_6_copy_2" data-name="Shape 6 copy 2" d="M1087.814,3957.9s-116.31,71.509-261.548,0" fill="none" stroke="#898989" stroke-linecap="square" stroke-width="2.083" stroke-dasharray="2.083 6.25" opacity="0.502"/>
    <path id="Shape_6_copy_3" data-name="Shape 6 copy 3" d="M703.178,3833.6s-71.679-116.215,0-261.333" fill="none" stroke="#898989" stroke-linecap="square" stroke-width="2.083" stroke-dasharray="2.083 6.25" opacity="0.502"/>
    <path id="Shape_6_copy_3-2" data-name="Shape 6 copy 3" d="M1211.881,3574.369s71.493,116.188,0,261.272" fill="none" stroke="#898989" stroke-linecap="square" stroke-width="2.083" stroke-dasharray="2.083 6.25" opacity="0.502"/>
    <g transform="matrix(1, 0, 0, 1, 640.5, 3397.5)" filter="url(#Ellipse_1_copy_7)">
      <ellipse id="Ellipse_1_copy_7-2" data-name="Ellipse 1 copy 7" cx="64.01" cy="64.04" rx="64.01" ry="64.04" transform="translate(52.5 35.5)" fill="#fff"/>
    </g>
    <g transform="matrix(1, 0, 0, 1, 640.5, 3397.5)" filter="url(#Ellipse_1_copy_8)">
      <ellipse id="Ellipse_1_copy_8-2" data-name="Ellipse 1 copy 8" cx="64.01" cy="64.04" rx="64.01" ry="64.04" transform="translate(52.5 446.5)" fill="#fff"/>
    </g>
    <g transform="matrix(1, 0, 0, 1, 640.5, 3397.5)" filter="url(#Ellipse_1_copy_9)">
      <ellipse id="Ellipse_1_copy_9-3" data-name="Ellipse 1 copy 9" cx="64.01" cy="64.04" rx="64.01" ry="64.04" transform="translate(457.5 35.5)" fill="#fff"/>
    </g>
    <g transform="matrix(1, 0, 0, 1, 640.5, 3397.5)" filter="url(#Ellipse_1_copy_9-2)">
      <ellipse id="Ellipse_1_copy_9-4" data-name="Ellipse 1 copy 9" cx="64.01" cy="64.04" rx="64.01" ry="64.04" transform="translate(457.5 446.5)" fill="#fff"/>
    </g>
    <g id="Vector_Smart_Object" data-name="Vector Smart Object">
      <g id="Vector_Smart_Object-2" data-name="Vector Smart Object" transform="translate(147.579 3473.534)">
        <g id="Group_43" data-name="Group 43">
          <path id="Path_70" data-name="Path 70" d="M832.111,201.466l12.9,26.881-19.85,32.119H795.68Z" fill="#0088cd"/>
          <path id="Path_71" data-name="Path 71" d="M780.761,251.049l16-25.88L802.8,237.8l6.452-10.458-12.4-25.872-36.433,59h28.391l5.813-9.417Z" fill="#042c70"/>
          <path id="Path_72" data-name="Path 72" d="M832.029,260.466l16-25.881,12.4,25.881Z" fill="#042c70"/>
        </g>
      </g>
      <path id="Color_Overlay" data-name="Color Overlay" d="M979.609,3734l16-25.88L1008,3734Zm-36.351,0,36.431-59,12.9,26.881L972.742,3734ZM908,3734l36.434-59,12.4,25.872-6.451,10.457-6.041-12.626-16,25.88H942.2L936.391,3734Z" fill="#fff"/>
    </g>
    <path id="Rectangle_9" data-name="Rectangle 9" d="M1084.961,3438.445l6.434,11.246-12.949-.429" fill="#c5c5c5"/>
    <path id="Rectangle_9_copy" data-name="Rectangle 9 copy" d="M1221.959,3829.176l-9.381,8.937-2.68-12.677" fill="#c5c5c5"/>
    <path id="Rectangle_9_copy_2" data-name="Rectangle 9 copy 2" d="M828.163,3967.691l-6.246-11.352,12.94.645" fill="#c5c5c5"/>
    <path id="Rectangle_9_copy_3" data-name="Rectangle 9 copy 3" d="M691.955,3578.428l11.267-6.4-.472,12.948" fill="#c5c5c5"/>
    <g id="Group_48" data-name="Group 48" transform="translate(476.883 3346.491)">
      <path id="Path_94" data-name="Path 94" d="M304.889,145.1l-10.968-10.967,4.761-4.761,10.967,10.967-4.76,4.761Zm-5.755,3.236a4.8,4.8,0,0,0-1.347,2.548,14.012,14.012,0,0,1-3.9,7.462l-.786.786-6.466-6.467c.14.011.281.018.424.018a5.232,5.232,0,0,0,1.991-.388,1.022,1.022,0,0,0-.774-1.892c-2.631,1.076-5.784-1.89-6.135-2.232l-.018-.017-.036-.036h0l-.031-.031h0l-.86-.861.975-.976a1.022,1.022,0,0,0-1.445-1.446l-1.7,1.7,0,0,0,0-3.9,3.9a2.055,2.055,0,1,1-2.906-2.906l6.732-6.731a6.755,6.755,0,0,1,4.788-1.985,6.82,6.82,0,0,1,2.8.6,5.25,5.25,0,0,0,5.856-1.042l1.423-1.423,8.367,8.366-3.05,3.05ZM292.7,163.583a1.391,1.391,0,0,1-1.968,0l-9.916-9.914a1.022,1.022,0,0,0-1.445,1.446l10.681,10.68a1.392,1.392,0,0,1-1.969,1.969l-1.8-1.8-.03-.031-.01-.009-8.283-8.283a1.022,1.022,0,1,0-1.445,1.446l8.309,8.31a1.392,1.392,0,0,1-.013,1.954,1.392,1.392,0,0,1-1.968,0l-9.01-9.011a1.022,1.022,0,1,0-1.446,1.445l6.679,6.68.005.006a1.392,1.392,0,0,1-.985,2.375,1.357,1.357,0,0,1-.264-.026,3.677,3.677,0,0,0-3.636-4.223c-.028,0-.055,0-.082,0a3.675,3.675,0,0,0-3.675-3.76c-.062,0-.123,0-.184.005a3.675,3.675,0,0,0-4.5-3.765l-.733-.732a14.028,14.028,0,0,1-3.882-7.37,5.153,5.153,0,0,0-1.436-2.713l-1.8-1.8,10.251-10.252,2.555,2.555a5.211,5.211,0,0,0,3.688,1.507,5.357,5.357,0,0,0,1.831-.322,4.818,4.818,0,0,1,.893-.229l-6.329,6.329a4.1,4.1,0,0,0,5.8,5.8l3.179-3.179.861.86h0l.036.036.035.035h0l.029.028L292.7,161.615a1.392,1.392,0,0,1,0,1.968Zm-17.361,7.848a1.633,1.633,0,1,1,0-2.313,1.624,1.624,0,0,1,0,2.313Zm-4.913-3.28a1.634,1.634,0,1,1,1.156-.478,1.624,1.624,0,0,1-1.156.478Zm-5.011-4.334a1.634,1.634,0,1,1,2.311,0,1.623,1.623,0,0,1-2.311,0Zm-14.826-22.468,12.372-12.371,4.76,4.76-12.371,12.371-4.761-4.76Zm61.233-1.734L299.4,127.2a1.022,1.022,0,0,0-1.445,0l-6.206,6.206a1.022,1.022,0,0,0,0,1.445l.619.62-1.423,1.423a3.2,3.2,0,0,1-3.566.625,8.891,8.891,0,0,0-3.645-.786,8.794,8.794,0,0,0-4.226,1.079,6.9,6.9,0,0,0-4,.213,3.181,3.181,0,0,1-3.376-.709l-2.554-2.554.3-.3a1.022,1.022,0,0,0,0-1.445l-6.207-6.207a1.02,1.02,0,0,0-1.445,0l-13.817,13.817a1.022,1.022,0,0,0,0,1.445l6.207,6.206a1.02,1.02,0,0,0,1.445,0l.37-.37,1.8,1.8a3.124,3.124,0,0,1,.871,1.641,16.058,16.058,0,0,0,4.447,8.441l.339.339a3.676,3.676,0,0,0,2.668,6.208c.062,0,.123,0,.184-.005a3.675,3.675,0,0,0,3.673,3.862l.082,0a3.676,3.676,0,0,0,6.276,2.682c.059-.058.114-.118.168-.18a3.44,3.44,0,0,0,4.338-2.005l.1.1a3.44,3.44,0,0,0,5.652-1.234,3.436,3.436,0,0,0,5.456-2.782,3.477,3.477,0,0,0-.1-.812,3.437,3.437,0,0,0,2.111-5.356l.819-.82a16.053,16.053,0,0,0,4.467-8.546,2.747,2.747,0,0,1,.78-1.464l3.05-3.05.536.537a1.022,1.022,0,0,0,1.445,0l6.206-6.207a1.02,1.02,0,0,0,0-1.445Z" fill="url(#linear-gradient-2)"/>
      <path id="Path_95" data-name="Path 95" d="M305.918,140.1a1.022,1.022,0,1,1-1.023,1.022,1.023,1.023,0,0,1,1.023-1.022Z" fill="url(#linear-gradient-3)"/>
      <path id="Path_96" data-name="Path 96" d="M254.813,141.107a1.022,1.022,0,1,1-1.023,1.023,1.023,1.023,0,0,1,1.023-1.023Z" fill="url(#linear-gradient-4)"/>
    </g>
    <g id="Group_49" data-name="Group 49" transform="translate(726.594 3353.849)">
      <path id="Path_97" data-name="Path 97" d="M434.34,111.151h2.133v6.4H434.34v-6.4Z" fill="url(#linear-gradient-5)"/>
      <path id="Path_98" data-name="Path 98" d="M454.918,122.132l5.332-5.333,1.509,1.509-5.332,5.332-1.509-1.508Z" fill="url(#linear-gradient-6)"/>
      <path id="Path_99" data-name="Path 99" d="M409.052,118.306l1.509-1.509,5.332,5.332-1.509,1.509-5.332-5.332Z" fill="url(#linear-gradient-7)"/>
      <path id="Path_100" data-name="Path 100" d="M409.051,167.992l5.333-5.332,1.508,1.508L410.56,169.5l-1.509-1.509Z" fill="url(#linear-gradient-8)"/>
      <path id="Path_101" data-name="Path 101" d="M458.873,153.818a1.067,1.067,0,0,0-1.067,1.067v8.467a8.547,8.547,0,0,1-7.466-8.467,1.068,1.068,0,0,0-1.068-1.067h-9.6v-5.83L448.8,141.9a1.065,1.065,0,0,0,.474-.886v-3.2a6.343,6.343,0,0,0-1.92-4.563l-.746.761.746-.762a6.364,6.364,0,0,0-8.212-.621,6.344,6.344,0,0,0-7.467,0,6.341,6.341,0,0,0-3.734-1.215,6.406,6.406,0,0,0-6.4,6.4v3.2a1.066,1.066,0,0,0,.475.887l9.125,6.082v5.83h-19.2a6.4,6.4,0,0,1-2.7-12.194,1.066,1.066,0,0,0,.457-1.526,6.39,6.39,0,0,1,7.458-9.418,1.067,1.067,0,0,0,1.373-.763,6.382,6.382,0,0,1,9.562-3.945,1.067,1.067,0,0,0,1.526-.458,6.388,6.388,0,0,1,11.587,0,1.075,1.075,0,0,0,.66.571,1.064,1.064,0,0,0,.867-.113,6.38,6.38,0,0,1,9.561,3.944,1.068,1.068,0,0,0,.519.683,1.056,1.056,0,0,0,.853.08,6.388,6.388,0,0,1,7.458,9.418,1.068,1.068,0,0,0,.457,1.526,6.4,6.4,0,0,1-2.7,12.194Zm-18.134,3.734a1.6,1.6,0,0,1-1.6,1.6h-7.467a1.6,1.6,0,1,1,0-3.2h7.467a1.6,1.6,0,0,1,1.6,1.6Zm0,5.333a1.6,1.6,0,0,1-1.6,1.6h-7.467a1.6,1.6,0,1,1,0-3.2h7.467a1.6,1.6,0,0,1,1.6,1.6Zm0,5.333a1.6,1.6,0,0,1-1.6,1.6h-7.467a1.6,1.6,0,1,1,0-3.2h7.467a1.6,1.6,0,0,1,1.6,1.6Zm-5.333,4.8a2.127,2.127,0,0,1-1.837-1.068h3.674a2.127,2.127,0,0,1-1.837,1.068Zm3.945-36.823a4.271,4.271,0,0,1,.215.7c.012.055.023.11.033.167a3.878,3.878,0,0,1,0,1.508c-.01.057-.021.113-.033.167a4.242,4.242,0,0,1-.215.7c-.013.031-.03.06-.043.091-.047.107-.112.2-.167.306-.056-.1-.12-.2-.167-.306-.014-.031-.031-.062-.044-.092a4.374,4.374,0,0,1-.216-.7c-.012-.055-.023-.11-.031-.166a4.19,4.19,0,0,1-.077-.754,4.37,4.37,0,0,1,.075-.754c.009-.055.02-.112.032-.167a4.287,4.287,0,0,1,.216-.7c.012-.032.031-.062.045-.094.046-.105.11-.2.166-.305.055.1.119.2.166.305.014.031.031.061.045.092Zm-9.219-1.995a6.283,6.283,0,0,0-.43.727c-.03.059-.058.119-.086.179a6.6,6.6,0,0,0-.3.742c-.006.021-.015.042-.021.063a6.459,6.459,0,0,0-.194.833c-.011.068-.021.134-.03.2a6.1,6.1,0,0,0-.067.87,6.347,6.347,0,0,0,1.92,4.564,1.062,1.062,0,0,0,1.492,0,6.278,6.278,0,0,0,1.854-5.436c-.009-.068-.018-.135-.03-.2a6.492,6.492,0,0,0-.192-.833c-.007-.021-.017-.042-.023-.063a6.236,6.236,0,0,0-.3-.742c-.029-.06-.056-.12-.086-.179a6.566,6.566,0,0,0-.429-.727.24.24,0,0,0-.018-.03,4.331,4.331,0,0,1,4.419,0l-.017.03a6.132,6.132,0,0,0-.429.727c-.031.059-.059.119-.087.179a6.584,6.584,0,0,0-.3.742c-.007.021-.017.042-.022.063a6.3,6.3,0,0,0-.194.833c-.012.067-.021.134-.03.2a6.01,6.01,0,0,0-.069.872,6.348,6.348,0,0,0,1.921,4.564,1.064,1.064,0,0,0,1.493,0,6.3,6.3,0,0,0,1.853-5.436c-.01-.068-.018-.135-.03-.2a6.335,6.335,0,0,0-.193-.833c-.006-.021-.016-.042-.022-.063a6.41,6.41,0,0,0-.3-.742c-.029-.06-.056-.12-.086-.179a6.732,6.732,0,0,0-.429-.727.24.24,0,0,0-.018-.03,4.346,4.346,0,0,1,5.195.606h0a4.24,4.24,0,0,1,1.28,3.042v2.629l-9.125,6.083a1.068,1.068,0,0,0-.475.888v6.4h-4.268v-6.4a1.067,1.067,0,0,0-.474-.888l-9.125-6.082v-2.63a4.271,4.271,0,0,1,4.266-4.266,4.216,4.216,0,0,1,2.209.619c-.006.01-.01.02-.016.03Zm1.752,1.995a4.375,4.375,0,0,1,.216.7c.011.055.022.11.032.167a3.878,3.878,0,0,1,0,1.508c-.01.057-.021.113-.032.167a4.343,4.343,0,0,1-.216.7c-.013.031-.03.06-.043.091-.047.107-.112.2-.167.306-.056-.1-.119-.2-.166-.306-.015-.031-.031-.062-.045-.092a4.368,4.368,0,0,1-.216-.7c-.012-.055-.021-.11-.031-.166a4.189,4.189,0,0,1-.076-.754,4.37,4.37,0,0,1,.074-.754c.01-.055.02-.112.032-.167a4.284,4.284,0,0,1,.216-.7c.013-.032.031-.062.045-.094.047-.105.11-.2.166-.305.055.1.119.2.166.305.013.031.031.061.045.092Zm31.574,4.034a8.524,8.524,0,0,0-9.416-11.853,8.515,8.515,0,0,0-11.448-4.745,8.518,8.518,0,0,0-14.375,0,8.516,8.516,0,0,0-11.449,4.745,8.522,8.522,0,0,0-9.416,11.853,8.528,8.528,0,0,0,4.585,15.721h16.374a3.677,3.677,0,0,0,.755,4.267,3.715,3.715,0,0,0,0,5.334,3.713,3.713,0,0,0,2.21,6.36,4.25,4.25,0,0,0,8.256,0,3.713,3.713,0,0,0,2.21-6.36,3.715,3.715,0,0,0,0-5.334,3.677,3.677,0,0,0,.755-4.267h5.761a10.681,10.681,0,0,0,10.613,9.6,1.067,1.067,0,0,0,1.066-1.068v-8.6a8.528,8.528,0,0,0,3.519-15.656Z" fill="url(#linear-gradient-9)"/>
      <path id="Path_102" data-name="Path 102" d="M422.606,158.085h2.133v2.133h-2.133v-2.133Z" fill="url(#linear-gradient-10)"/>
      <path id="Path_103" data-name="Path 103" d="M418.34,158.085h2.133v2.133H418.34v-2.133Z" fill="url(#linear-gradient-11)"/>
      <path id="Path_104" data-name="Path 104" d="M414.073,158.085h2.133v2.133h-2.133v-2.133Z" fill="url(#linear-gradient-12)"/>
    </g>
    <g id="Group_50" data-name="Group 50" transform="translate(726.595 3583.579)">
      <path id="Path_105" data-name="Path 105" d="M434.339,345.754h2.133v2.134h-2.133v-2.134Z" fill="url(#linear-gradient-13)"/>
      <path id="Path_106" data-name="Path 106" d="M465.272,352.154a2.133,2.133,0,0,1-2.132,2.134H407.673a2.133,2.133,0,0,1-2.134-2.134v-2.133h19.825l1.821,1.821a1.065,1.065,0,0,0,.753.312h14.934a1.064,1.064,0,0,0,.754-.312l1.821-1.821h19.825v2.133Zm-57.6-42.667a2.134,2.134,0,0,1,2.133-2.133h6.4v2.133h-5.334a1.067,1.067,0,0,0-1.066,1.068v32a1.066,1.066,0,0,0,1.066,1.066h49.066a1.067,1.067,0,0,0,1.068-1.066v-32a1.068,1.068,0,0,0-1.068-1.068h-5.333v-2.133h6.4a2.134,2.134,0,0,1,2.134,2.133v38.4H445.006a1.07,1.07,0,0,0-.755.311l-1.82,1.822h-14.05L426.56,348.2a1.065,1.065,0,0,0-.754-.311H407.673v-38.4Zm12.8-14.932h29.866a2.132,2.132,0,0,1,2.133,2.133v4.266H418.339v-4.266a2.133,2.133,0,0,1,2.134-2.133Zm-2.134,8.533h34.133v30.933a2.132,2.132,0,0,1-2.133,2.133H420.473a2.133,2.133,0,0,1-2.134-2.133V303.088Zm2.134,35.2h29.866a4.267,4.267,0,0,0,4.266-4.267v-22.4h4.267v29.866H411.938V311.621h4.268v22.4a4.267,4.267,0,0,0,4.267,4.267Zm45.866,9.6h-1.067v-38.4a4.266,4.266,0,0,0-4.266-4.266h-6.4v-8.533a4.266,4.266,0,0,0-4.266-4.267H420.473a4.266,4.266,0,0,0-4.267,4.267v8.533h-6.4a4.267,4.267,0,0,0-4.267,4.266v38.4h-1.066a1.067,1.067,0,0,0-1.068,1.066v3.2a4.267,4.267,0,0,0,4.268,4.267H463.14a4.266,4.266,0,0,0,4.265-4.267v-3.2a1.065,1.065,0,0,0-1.066-1.066Z" fill="url(#linear-gradient-14)"/>
      <path id="Path_107" data-name="Path 107" d="M421.539,326.555h27.733v2.133H421.539v-2.133Z" fill="url(#linear-gradient-15)"/>
      <path id="Path_108" data-name="Path 108" d="M421.539,330.821h25.6v2.133h-25.6v-2.133Z" fill="url(#linear-gradient-16)"/>
      <path id="Path_109" data-name="Path 109" d="M427.938,322.287h21.334v2.134H427.938v-2.134Z" fill="url(#linear-gradient-17)"/>
      <path id="Path_110" data-name="Path 110" d="M420.473,296.688h2.134v2.134h-2.134v-2.134Z" fill="url(#linear-gradient-18)"/>
      <path id="Path_111" data-name="Path 111" d="M424.739,296.688h2.133v2.134h-2.133v-2.134Z" fill="url(#linear-gradient-19)"/>
      <path id="Path_112" data-name="Path 112" d="M429.006,296.688h2.134v2.134h-2.134v-2.134Z" fill="url(#linear-gradient-20)"/>
      <path id="Path_113" data-name="Path 113" d="M423.673,322.287h2.133v2.134h-2.133v-2.134Z" fill="url(#linear-gradient-21)"/>
      <path id="Path_114" data-name="Path 114" d="M430.5,316.741l1.28-1.707-3.129-2.346,3.129-2.347-1.28-1.707-4.267,3.2a1.066,1.066,0,0,0-.213,1.493,1.053,1.053,0,0,0,.213.214l4.267,3.2Z" fill="url(#linear-gradient-22)"/>
      <path id="Path_115" data-name="Path 115" d="M440.312,316.741l4.267-3.2a1.067,1.067,0,0,0,.213-1.493,1.107,1.107,0,0,0-.213-.214l-4.267-3.2-1.28,1.707,3.129,2.347-3.129,2.346,1.28,1.707Z" fill="url(#linear-gradient-23)"/>
      <path id="Path_116" data-name="Path 116" d="M432.282,317.624l4.268-10.666,1.981.793-4.268,10.666-1.98-.793Z" fill="url(#linear-gradient-24)"/>
    </g>
    <g id="Group_51" data-name="Group 51" transform="translate(490.719 3586.157)">
      <path id="Path_117" data-name="Path 117" d="M259.835,299.83h25.9a1.248,1.248,0,1,0,0-2.5h-25.9a1.248,1.248,0,0,0,0,2.5Z" fill="url(#linear-gradient-25)"/>
      <path id="Path_118" data-name="Path 118" d="M246.3,299.83a1.248,1.248,0,1,0-.882-.366,1.258,1.258,0,0,0,.882.366Z" fill="url(#linear-gradient-26)"/>
      <path id="Path_119" data-name="Path 119" d="M241.718,299.83a1.25,1.25,0,1,0-.882-.366,1.258,1.258,0,0,0,.882.366Z" fill="url(#linear-gradient-27)"/>
      <path id="Path_120" data-name="Path 120" d="M250.887,299.83a1.248,1.248,0,1,0-.882-.366,1.258,1.258,0,0,0,.882.366Z" fill="url(#linear-gradient-28)"/>
      <path id="Path_121" data-name="Path 121" d="M239.521,295.338H287.93a2.747,2.747,0,0,1,2.744,2.745v3.743h-53.9v-3.743a2.748,2.748,0,0,1,2.745-2.745Zm25.2,25.306q0-.143,0-.285l2.3,4.434a1.25,1.25,0,0,0,1.108.674h.019a1.25,1.25,0,0,0,1.106-.707l2.718-5.659a1.248,1.248,0,1,0-2.249-1.081l-1.636,3.4-1.779-3.439a1.248,1.248,0,0,0-1.12-.672,12.12,12.12,0,1,1-.465,3.33Zm-21.207,7.382V313.055h20.841a14.518,14.518,0,0,0-2.13,7.589c0,.127,0,.253.005.379l-1.572-3.037a1.248,1.248,0,0,0-2.217,1.148l2.93,5.659a1.24,1.24,0,0,0,1.632.557,14.557,14.557,0,0,0,1.229,2.676Zm54.4,16.782-9.821-9.823,1.54-1.541h0l1.541-1.54,4.852,4.852a1.248,1.248,0,1,0,1.765-1.765l-5.734-5.734a1.25,1.25,0,0,0-1.765,0l-1.542,1.542-.747-.747a14.6,14.6,0,0,0-21.735-19.49h-24a1.247,1.247,0,0,0-1.248,1.247v17.466a1.249,1.249,0,0,0,1.248,1.249H266.08a14.584,14.584,0,0,0,20.162,1.293l.747.746-1.542,1.542a1.247,1.247,0,0,0,0,1.765l5.227,5.228v5.395a2.747,2.747,0,0,1-2.744,2.745H239.521a2.748,2.748,0,0,1-2.745-2.745V304.32h53.9v5.623a1.247,1.247,0,1,0,2.495,0V298.083a5.245,5.245,0,0,0-5.239-5.24H239.521a5.246,5.246,0,0,0-5.24,5.24v48.408a5.246,5.246,0,0,0,5.24,5.24H287.93a5.245,5.245,0,0,0,5.239-5.24v-2.9l2.982,2.981a1.247,1.247,0,0,0,1.764-1.763Z" fill="url(#linear-gradient-29)"/>
      <path id="Path_122" data-name="Path 122" d="M257.09,317.435a1.249,1.249,0,0,0-1.665.585l-1.635,3.4-1.779-3.439a1.248,1.248,0,0,0-2.233.034l-1.635,3.4-1.78-3.439a1.248,1.248,0,0,0-2.216,1.148l2.929,5.659a1.248,1.248,0,0,0,2.233-.033l1.635-3.406,1.78,3.439a1.248,1.248,0,0,0,1.108.674h.019a1.247,1.247,0,0,0,1.1-.707l2.719-5.659a1.248,1.248,0,0,0-.585-1.666Z" fill="url(#linear-gradient-30)"/>
      <path id="Path_123" data-name="Path 123" d="M285.681,317.435a1.248,1.248,0,0,0-1.665.585l-1.635,3.4-1.78-3.439a1.248,1.248,0,0,0-2.233.034l-1.635,3.4-1.78-3.439a1.248,1.248,0,0,0-2.216,1.148l2.929,5.659a1.25,1.25,0,0,0,1.108.674h.019a1.25,1.25,0,0,0,1.106-.707l1.635-3.406,1.78,3.439a1.249,1.249,0,0,0,1.108.674h.019a1.25,1.25,0,0,0,1.106-.707l2.718-5.659a1.249,1.249,0,0,0-.584-1.666Z" fill="url(#linear-gradient-31)"/>
      <path id="Path_124" data-name="Path 124" d="M241.384,340.369a1.248,1.248,0,1,0,.882-.365,1.259,1.259,0,0,0-.882.365Z" fill="url(#linear-gradient-32)"/>
      <path id="Path_125" data-name="Path 125" d="M245.3,341.253a1.247,1.247,0,0,0,1.247,1.247h24.3a1.247,1.247,0,1,0,0-2.495h-24.3a1.247,1.247,0,0,0-1.247,1.248Z" fill="url(#linear-gradient-33)"/>
      <path id="Path_126" data-name="Path 126" d="M266.221,336.511a1.247,1.247,0,0,0,0-2.495h-7.362a1.247,1.247,0,0,0,0,2.495Z" fill="url(#linear-gradient-34)"/>
      <path id="Path_127" data-name="Path 127" d="M253.256,334.016h-10.99a1.247,1.247,0,1,0,0,2.495h10.99a1.247,1.247,0,1,0,0-2.495Z" fill="url(#linear-gradient-35)"/>
    </g>
  </g>
</svg>
