<?xml version="1.0" encoding="utf-8"?>
<!-- Generator: Adobe Illustrator 16.0.0, SVG Export Plug-In . SVG Version: 6.00 Build 0)  -->
<!DOCTYPE svg PUBLIC "-//W3C//DTD SVG 1.1//EN" "http://www.w3.org/Graphics/SVG/1.1/DTD/svg11.dtd">
<svg version="1.1" id="Layer_1" xmlns="http://www.w3.org/2000/svg" xmlns:xlink="http://www.w3.org/1999/xlink" x="0px" y="0px"
	 width="300px" height="300px" viewBox="0 0 300 300" enable-background="new 0 0 300 300" xml:space="preserve">
<path fill="#51619C" d="M26.611,75.562l4.74-4.745L12.089,51.563l19.262-19.256l-4.74-4.745L4.984,49.189
	c-1.312,1.306-1.312,3.439,0,4.747L26.611,75.562z"/>
<rect x="4" y="179.313" fill="#333333" width="217" height="7"/>
<rect x="4" y="244.938" fill="#D8D8D8" width="48.25" height="7"/>
<rect x="247.75" y="179.313" fill="#D8D8D8" width="48.25" height="7"/>
<rect x="67" y="48.063" fill="#333333" width="154" height="7"/>
<rect x="135.25" y="113.688" fill="#333333" width="160.75" height="7"/>
<rect x="4" y="113.688" fill="#D8D8D8" width="104.5" height="7"/>
<rect x="247.75" y="48.063" fill="#D8D8D8" width="48.25" height="7"/>
<rect x="79" y="244.938" fill="#333333" width="154" height="7"/>
<path fill="#51619C" d="M273.4,224.438l-4.738,4.746l19.256,19.254l-19.256,19.254l4.738,4.746l21.621-21.632
	c1.305-1.313,1.305-3.424,0-4.736L273.4,224.438z"/>
</svg>
