<?xml version="1.0" encoding="utf-8"?>
<!-- Generator: Adobe Illustrator 16.0.0, SVG Export Plug-In . SVG Version: 6.00 Build 0)  -->
<!DOCTYPE svg PUBLIC "-//W3C//DTD SVG 1.1//EN" "http://www.w3.org/Graphics/SVG/1.1/DTD/svg11.dtd">
<svg version="1.1" id="Layer_1" xmlns="http://www.w3.org/2000/svg" xmlns:xlink="http://www.w3.org/1999/xlink" x="0px" y="0px"
	 width="420px" height="420px" viewBox="0 0 420 420" enable-background="new 0 0 420 420" xml:space="preserve">
<g>
	<path fill="#333333" d="M209.999,13.733c-108.221,0-196.268,88.047-196.268,196.268c0,108.22,88.047,196.266,196.268,196.266
		S406.267,318.22,406.267,210C406.267,101.779,318.22,13.733,209.999,13.733L209.999,13.733z"/>
	<path fill="#F4F4F4" d="M209.999,389.199c-98.807,0-179.2-80.384-179.2-179.199c0-98.816,80.394-179.2,179.2-179.2
		c98.816,0,179.2,80.384,179.2,179.2C389.199,308.815,308.815,389.199,209.999,389.199L209.999,389.199z"/>
	<path fill="#333333" d="M292.363,31.866c-0.785-0.357-1.613-0.605-2.466-0.717l-1.971-0.265c-3.038-0.436-6.051,0.836-7.902,3.268
		c-1.86,2.432-2.278,5.658-1.101,8.482c5.861,14.012,12.843,42.334,3.917,48.836l-19.78,7.909
		c-14.977,5.99-25.473,19.746-27.393,35.951l-0.128,0.981c-0.469,3.396-3.243,4.317-4.412,4.557
		c-2.115,0.427-4.94-0.085-6.562-2.799l-8.474-14.123c-3.115-5.197-8.867-8.286-14.84-7.919c-6.016,0.307-11.332,3.883-13.893,9.344
		c-7.619,16.273-17.186,39.757-19.506,59.204c-0.718,6.033,0.357,12.126,3.105,17.631l9.839,19.678
		c3.49,6.963,8.841,12.868,15.487,17.066c6.128,3.866,17.486,11.665,24.723,20.403c8.234,9.958,19.327,16.394,31.24,18.313
		c-0.478,15.982,0.572,42.257,11.452,53.861c3.807,4.054,8.576,6.281,13.858,6.46c0.956,0.128,2.637,0.299,4.813,0.299
		c6.332,0,16.905-1.434,26.573-9.421c13.466-11.127,20.369-30.702,20.523-58.188l12.22-55.006l4.642,7.73
		c3.772,6.289,10.078,10.709,17.28,12.126s14.711-0.307,20.591-4.71l18.654-13.995c2.149-1.612,3.413-4.139,3.413-6.826
		C406.267,133.822,361.552,63.9,292.363,31.866L292.363,31.866z"/>
	<path fill="#333333" d="M169.764,328.365l-5.171-5.163c-6.271-6.28-13.594-11.229-21.751-14.729l-26.317-11.281
		c-10.606-4.548-17.459-14.941-17.459-26.486v-12.844c0-7.858-3.856-15.215-10.316-19.694c-6.46-4.472-14.711-5.487-22.067-2.739
		l-40.977,15.359c-4.113,1.546-6.392,5.956-5.248,10.206c19.208,71.535,78.524,127.078,151.116,141.491
		c0.563,0.111,1.127,0.162,1.674,0.162c3.746,0,7.142-2.466,8.209-6.187l3.123-10.94C190.381,365.204,184.706,343.3,169.764,328.365
		L169.764,328.365z"/>
	<path fill="#333333" d="M120.544,43.335c-2.671-3.294-7.355-4.122-11-1.945C53.19,75.036,17.478,134.139,14.022,199.479
		c-0.154,2.894,1.168,5.666,3.516,7.364c1.476,1.075,3.226,1.621,5.001,1.621c1.05,0,2.099-0.196,3.089-0.572l52.932-20.891
		c12.682-5.076,19.227-19.19,14.908-32.145c-1.05-3.166-0.238-6.596,2.116-8.96l24.593-24.593
		c8.396-8.389,13.021-19.551,13.021-31.429V78.773C133.198,65.975,128.702,53.388,120.544,43.335L120.544,43.335z"/>
	<path fill="#52619D" d="M373.958,217.168c-2.048,1.526-4.564,2.099-7.065,1.612c-2.509-0.485-4.617-1.971-5.932-4.164
		l-8.849-14.754c-2.918-4.873-8.414-7.433-14.046-6.519c-5.606,0.912-10.027,5.086-11.264,10.633l-14.199,63.906
		c-0.137,0.605-0.205,1.229-0.205,1.852c0,22.161-4.881,37.999-14.114,45.808c-8.438,7.134-18.091,5.589-18.397,5.547
		c-1.102-0.205-1.938,0.683-3.729-1.229c-5.315-5.675-8.004-25.48-6.536-48.179c0.171-2.697-0.794-5.385-2.645-7.356
		c-1.86-1.987-4.506-3.123-7.236-3.123c-9.565,0-18.893-4.634-25.591-12.715c-8.303-10.044-20.224-18.577-28.758-23.962
		c-4.011-2.534-7.236-6.084-9.326-10.266l-9.84-19.679c-1.254-2.509-1.748-5.273-1.425-7.986
		c2.091-17.459,11.529-39.953,17.399-52.643l7.74,12.895c5.12,8.532,14.771,12.723,24.619,10.734
		c9.549-1.954,16.58-9.387,17.894-18.953l0.18-1.348c1.169-9.941,7.595-18.389,16.768-22.059l20.574-8.227
		c0.427-0.171,0.853-0.384,1.254-0.623c16.213-9.847,14.114-33.417,9.855-50.671c52.848,31.292,86.589,88.175,88.064,150.076
		L373.958,217.168L373.958,217.168z"/>
	<path fill="#52619D" d="M116.132,89.867c0,7.322-2.85,14.191-8.029,19.362l-24.594,24.593c-6.955,6.963-9.344,17.084-6.229,26.419
		c1.468,4.396-0.76,9.183-5.053,10.897l-39.953,15.838c6.631-51.618,35.422-97.81,79.172-126.644
		c3.056,5.676,4.686,12.023,4.686,18.433V89.867L116.132,89.867L116.132,89.867z"/>
	<path fill="#52619D" d="M168.169,380.828l-0.922,3.21C106.976,369.232,57.851,323.212,39.118,263.99l33.554-12.577
		c2.159-0.819,4.472-0.529,6.356,0.784c1.887,1.307,2.971,3.371,2.971,5.666v12.844c0,18.381,10.914,34.935,27.802,42.172
		l26.317,11.28c6.16,2.646,11.682,6.384,16.41,11.11l5.17,5.163C168.254,350.987,172.272,366.467,168.169,380.828L168.169,380.828z"
		/>
</g>
</svg>
