<?xml version="1.0" encoding="utf-8"?>
<!-- Generator: Adobe Illustrator 16.0.0, SVG Export Plug-In . SVG Version: 6.00 Build 0)  -->
<!DOCTYPE svg PUBLIC "-//W3C//DTD SVG 1.1//EN" "http://www.w3.org/Graphics/SVG/1.1/DTD/svg11.dtd">
<svg version="1.1" id="Layer_1" xmlns="http://www.w3.org/2000/svg" xmlns:xlink="http://www.w3.org/1999/xlink" x="0px" y="0px"
	 width="64px" height="64px" viewBox="0 0 64 64" enable-background="new 0 0 64 64" xml:space="preserve">
<g>
	<linearGradient id="SVGID_1_" gradientUnits="userSpaceOnUse" x1="2.3174" y1="27.7471" x2="46.5602" y2="71.9898">
		<stop  offset="0" style="stop-color:#2198D4"/>
		<stop  offset="1" style="stop-color:#263981"/>
	</linearGradient>
	<rect x="30.184" y="55.613" fill="url(#SVGID_1_)" width="3.633" height="3.633"/>
	<linearGradient id="SVGID_2_" gradientUnits="userSpaceOnUse" x1="14.6006" y1="10.8472" x2="58.8433" y2="55.0898">
		<stop  offset="0" style="stop-color:#2198D4"/>
		<stop  offset="1" style="stop-color:#263981"/>
	</linearGradient>
	<rect x="55.734" y="51.98" fill="url(#SVGID_2_)" width="3.633" height="3.633"/>
	<linearGradient id="SVGID_3_" gradientUnits="userSpaceOnUse" x1="-6.9141" y1="40.4336" x2="37.3455" y2="84.6932">
		<stop  offset="0" style="stop-color:#2198D4"/>
		<stop  offset="1" style="stop-color:#263981"/>
	</linearGradient>
	<rect x="4.633" y="51.98" fill="url(#SVGID_3_)" width="3.633" height="3.633"/>
	<linearGradient id="SVGID_4_" gradientUnits="userSpaceOnUse" x1="11.6572" y1="14.145" x2="56.333" y2="58.8208">
		<stop  offset="0" style="stop-color:#2198D4"/>
		<stop  offset="1" style="stop-color:#263981"/>
	</linearGradient>
	<path fill="url(#SVGID_4_)" d="M55.333,19.789c-1.458-6.581-7.376-11.402-14.251-11.402c-1.718,0-3.422,0.322-5.078,0.958
		c-3.049-2.933-7.087-4.591-11.27-4.591c-8.736,0-15.808,6.805-16.425,15.139C3.998,21.396,1,25.514,1,30.184
		c0,6.01,4.89,10.898,10.898,10.898h7.387V51.98h-7.387v3.633h11.02V41.082h7.266V51.98h3.633V41.082h7.266v14.531h11.02V51.98
		h-7.387V41.082h7.387C58.11,41.082,63,36.193,63,30.184C63,25.368,59.844,21.182,55.333,19.789z M52.102,37.449h-7.387v-7.266
		h-3.633v7.266h-7.266v-7.266h-3.633v7.266h-7.266v-7.266h-3.633v7.266h-7.387c-4.006,0-7.266-3.26-7.266-7.266
		c0-3.447,2.449-6.442,5.825-7.119l1.482-0.299c-0.03-1.515-0.013-1.527-0.042-1.759c0.053-6.967,5.791-12.619,12.836-12.619
		c3.582,0,7.035,1.579,9.475,4.332l0.913,1.032l1.24-0.603c1.54-0.748,3.128-1.128,4.72-1.128c5.484,0,10.156,4.078,10.868,9.486
		l0.172,1.309l1.3,0.24c3.445,0.633,5.945,3.633,5.945,7.129C59.367,34.189,56.107,37.449,52.102,37.449z"/>
</g>
</svg>
