<?xml version="1.0" encoding="utf-8"?>
<!-- Generator: Adobe Illustrator 16.0.0, SVG Export Plug-In . SVG Version: 6.00 Build 0)  -->
<!DOCTYPE svg PUBLIC "-//W3C//DTD SVG 1.1//EN" "http://www.w3.org/Graphics/SVG/1.1/DTD/svg11.dtd">
<svg version="1.1" id="Layer_1" xmlns="http://www.w3.org/2000/svg" xmlns:xlink="http://www.w3.org/1999/xlink" x="0px" y="0px"
	 width="64px" height="64px" viewBox="0 0 64 64" enable-background="new 0 0 64 64" xml:space="preserve">
<path d="M32,1C14.879,1,1,14.879,1,32s13.879,31,31,31s31-13.879,31-31S49.121,1,32,1z M43.199,41.141
	c0.567,0.569,0.567,1.489,0,2.059c-0.284,0.282-0.654,0.426-1.027,0.426c-0.371,0-0.742-0.144-1.025-0.426l-9.145-9.143
	l-9.143,9.143c-0.286,0.282-0.658,0.426-1.031,0.426c-0.371,0-0.742-0.144-1.025-0.426c-0.569-0.569-0.569-1.489,0-2.059
	l9.145-9.142l-9.145-9.143c-0.569-0.567-0.569-1.487,0-2.055c0.567-0.569,1.487-0.569,2.057,0l9.143,9.143l9.145-9.143
	c0.567-0.569,1.485-0.569,2.053,0c0.567,0.567,0.567,1.487,0,2.055l-9.143,9.143L43.199,41.141z"/>
</svg>
